%TF.GenerationSoftware,KiCad,Pcbnew,7.0.7*%
%TF.CreationDate,2023-08-24T23:35:40+10:00*%
%TF.ProjectId,esp32,65737033-322e-46b6-9963-61645f706362,rev?*%
%TF.SameCoordinates,Original*%
%TF.FileFunction,Legend,Bot*%
%TF.FilePolarity,Positive*%
%FSLAX46Y46*%
G04 Gerber Fmt 4.6, Leading zero omitted, Abs format (unit mm)*
G04 Created by KiCad (PCBNEW 7.0.7) date 2023-08-24 23:35:40*
%MOMM*%
%LPD*%
G01*
G04 APERTURE LIST*
G04 APERTURE END LIST*
%TO.C,G\u002A\u002A\u002A*%
G36*
X52985794Y-65474926D02*
G01*
X53138281Y-65474926D01*
X53290768Y-65474926D01*
X53290768Y-66084874D01*
X53290768Y-66694823D01*
X53443255Y-66694823D01*
X53595742Y-66694823D01*
X53595742Y-66999797D01*
X53595742Y-67152284D01*
X53595742Y-67609746D01*
X53900717Y-67609746D01*
X54205691Y-67609746D01*
X54205691Y-67762233D01*
X54205710Y-67773839D01*
X54214063Y-67869924D01*
X54255976Y-67907976D01*
X54358178Y-67914720D01*
X54369785Y-67914739D01*
X54465870Y-67923092D01*
X54503921Y-67965005D01*
X54510665Y-68067207D01*
X54510684Y-68078814D01*
X54519037Y-68174899D01*
X54560951Y-68212950D01*
X54663152Y-68219694D01*
X54674759Y-68219713D01*
X54770844Y-68228066D01*
X54808895Y-68269980D01*
X54815639Y-68372181D01*
X54815658Y-68383788D01*
X54824011Y-68479873D01*
X54865925Y-68517924D01*
X54968127Y-68524669D01*
X55120614Y-68524669D01*
X55120614Y-68829643D01*
X55120614Y-69134617D01*
X55273101Y-69134617D01*
X55284707Y-69134636D01*
X55380792Y-69142989D01*
X55418844Y-69184903D01*
X55425588Y-69287104D01*
X55425588Y-69439591D01*
X55730562Y-69439591D01*
X56035537Y-69439591D01*
X56035537Y-69592079D01*
X56035537Y-69744566D01*
X56492998Y-69744566D01*
X56950459Y-69744566D01*
X56950459Y-69897053D01*
X56950478Y-69908659D01*
X56958831Y-70004744D01*
X57000745Y-70042796D01*
X57102946Y-70049540D01*
X57255434Y-70049540D01*
X57255434Y-70354514D01*
X57255434Y-70659488D01*
X57407921Y-70659488D01*
X57560408Y-70659488D01*
X57560408Y-71116950D01*
X57560408Y-71574411D01*
X57407921Y-71574411D01*
X57255434Y-71574411D01*
X57255434Y-72336847D01*
X57255434Y-73099283D01*
X57407921Y-73099283D01*
X57560408Y-73099283D01*
X57560408Y-73861718D01*
X57560408Y-74166693D01*
X57560408Y-74624154D01*
X57407921Y-74624154D01*
X57255434Y-74624154D01*
X57255434Y-74929128D01*
X57255434Y-75234103D01*
X57102946Y-75234103D01*
X57091340Y-75234121D01*
X56995255Y-75242474D01*
X56957204Y-75284388D01*
X56950459Y-75386590D01*
X56950440Y-75398196D01*
X56942088Y-75494281D01*
X56900174Y-75532332D01*
X56797972Y-75539077D01*
X56645485Y-75539077D01*
X56645485Y-76149025D01*
X56645485Y-76758974D01*
X56797972Y-76758974D01*
X56950459Y-76758974D01*
X56950459Y-77673897D01*
X56950459Y-78588820D01*
X57102946Y-78588820D01*
X57255434Y-78588820D01*
X57255434Y-79198768D01*
X57255434Y-79808717D01*
X57407921Y-79808717D01*
X57560408Y-79808717D01*
X57560408Y-80571152D01*
X57560408Y-81028614D01*
X57560408Y-81333588D01*
X57712895Y-81333588D01*
X57865382Y-81333588D01*
X57865382Y-81638562D01*
X57865382Y-81791049D01*
X57865382Y-82248511D01*
X58017869Y-82248511D01*
X58029476Y-82248530D01*
X58125561Y-82256882D01*
X58163612Y-82298796D01*
X58170356Y-82400998D01*
X58170375Y-82412604D01*
X58178728Y-82508689D01*
X58220642Y-82546741D01*
X58322844Y-82553485D01*
X58475331Y-82553485D01*
X58475331Y-82858459D01*
X58475331Y-83163434D01*
X58627818Y-83163434D01*
X58639424Y-83163453D01*
X58735509Y-83171805D01*
X58773561Y-83213719D01*
X58780305Y-83315921D01*
X58780324Y-83327527D01*
X58788677Y-83423612D01*
X58830590Y-83461663D01*
X58932792Y-83468408D01*
X58944399Y-83468427D01*
X59040484Y-83476780D01*
X59078535Y-83518693D01*
X59085279Y-83620895D01*
X59085298Y-83632502D01*
X59093651Y-83728587D01*
X59135565Y-83766638D01*
X59237766Y-83773382D01*
X59390253Y-83773382D01*
X59390253Y-84230844D01*
X59390253Y-84535818D01*
X59390253Y-84688305D01*
X59237766Y-84688305D01*
X59226160Y-84688324D01*
X59130075Y-84696677D01*
X59092024Y-84738590D01*
X59085279Y-84840792D01*
X59085260Y-84852399D01*
X59076908Y-84948484D01*
X59034994Y-84986535D01*
X58932792Y-84993279D01*
X58921186Y-84993298D01*
X58825101Y-85001651D01*
X58787049Y-85043565D01*
X58780305Y-85145766D01*
X58780286Y-85157373D01*
X58771933Y-85253458D01*
X58730020Y-85291509D01*
X58627818Y-85298253D01*
X58475331Y-85298253D01*
X58475331Y-85755715D01*
X58475331Y-86213176D01*
X58627818Y-86213176D01*
X58780305Y-86213176D01*
X58780305Y-86670638D01*
X58780305Y-87128099D01*
X58475331Y-87128099D01*
X58170356Y-87128099D01*
X58170356Y-87280586D01*
X58170356Y-87433073D01*
X57865382Y-87433073D01*
X57560408Y-87433073D01*
X57560408Y-87585561D01*
X57560408Y-87738048D01*
X57255434Y-87738048D01*
X56950459Y-87738048D01*
X56950459Y-87890535D01*
X56950459Y-88043022D01*
X56645485Y-88043022D01*
X56340511Y-88043022D01*
X56340511Y-88195509D01*
X56340492Y-88207116D01*
X56332139Y-88303201D01*
X56290225Y-88341252D01*
X56188024Y-88347996D01*
X56176417Y-88348015D01*
X56080332Y-88356368D01*
X56042281Y-88398282D01*
X56035537Y-88500483D01*
X56035518Y-88512090D01*
X56027165Y-88608175D01*
X55985251Y-88646226D01*
X55883049Y-88652970D01*
X55871443Y-88652989D01*
X55775358Y-88661342D01*
X55737307Y-88703256D01*
X55730562Y-88805458D01*
X55730562Y-88957945D01*
X54510665Y-88957945D01*
X53290768Y-88957945D01*
X53290768Y-88805458D01*
X53290749Y-88793851D01*
X53282396Y-88697766D01*
X53240483Y-88659715D01*
X53138281Y-88652970D01*
X53126674Y-88652951D01*
X53030589Y-88644599D01*
X52992538Y-88602685D01*
X52985794Y-88500483D01*
X52985794Y-88347996D01*
X52680820Y-88347996D01*
X52375845Y-88347996D01*
X52375845Y-88195509D01*
X52375826Y-88183903D01*
X52367474Y-88087817D01*
X52325560Y-88049766D01*
X52223358Y-88043022D01*
X52211752Y-88043003D01*
X52115667Y-88034650D01*
X52077615Y-87992736D01*
X52070871Y-87890535D01*
X52070871Y-87738048D01*
X51765897Y-87738048D01*
X51460922Y-87738048D01*
X51460922Y-87585561D01*
X51460903Y-87573954D01*
X51452551Y-87477869D01*
X51410637Y-87439818D01*
X51308435Y-87433073D01*
X51296829Y-87433054D01*
X51200744Y-87424702D01*
X51162693Y-87382788D01*
X51155948Y-87280586D01*
X51155929Y-87268980D01*
X51147576Y-87172895D01*
X51105663Y-87134843D01*
X51003461Y-87128099D01*
X50850974Y-87128099D01*
X50850974Y-86670638D01*
X50850974Y-86213176D01*
X50698487Y-86213176D01*
X50686880Y-86213157D01*
X50590795Y-86204805D01*
X50552744Y-86162891D01*
X50546000Y-86060689D01*
X50545981Y-86049083D01*
X50537628Y-85952998D01*
X50495714Y-85914946D01*
X50393513Y-85908202D01*
X50241025Y-85908202D01*
X50241025Y-85603228D01*
X50241025Y-85298253D01*
X49936051Y-85298253D01*
X49631077Y-85298253D01*
X49631077Y-84993279D01*
X49631077Y-84688305D01*
X49478590Y-84688305D01*
X49326103Y-84688305D01*
X49326103Y-84230844D01*
X49631077Y-84230844D01*
X49631096Y-84242450D01*
X49639449Y-84338535D01*
X49681362Y-84376586D01*
X49783564Y-84383331D01*
X49795170Y-84383350D01*
X49891256Y-84391702D01*
X49929307Y-84433616D01*
X49936051Y-84535818D01*
X49936070Y-84547424D01*
X49944423Y-84643509D01*
X49986337Y-84681561D01*
X50088538Y-84688305D01*
X50100145Y-84688286D01*
X50196230Y-84679933D01*
X50234281Y-84638020D01*
X50241025Y-84535818D01*
X50241006Y-84524211D01*
X50232654Y-84428126D01*
X50190740Y-84390075D01*
X50088538Y-84383331D01*
X50076932Y-84383312D01*
X49980847Y-84374959D01*
X49942795Y-84333045D01*
X49936051Y-84230844D01*
X49936032Y-84219237D01*
X49927679Y-84123152D01*
X49885766Y-84085101D01*
X49783564Y-84078356D01*
X49771957Y-84078375D01*
X49675872Y-84086728D01*
X49637821Y-84128642D01*
X49631077Y-84230844D01*
X49326103Y-84230844D01*
X49326103Y-84078356D01*
X49326103Y-83468408D01*
X49173615Y-83468408D01*
X49021128Y-83468408D01*
X49021128Y-83163434D01*
X49021128Y-82858459D01*
X48868641Y-82858459D01*
X48857035Y-82858440D01*
X48760950Y-82850088D01*
X48722898Y-82808174D01*
X48716154Y-82705972D01*
X48716135Y-82694366D01*
X48707782Y-82598281D01*
X48665869Y-82560229D01*
X48563667Y-82553485D01*
X48411180Y-82553485D01*
X48411180Y-82248511D01*
X48411180Y-81943536D01*
X48258693Y-81943536D01*
X48247086Y-81943518D01*
X48151001Y-81935165D01*
X48112950Y-81893251D01*
X48106205Y-81791049D01*
X48106187Y-81779443D01*
X48097834Y-81683358D01*
X48055920Y-81645307D01*
X47953718Y-81638562D01*
X49326103Y-81638562D01*
X49478590Y-81638562D01*
X49631077Y-81638562D01*
X49631077Y-82248511D01*
X49631077Y-82858459D01*
X49783564Y-82858459D01*
X49936051Y-82858459D01*
X49936051Y-83163434D01*
X49936051Y-83468408D01*
X50088538Y-83468408D01*
X50241025Y-83468408D01*
X50850974Y-83468408D01*
X51003461Y-83468408D01*
X51155948Y-83468408D01*
X51155948Y-83773382D01*
X51155948Y-84078356D01*
X51308435Y-84078356D01*
X51460922Y-84078356D01*
X51460922Y-83620895D01*
X51460922Y-83163434D01*
X51613410Y-83163434D01*
X51625016Y-83163415D01*
X51721101Y-83155062D01*
X51759152Y-83113148D01*
X51765897Y-83010946D01*
X51765916Y-82999340D01*
X51774268Y-82903255D01*
X51816182Y-82865204D01*
X51918384Y-82858459D01*
X52070871Y-82858459D01*
X52070871Y-82553485D01*
X52070871Y-82248511D01*
X51918384Y-82248511D01*
X51906777Y-82248492D01*
X51810692Y-82240139D01*
X51772641Y-82198225D01*
X51765897Y-82096024D01*
X51765897Y-81943536D01*
X51460922Y-81943536D01*
X51155948Y-81943536D01*
X51155948Y-82400998D01*
X51155948Y-82858459D01*
X51003461Y-82858459D01*
X50850974Y-82858459D01*
X50850974Y-83163434D01*
X50850974Y-83468408D01*
X50241025Y-83468408D01*
X50241025Y-82858459D01*
X50241025Y-82248511D01*
X50393513Y-82248511D01*
X50546000Y-82248511D01*
X50546000Y-81791049D01*
X50546000Y-81333588D01*
X51155948Y-81333588D01*
X51765897Y-81333588D01*
X51765897Y-81486075D01*
X51765897Y-81638562D01*
X52223358Y-81638562D01*
X52680820Y-81638562D01*
X52680820Y-81028614D01*
X52680820Y-80418665D01*
X52223358Y-80418665D01*
X51765897Y-80418665D01*
X51765897Y-80266178D01*
X51765897Y-80113691D01*
X51003461Y-80113691D01*
X50241025Y-80113691D01*
X50241025Y-79961204D01*
X50241025Y-79808717D01*
X49936051Y-79808717D01*
X49631077Y-79808717D01*
X49631077Y-80113691D01*
X49631077Y-80418665D01*
X49478590Y-80418665D01*
X49326103Y-80418665D01*
X49326103Y-81028614D01*
X49326103Y-81638562D01*
X47953718Y-81638562D01*
X47942112Y-81638543D01*
X47846027Y-81630190D01*
X47807976Y-81588277D01*
X47801231Y-81486075D01*
X47801231Y-81333588D01*
X47496257Y-81333588D01*
X47191283Y-81333588D01*
X47191283Y-81181101D01*
X47191264Y-81169494D01*
X47182911Y-81073409D01*
X47140997Y-81035358D01*
X47038796Y-81028614D01*
X47027189Y-81028595D01*
X46931104Y-81020242D01*
X46893053Y-80978328D01*
X46886308Y-80876127D01*
X46886308Y-80723639D01*
X46581334Y-80723639D01*
X46276360Y-80723639D01*
X46276360Y-80571152D01*
X46276360Y-80418665D01*
X45818898Y-80418665D01*
X45361437Y-80418665D01*
X45361437Y-80266178D01*
X45361437Y-80113691D01*
X45056463Y-80113691D01*
X44751488Y-80113691D01*
X44751488Y-79961204D01*
X44751488Y-79808717D01*
X44294027Y-79808717D01*
X43836566Y-79808717D01*
X43836566Y-79656229D01*
X43836566Y-79503742D01*
X43379104Y-79503742D01*
X42921643Y-79503742D01*
X42921643Y-79351255D01*
X42921624Y-79339649D01*
X42913271Y-79243564D01*
X42871357Y-79205512D01*
X42769156Y-79198768D01*
X42757549Y-79198749D01*
X42661464Y-79190396D01*
X42623413Y-79148483D01*
X42616669Y-79046281D01*
X42616650Y-79034674D01*
X42608297Y-78938589D01*
X42566383Y-78900538D01*
X42464181Y-78893794D01*
X42311694Y-78893794D01*
X42311694Y-78588820D01*
X42311694Y-78283845D01*
X42159207Y-78283845D01*
X42006720Y-78283845D01*
X42006720Y-77826384D01*
X42006720Y-77368922D01*
X41854233Y-77368922D01*
X41701746Y-77368922D01*
X41701746Y-77063948D01*
X42616669Y-77063948D01*
X42769156Y-77063948D01*
X42921643Y-77063948D01*
X42921643Y-77826384D01*
X42921643Y-78588820D01*
X43074130Y-78588820D01*
X43085737Y-78588838D01*
X43181822Y-78597191D01*
X43219873Y-78639105D01*
X43226617Y-78741307D01*
X43226636Y-78752913D01*
X43234989Y-78848998D01*
X43276903Y-78887049D01*
X43379104Y-78893794D01*
X43531591Y-78893794D01*
X43531591Y-78131358D01*
X43531591Y-77978871D01*
X44446514Y-77978871D01*
X44599001Y-77978871D01*
X44751488Y-77978871D01*
X44751488Y-78741307D01*
X44751488Y-79503742D01*
X45361437Y-79503742D01*
X45971386Y-79503742D01*
X45971386Y-78588820D01*
X45971386Y-78283845D01*
X46581334Y-78283845D01*
X46733821Y-78283845D01*
X46886308Y-78283845D01*
X46886308Y-78893794D01*
X46886308Y-79503742D01*
X47038796Y-79503742D01*
X47191283Y-79503742D01*
X47191283Y-79961204D01*
X47191283Y-80418665D01*
X47343770Y-80418665D01*
X47355376Y-80418684D01*
X47451461Y-80427037D01*
X47489513Y-80468951D01*
X47496257Y-80571152D01*
X47496257Y-80723639D01*
X47801231Y-80723639D01*
X48106205Y-80723639D01*
X48106205Y-80876127D01*
X48106224Y-80887733D01*
X48114577Y-80983818D01*
X48156491Y-81021869D01*
X48258693Y-81028614D01*
X48270299Y-81028595D01*
X48366384Y-81020242D01*
X48404435Y-80978328D01*
X48411180Y-80876127D01*
X48411199Y-80864520D01*
X48419551Y-80768435D01*
X48461465Y-80730384D01*
X48563667Y-80723639D01*
X48716154Y-80723639D01*
X48716154Y-80113691D01*
X48716154Y-79503742D01*
X48868641Y-79503742D01*
X48880248Y-79503723D01*
X48976333Y-79495371D01*
X49014384Y-79453457D01*
X49021128Y-79351255D01*
X49021128Y-79198768D01*
X50088538Y-79198768D01*
X51155948Y-79198768D01*
X52070871Y-79198768D01*
X52223358Y-79198768D01*
X52234965Y-79198787D01*
X52331050Y-79207140D01*
X52369101Y-79249053D01*
X52375845Y-79351255D01*
X52375864Y-79362862D01*
X52384217Y-79458947D01*
X52426131Y-79496998D01*
X52528332Y-79503742D01*
X52680820Y-79503742D01*
X52680820Y-79198768D01*
X52680820Y-78893794D01*
X52528332Y-78893794D01*
X52516726Y-78893775D01*
X52420641Y-78885422D01*
X52382590Y-78843508D01*
X52375845Y-78741307D01*
X52375826Y-78729700D01*
X52367474Y-78633615D01*
X52325560Y-78595564D01*
X52223358Y-78588820D01*
X52070871Y-78588820D01*
X52070871Y-78893794D01*
X52070871Y-79198768D01*
X51155948Y-79198768D01*
X51155948Y-78893794D01*
X51155948Y-78588820D01*
X51003461Y-78588820D01*
X50991855Y-78588801D01*
X50895769Y-78580448D01*
X50857718Y-78538534D01*
X50850974Y-78436332D01*
X50850974Y-78283845D01*
X50393513Y-78283845D01*
X49936051Y-78283845D01*
X49936051Y-77978871D01*
X49936051Y-77673897D01*
X49478590Y-77673897D01*
X49021128Y-77673897D01*
X49021128Y-77521410D01*
X49021128Y-77368922D01*
X48716154Y-77368922D01*
X48411180Y-77368922D01*
X48411180Y-77216435D01*
X48411180Y-77063948D01*
X47496257Y-77063948D01*
X46581334Y-77063948D01*
X46581334Y-77673897D01*
X46581334Y-78283845D01*
X45971386Y-78283845D01*
X45971386Y-77673897D01*
X46123873Y-77673897D01*
X46276360Y-77673897D01*
X46276360Y-76911461D01*
X46276360Y-76149025D01*
X46886308Y-76149025D01*
X47496257Y-76149025D01*
X47496257Y-76301512D01*
X47496257Y-76454000D01*
X48106205Y-76454000D01*
X48716154Y-76454000D01*
X48716154Y-76606487D01*
X48716154Y-76758974D01*
X49173615Y-76758974D01*
X49631077Y-76758974D01*
X49631077Y-76606487D01*
X49631077Y-76454000D01*
X49326103Y-76454000D01*
X49021128Y-76454000D01*
X49021128Y-76301512D01*
X49021109Y-76289906D01*
X49012757Y-76193821D01*
X48970843Y-76155770D01*
X48868641Y-76149025D01*
X48857035Y-76149006D01*
X48760950Y-76140654D01*
X48722898Y-76098740D01*
X48716154Y-75996538D01*
X48716135Y-75984932D01*
X48707782Y-75888847D01*
X48665869Y-75850795D01*
X48563667Y-75844051D01*
X48552060Y-75844070D01*
X48455975Y-75852423D01*
X48417924Y-75894336D01*
X48411180Y-75996538D01*
X48411161Y-76008145D01*
X48402808Y-76104230D01*
X48360894Y-76142281D01*
X48258693Y-76149025D01*
X48106205Y-76149025D01*
X48106205Y-75844051D01*
X48106205Y-75539077D01*
X47953718Y-75539077D01*
X47942112Y-75539096D01*
X47846027Y-75547449D01*
X47807976Y-75589362D01*
X47801231Y-75691564D01*
X47801231Y-75844051D01*
X46581334Y-75844051D01*
X45361437Y-75844051D01*
X45361437Y-75691564D01*
X45361418Y-75679957D01*
X45353065Y-75583872D01*
X45311152Y-75545821D01*
X45208950Y-75539077D01*
X45056463Y-75539077D01*
X45056463Y-75234103D01*
X45666411Y-75234103D01*
X47191283Y-75234103D01*
X48716154Y-75234103D01*
X48716154Y-75386590D01*
X48716173Y-75398196D01*
X48724526Y-75494281D01*
X48766439Y-75532332D01*
X48868641Y-75539077D01*
X48880248Y-75539096D01*
X48976333Y-75547449D01*
X49014384Y-75589362D01*
X49021128Y-75691564D01*
X49021147Y-75703170D01*
X49029500Y-75799256D01*
X49071414Y-75837307D01*
X49173615Y-75844051D01*
X49185222Y-75844070D01*
X49281307Y-75852423D01*
X49319358Y-75894336D01*
X49326103Y-75996538D01*
X49326103Y-76149025D01*
X49631077Y-76149025D01*
X49936051Y-76149025D01*
X49936051Y-76301512D01*
X49936070Y-76313119D01*
X49944423Y-76409204D01*
X49986337Y-76447255D01*
X50088538Y-76454000D01*
X50100145Y-76454019D01*
X50196230Y-76462371D01*
X50234281Y-76504285D01*
X50241025Y-76606487D01*
X50241044Y-76618093D01*
X50249397Y-76714178D01*
X50291311Y-76752230D01*
X50393513Y-76758974D01*
X50546000Y-76758974D01*
X50546000Y-77063948D01*
X50546000Y-77368922D01*
X50698487Y-77368922D01*
X50710093Y-77368941D01*
X50806178Y-77377294D01*
X50844230Y-77419208D01*
X50850974Y-77521410D01*
X50850974Y-77673897D01*
X51155948Y-77673897D01*
X51460922Y-77673897D01*
X51460922Y-77978871D01*
X51460922Y-78283845D01*
X51613410Y-78283845D01*
X51625016Y-78283864D01*
X51721101Y-78292217D01*
X51759152Y-78334131D01*
X51765897Y-78436332D01*
X51765916Y-78447939D01*
X51774268Y-78544024D01*
X51816182Y-78582075D01*
X51918384Y-78588820D01*
X52070871Y-78588820D01*
X52070871Y-78283845D01*
X52070871Y-77978871D01*
X51918384Y-77978871D01*
X51906777Y-77978852D01*
X51810692Y-77970499D01*
X51772641Y-77928586D01*
X51765897Y-77826384D01*
X51765878Y-77814777D01*
X51757525Y-77718692D01*
X51715611Y-77680641D01*
X51613410Y-77673897D01*
X51601803Y-77673878D01*
X51505718Y-77665525D01*
X51467667Y-77623611D01*
X51460922Y-77521410D01*
X51460903Y-77509803D01*
X51452551Y-77413718D01*
X51410637Y-77375667D01*
X51308435Y-77368922D01*
X51296829Y-77368903D01*
X51200744Y-77360551D01*
X51162693Y-77318637D01*
X51155948Y-77216435D01*
X51155929Y-77204829D01*
X51147576Y-77108744D01*
X51105663Y-77070693D01*
X51003461Y-77063948D01*
X50850974Y-77063948D01*
X50850974Y-76758974D01*
X50850974Y-76454000D01*
X50698487Y-76454000D01*
X50546000Y-76454000D01*
X50546000Y-76149025D01*
X50546000Y-75844051D01*
X50393513Y-75844051D01*
X50241025Y-75844051D01*
X50241025Y-75539077D01*
X50241025Y-75234103D01*
X50088538Y-75234103D01*
X50076932Y-75234084D01*
X49980847Y-75225731D01*
X49942795Y-75183817D01*
X49936051Y-75081615D01*
X49936051Y-74929128D01*
X49631077Y-74929128D01*
X49326103Y-74929128D01*
X49326103Y-74776641D01*
X49326103Y-74624154D01*
X48563667Y-74624154D01*
X47801231Y-74624154D01*
X47801231Y-74319180D01*
X47801231Y-74014205D01*
X47648744Y-74014205D01*
X47637138Y-74014224D01*
X47541052Y-74022577D01*
X47503001Y-74064491D01*
X47496257Y-74166693D01*
X47496257Y-74319180D01*
X46733821Y-74319180D01*
X45971386Y-74319180D01*
X45971386Y-74624154D01*
X45971386Y-74929128D01*
X45818898Y-74929128D01*
X45807292Y-74929147D01*
X45711207Y-74937500D01*
X45673156Y-74979414D01*
X45666411Y-75081615D01*
X45666411Y-75234103D01*
X45056463Y-75234103D01*
X45056463Y-74776641D01*
X45056463Y-74014205D01*
X45208950Y-74014205D01*
X45361437Y-74014205D01*
X45361437Y-73404257D01*
X45361437Y-72794308D01*
X45208950Y-72794308D01*
X45197343Y-72794289D01*
X45101258Y-72785937D01*
X45063207Y-72744023D01*
X45056463Y-72641821D01*
X45056444Y-72630215D01*
X45048091Y-72534130D01*
X45006177Y-72496078D01*
X44903976Y-72489334D01*
X44751488Y-72489334D01*
X44751488Y-72794308D01*
X44751488Y-73099283D01*
X44599001Y-73099283D01*
X44446514Y-73099283D01*
X44446514Y-74929128D01*
X44446514Y-76758974D01*
X44599001Y-76758974D01*
X44610608Y-76758993D01*
X44706693Y-76767346D01*
X44744744Y-76809259D01*
X44751488Y-76911461D01*
X44751470Y-76923068D01*
X44743117Y-77019153D01*
X44701203Y-77057204D01*
X44599001Y-77063948D01*
X44446514Y-77063948D01*
X44446514Y-77521410D01*
X44446514Y-77978871D01*
X43531591Y-77978871D01*
X43531591Y-77368922D01*
X43684079Y-77368922D01*
X43836566Y-77368922D01*
X43836566Y-76758974D01*
X43836566Y-76149025D01*
X43684079Y-76149025D01*
X43672472Y-76149006D01*
X43576387Y-76140654D01*
X43538336Y-76098740D01*
X43531591Y-75996538D01*
X43531610Y-75984932D01*
X43539963Y-75888847D01*
X43581877Y-75850795D01*
X43684079Y-75844051D01*
X43836566Y-75844051D01*
X43836566Y-75539077D01*
X43836566Y-75234103D01*
X43989053Y-75234103D01*
X44000659Y-75234084D01*
X44096744Y-75225731D01*
X44134796Y-75183817D01*
X44141540Y-75081615D01*
X44141521Y-75070009D01*
X44133168Y-74973924D01*
X44091255Y-74935873D01*
X43989053Y-74929128D01*
X43836566Y-74929128D01*
X43836566Y-73861718D01*
X43836566Y-72794308D01*
X43989053Y-72794308D01*
X44141540Y-72794308D01*
X44141540Y-72489334D01*
X44141540Y-72184360D01*
X44294027Y-72184360D01*
X44446514Y-72184360D01*
X44446514Y-71879386D01*
X45361437Y-71879386D01*
X45513924Y-71879386D01*
X47496257Y-71879386D01*
X47648744Y-71879386D01*
X47801231Y-71879386D01*
X47801231Y-72184360D01*
X47801231Y-72489334D01*
X47953718Y-72489334D01*
X47965325Y-72489353D01*
X48061410Y-72497706D01*
X48099461Y-72539620D01*
X48106205Y-72641821D01*
X48106224Y-72653428D01*
X48114577Y-72749513D01*
X48156491Y-72787564D01*
X48258693Y-72794308D01*
X48411180Y-72794308D01*
X48411180Y-73099283D01*
X48411180Y-73404257D01*
X48563667Y-73404257D01*
X48575273Y-73404276D01*
X48671358Y-73412629D01*
X48709410Y-73454542D01*
X48716154Y-73556744D01*
X48716154Y-73709231D01*
X49021128Y-73709231D01*
X49326103Y-73709231D01*
X49326103Y-73861718D01*
X49326122Y-73873325D01*
X49334474Y-73969410D01*
X49376388Y-74007461D01*
X49478590Y-74014205D01*
X49490196Y-74014224D01*
X49586281Y-74022577D01*
X49624332Y-74064491D01*
X49631077Y-74166693D01*
X49631096Y-74178299D01*
X49639449Y-74274384D01*
X49681362Y-74312435D01*
X49783564Y-74319180D01*
X49795170Y-74319199D01*
X49891256Y-74327551D01*
X49929307Y-74369465D01*
X49936051Y-74471667D01*
X49936070Y-74483273D01*
X49944423Y-74579358D01*
X49986337Y-74617410D01*
X50088538Y-74624154D01*
X50100145Y-74624173D01*
X50196230Y-74632526D01*
X50234281Y-74674439D01*
X50241025Y-74776641D01*
X50241044Y-74788248D01*
X50249397Y-74884333D01*
X50291311Y-74922384D01*
X50393513Y-74929128D01*
X50405119Y-74929147D01*
X50501204Y-74937500D01*
X50539255Y-74979414D01*
X50546000Y-75081615D01*
X50546019Y-75093222D01*
X50554371Y-75189307D01*
X50596285Y-75227358D01*
X50698487Y-75234103D01*
X50850974Y-75234103D01*
X50850974Y-75539077D01*
X50850974Y-75844051D01*
X51003461Y-75844051D01*
X51015068Y-75844070D01*
X51111153Y-75852423D01*
X51149204Y-75894336D01*
X51155948Y-75996538D01*
X51155967Y-76008145D01*
X51164320Y-76104230D01*
X51206234Y-76142281D01*
X51308435Y-76149025D01*
X51460922Y-76149025D01*
X51460922Y-76454000D01*
X51460922Y-76758974D01*
X51613410Y-76758974D01*
X51765897Y-76758974D01*
X51765897Y-77063948D01*
X51765897Y-77368922D01*
X51918384Y-77368922D01*
X51929990Y-77368941D01*
X52026075Y-77377294D01*
X52064127Y-77419208D01*
X52070871Y-77521410D01*
X52070890Y-77533016D01*
X52079243Y-77629101D01*
X52121156Y-77667152D01*
X52223358Y-77673897D01*
X52375845Y-77673897D01*
X52375845Y-77978871D01*
X52375845Y-78283845D01*
X52528332Y-78283845D01*
X52539939Y-78283864D01*
X52636024Y-78292217D01*
X52674075Y-78334131D01*
X52680820Y-78436332D01*
X52680838Y-78447939D01*
X52689191Y-78544024D01*
X52731105Y-78582075D01*
X52833307Y-78588820D01*
X52985794Y-78588820D01*
X52985794Y-78893794D01*
X52985794Y-79198768D01*
X53138281Y-79198768D01*
X53290768Y-79198768D01*
X53290768Y-79503742D01*
X53290768Y-79808717D01*
X53443255Y-79808717D01*
X53595742Y-79808717D01*
X53595742Y-79503742D01*
X53900717Y-79503742D01*
X54053204Y-79503742D01*
X54064810Y-79503761D01*
X54160895Y-79512114D01*
X54198947Y-79554028D01*
X54205691Y-79656229D01*
X54205710Y-79667836D01*
X54214063Y-79763921D01*
X54255976Y-79801972D01*
X54358178Y-79808717D01*
X54510665Y-79808717D01*
X54510665Y-79503742D01*
X54510665Y-79198768D01*
X54358178Y-79198768D01*
X54205691Y-79198768D01*
X54205691Y-78893794D01*
X54205691Y-78588820D01*
X54053204Y-78588820D01*
X53900717Y-78588820D01*
X53900717Y-79046281D01*
X53900717Y-79503742D01*
X53595742Y-79503742D01*
X53595742Y-79351255D01*
X53595742Y-78893794D01*
X53443255Y-78893794D01*
X53290768Y-78893794D01*
X53290768Y-78588820D01*
X53290768Y-78283845D01*
X53138281Y-78283845D01*
X52985794Y-78283845D01*
X52985794Y-77978871D01*
X52985794Y-77673897D01*
X52833307Y-77673897D01*
X52680820Y-77673897D01*
X52680820Y-77216435D01*
X52680820Y-76758974D01*
X52528332Y-76758974D01*
X52375845Y-76758974D01*
X52375845Y-76301512D01*
X52375845Y-75844051D01*
X52223358Y-75844051D01*
X52070871Y-75844051D01*
X52070871Y-75539077D01*
X52070871Y-75234103D01*
X51918384Y-75234103D01*
X51906777Y-75234084D01*
X51810692Y-75225731D01*
X51772641Y-75183817D01*
X51765897Y-75081615D01*
X51765878Y-75070009D01*
X51757525Y-74973924D01*
X51715611Y-74935873D01*
X51613410Y-74929128D01*
X51601803Y-74929109D01*
X51505718Y-74920757D01*
X51467667Y-74878843D01*
X51460922Y-74776641D01*
X51460903Y-74765035D01*
X51452551Y-74668950D01*
X51410637Y-74630898D01*
X51308435Y-74624154D01*
X51296829Y-74624135D01*
X51200744Y-74615782D01*
X51162693Y-74573869D01*
X51155948Y-74471667D01*
X51155929Y-74460060D01*
X51147576Y-74363975D01*
X51105663Y-74325924D01*
X51003461Y-74319180D01*
X50991855Y-74319161D01*
X50895769Y-74310808D01*
X50857718Y-74268894D01*
X50850974Y-74166693D01*
X50850974Y-74014205D01*
X50546000Y-74014205D01*
X50241025Y-74014205D01*
X50241025Y-73861718D01*
X50241006Y-73850112D01*
X50232654Y-73754027D01*
X50190740Y-73715976D01*
X50088538Y-73709231D01*
X50076932Y-73709212D01*
X49980847Y-73700859D01*
X49942795Y-73658946D01*
X49936051Y-73556744D01*
X49936032Y-73545138D01*
X49927679Y-73449052D01*
X49885766Y-73411001D01*
X49783564Y-73404257D01*
X49771957Y-73404238D01*
X49675872Y-73395885D01*
X49637821Y-73353971D01*
X49631077Y-73251770D01*
X49631058Y-73240163D01*
X49622705Y-73144078D01*
X49580791Y-73106027D01*
X49478590Y-73099283D01*
X49466983Y-73099264D01*
X49370898Y-73090911D01*
X49332847Y-73048997D01*
X49326103Y-72946795D01*
X49326103Y-72794308D01*
X50850974Y-72794308D01*
X51003461Y-72794308D01*
X51015068Y-72794327D01*
X51111153Y-72802680D01*
X51149204Y-72844594D01*
X51155948Y-72946795D01*
X51155967Y-72958402D01*
X51164320Y-73054487D01*
X51206234Y-73092538D01*
X51308435Y-73099283D01*
X51460922Y-73099283D01*
X51460922Y-73556744D01*
X51460922Y-74014205D01*
X51613410Y-74014205D01*
X51765897Y-74014205D01*
X51765897Y-74319180D01*
X51765897Y-74624154D01*
X51918384Y-74624154D01*
X51929990Y-74624173D01*
X52026075Y-74632526D01*
X52064127Y-74674439D01*
X52070871Y-74776641D01*
X52070890Y-74788248D01*
X52079243Y-74884333D01*
X52121156Y-74922384D01*
X52223358Y-74929128D01*
X52375845Y-74929128D01*
X52375845Y-75234103D01*
X52375845Y-75539077D01*
X52528332Y-75539077D01*
X52680820Y-75539077D01*
X52680820Y-75996538D01*
X52680820Y-76454000D01*
X52833307Y-76454000D01*
X52985794Y-76454000D01*
X52985794Y-76911461D01*
X52985794Y-77368922D01*
X53138281Y-77368922D01*
X53290768Y-77368922D01*
X53290768Y-77673897D01*
X53290768Y-77978871D01*
X53443255Y-77978871D01*
X53454862Y-77978890D01*
X53550947Y-77987243D01*
X53588998Y-78029156D01*
X53595742Y-78131358D01*
X53595761Y-78142965D01*
X53604114Y-78239050D01*
X53646028Y-78277101D01*
X53748229Y-78283845D01*
X53900717Y-78283845D01*
X53900717Y-77978871D01*
X53900717Y-77673897D01*
X53748229Y-77673897D01*
X53595742Y-77673897D01*
X53595742Y-76606487D01*
X53595742Y-75539077D01*
X53443255Y-75539077D01*
X53431649Y-75539058D01*
X53335564Y-75530705D01*
X53297512Y-75488791D01*
X53290768Y-75386590D01*
X53290749Y-75374983D01*
X53282396Y-75278898D01*
X53240483Y-75240847D01*
X53138281Y-75234103D01*
X52985794Y-75234103D01*
X52985794Y-74929128D01*
X52985794Y-74624154D01*
X52833307Y-74624154D01*
X52680820Y-74624154D01*
X52680820Y-74319180D01*
X52680820Y-74014205D01*
X52528332Y-74014205D01*
X52516726Y-74014186D01*
X52420641Y-74005834D01*
X52382590Y-73963920D01*
X52375845Y-73861718D01*
X52375826Y-73850112D01*
X52367474Y-73754027D01*
X52325560Y-73715976D01*
X52223358Y-73709231D01*
X52070871Y-73709231D01*
X52070871Y-73404257D01*
X52070871Y-73099283D01*
X51918384Y-73099283D01*
X51765897Y-73099283D01*
X51765897Y-72794308D01*
X52680820Y-72794308D01*
X52833307Y-72794308D01*
X52985794Y-72794308D01*
X52985794Y-73556744D01*
X52985794Y-74319180D01*
X53138281Y-74319180D01*
X53290768Y-74319180D01*
X53290768Y-74624154D01*
X53290768Y-74929128D01*
X53443255Y-74929128D01*
X53454862Y-74929147D01*
X53550947Y-74937500D01*
X53588998Y-74979414D01*
X53595742Y-75081615D01*
X53595761Y-75093222D01*
X53604114Y-75189307D01*
X53646028Y-75227358D01*
X53748229Y-75234103D01*
X53900717Y-75234103D01*
X53900717Y-76301512D01*
X53900717Y-77368922D01*
X54053204Y-77368922D01*
X54205691Y-77368922D01*
X54205691Y-77826384D01*
X54205691Y-78283845D01*
X54358178Y-78283845D01*
X54510665Y-78283845D01*
X54510665Y-78588820D01*
X54510665Y-78893794D01*
X54663152Y-78893794D01*
X54815639Y-78893794D01*
X54815639Y-79503742D01*
X54815639Y-79808717D01*
X54815639Y-80113691D01*
X54968127Y-80113691D01*
X55120614Y-80113691D01*
X55120614Y-80571152D01*
X55120614Y-81028614D01*
X55273101Y-81028614D01*
X55425588Y-81028614D01*
X55425588Y-80571152D01*
X55425588Y-80113691D01*
X55273101Y-80113691D01*
X55120614Y-80113691D01*
X55120614Y-79351255D01*
X55120614Y-78588820D01*
X54968127Y-78588820D01*
X54815639Y-78588820D01*
X54815639Y-77673897D01*
X54815639Y-76758974D01*
X54663152Y-76758974D01*
X54510665Y-76758974D01*
X54510665Y-75996538D01*
X54510665Y-75234103D01*
X54358178Y-75234103D01*
X54205691Y-75234103D01*
X54205691Y-74929128D01*
X54205691Y-74624154D01*
X54358178Y-74624154D01*
X54369785Y-74624173D01*
X54465870Y-74632526D01*
X54503921Y-74674439D01*
X54510665Y-74776641D01*
X54510684Y-74788248D01*
X54519037Y-74884333D01*
X54560951Y-74922384D01*
X54663152Y-74929128D01*
X54815639Y-74929128D01*
X54815639Y-75234103D01*
X54815639Y-75539077D01*
X54968127Y-75539077D01*
X55120614Y-75539077D01*
X55120614Y-76911461D01*
X55120614Y-78283845D01*
X55273101Y-78283845D01*
X55425588Y-78283845D01*
X55425588Y-78741307D01*
X55425588Y-79198768D01*
X55578075Y-79198768D01*
X55730562Y-79198768D01*
X55730562Y-79656229D01*
X55730562Y-80113691D01*
X55883049Y-80113691D01*
X56035537Y-80113691D01*
X56035537Y-80571152D01*
X56035537Y-81028614D01*
X56188024Y-81028614D01*
X56340511Y-81028614D01*
X56340511Y-79046281D01*
X56340511Y-77063948D01*
X56188024Y-77063948D01*
X56035537Y-77063948D01*
X56035537Y-76758974D01*
X56035537Y-76454000D01*
X55883049Y-76454000D01*
X55730562Y-76454000D01*
X55730562Y-76149025D01*
X55730562Y-75844051D01*
X55578075Y-75844051D01*
X55425588Y-75844051D01*
X55425588Y-75539077D01*
X55425588Y-75234103D01*
X56340511Y-75234103D01*
X56492998Y-75234103D01*
X56504604Y-75234084D01*
X56600689Y-75225731D01*
X56638741Y-75183817D01*
X56645485Y-75081615D01*
X56645504Y-75070009D01*
X56653857Y-74973924D01*
X56695770Y-74935873D01*
X56797972Y-74929128D01*
X56950459Y-74929128D01*
X56950459Y-74624154D01*
X56950459Y-74319180D01*
X57102946Y-74319180D01*
X57114553Y-74319161D01*
X57210638Y-74310808D01*
X57248689Y-74268894D01*
X57255434Y-74166693D01*
X57255415Y-74155086D01*
X57247062Y-74059001D01*
X57205148Y-74020950D01*
X57102946Y-74014205D01*
X57091340Y-74014224D01*
X56995255Y-74022577D01*
X56957204Y-74064491D01*
X56950459Y-74166693D01*
X56950459Y-74319180D01*
X56645485Y-74319180D01*
X56340511Y-74319180D01*
X56340511Y-74776641D01*
X56340511Y-75234103D01*
X55425588Y-75234103D01*
X55273101Y-75234103D01*
X55120614Y-75234103D01*
X55120614Y-74776641D01*
X55120614Y-74319180D01*
X54968127Y-74319180D01*
X54815639Y-74319180D01*
X54815639Y-73861718D01*
X54815639Y-73404257D01*
X54663152Y-73404257D01*
X54510665Y-73404257D01*
X54510665Y-72641821D01*
X54510665Y-71879386D01*
X54358178Y-71879386D01*
X54205691Y-71879386D01*
X54205691Y-71269437D01*
X54205691Y-70659488D01*
X54053204Y-70659488D01*
X53900717Y-70659488D01*
X53900717Y-69744566D01*
X53900717Y-69134617D01*
X54205691Y-69134617D01*
X54358178Y-69134617D01*
X54510665Y-69134617D01*
X54510665Y-69744566D01*
X54510665Y-70354514D01*
X54663152Y-70354514D01*
X54674759Y-70354533D01*
X54770844Y-70362886D01*
X54808895Y-70404800D01*
X54815639Y-70507001D01*
X54815658Y-70518608D01*
X54824011Y-70614693D01*
X54865925Y-70652744D01*
X54968127Y-70659488D01*
X55120614Y-70659488D01*
X55120614Y-70964463D01*
X55120614Y-71269437D01*
X55425588Y-71269437D01*
X55730562Y-71269437D01*
X55730562Y-71421924D01*
X55730581Y-71433531D01*
X55738934Y-71529616D01*
X55780848Y-71567667D01*
X55883049Y-71574411D01*
X56035537Y-71574411D01*
X56035537Y-71879386D01*
X56035537Y-72184360D01*
X55883049Y-72184360D01*
X55730562Y-72184360D01*
X55730562Y-72489334D01*
X55730562Y-72794308D01*
X55578075Y-72794308D01*
X55425588Y-72794308D01*
X55425588Y-73099283D01*
X55425588Y-73404257D01*
X55578075Y-73404257D01*
X55589682Y-73404238D01*
X55685767Y-73395885D01*
X55723818Y-73353971D01*
X55730562Y-73251770D01*
X55730581Y-73240163D01*
X55738934Y-73144078D01*
X55780848Y-73106027D01*
X55883049Y-73099283D01*
X56035537Y-73099283D01*
X56035537Y-72794308D01*
X56035537Y-72489334D01*
X56188024Y-72489334D01*
X56340511Y-72489334D01*
X56340511Y-72184360D01*
X56340511Y-71879386D01*
X56492998Y-71879386D01*
X56504604Y-71879367D01*
X56600689Y-71871014D01*
X56638741Y-71829100D01*
X56645485Y-71726898D01*
X56645504Y-71715292D01*
X56653857Y-71619207D01*
X56695770Y-71581156D01*
X56797972Y-71574411D01*
X56950459Y-71574411D01*
X56950459Y-70964463D01*
X56950459Y-70354514D01*
X56797972Y-70354514D01*
X56786366Y-70354495D01*
X56690281Y-70346142D01*
X56652229Y-70304229D01*
X56645485Y-70202027D01*
X56645485Y-70049540D01*
X56188024Y-70049540D01*
X55730562Y-70049540D01*
X55730562Y-69897053D01*
X55730562Y-69744566D01*
X55425588Y-69744566D01*
X55120614Y-69744566D01*
X55120614Y-69592079D01*
X55120595Y-69580472D01*
X55112242Y-69484387D01*
X55070328Y-69446336D01*
X54968127Y-69439591D01*
X54815639Y-69439591D01*
X54815639Y-69134617D01*
X54815639Y-68829643D01*
X54663152Y-68829643D01*
X54651546Y-68829624D01*
X54555461Y-68821271D01*
X54517410Y-68779357D01*
X54510665Y-68677156D01*
X54510646Y-68665549D01*
X54502293Y-68569464D01*
X54460380Y-68531413D01*
X54358178Y-68524669D01*
X54205691Y-68524669D01*
X54205691Y-68829643D01*
X54205691Y-69134617D01*
X53900717Y-69134617D01*
X53900717Y-68829643D01*
X53748229Y-68829643D01*
X53736623Y-68829662D01*
X53640538Y-68838015D01*
X53602487Y-68879928D01*
X53595742Y-68982130D01*
X53595723Y-68993736D01*
X53587371Y-69089822D01*
X53545457Y-69127873D01*
X53443255Y-69134617D01*
X53431649Y-69134636D01*
X53335564Y-69142989D01*
X53297512Y-69184903D01*
X53290768Y-69287104D01*
X53290749Y-69298711D01*
X53282396Y-69394796D01*
X53240483Y-69432847D01*
X53138281Y-69439591D01*
X52985794Y-69439591D01*
X52985794Y-69744566D01*
X52985794Y-70049540D01*
X53138281Y-70049540D01*
X53290768Y-70049540D01*
X53290768Y-70659488D01*
X53290768Y-71269437D01*
X53443255Y-71269437D01*
X53595742Y-71269437D01*
X53595742Y-72336847D01*
X53595742Y-73404257D01*
X53748229Y-73404257D01*
X53900717Y-73404257D01*
X53900717Y-73709231D01*
X53900717Y-74014205D01*
X54053204Y-74014205D01*
X54205691Y-74014205D01*
X54205691Y-74319180D01*
X54205691Y-74624154D01*
X54053204Y-74624154D01*
X54041597Y-74624135D01*
X53945512Y-74615782D01*
X53907461Y-74573869D01*
X53900717Y-74471667D01*
X53900698Y-74460060D01*
X53892345Y-74363975D01*
X53850431Y-74325924D01*
X53748229Y-74319180D01*
X53595742Y-74319180D01*
X53595742Y-74014205D01*
X53595742Y-73709231D01*
X53443255Y-73709231D01*
X53290768Y-73709231D01*
X53290768Y-72794308D01*
X53290768Y-71879386D01*
X53138281Y-71879386D01*
X52985794Y-71879386D01*
X52985794Y-71421924D01*
X52985794Y-70964463D01*
X52833307Y-70964463D01*
X52680820Y-70964463D01*
X52680820Y-71879386D01*
X52680820Y-72794308D01*
X51765897Y-72794308D01*
X51765897Y-72641821D01*
X51765897Y-72184360D01*
X51918384Y-72184360D01*
X52070871Y-72184360D01*
X52070871Y-71879386D01*
X52070871Y-71574411D01*
X52223358Y-71574411D01*
X52375845Y-71574411D01*
X52375845Y-70964463D01*
X52375845Y-70354514D01*
X52528332Y-70354514D01*
X52680820Y-70354514D01*
X52680820Y-70049540D01*
X52680820Y-69744566D01*
X52528332Y-69744566D01*
X52375845Y-69744566D01*
X52375845Y-69439591D01*
X52375845Y-69134617D01*
X52070871Y-69134617D01*
X51765897Y-69134617D01*
X51765897Y-69897053D01*
X51765897Y-70659488D01*
X51613410Y-70659488D01*
X51460922Y-70659488D01*
X51460922Y-70964463D01*
X51460922Y-71269437D01*
X51308435Y-71269437D01*
X51155948Y-71269437D01*
X51155948Y-71726898D01*
X51155948Y-72184360D01*
X51003461Y-72184360D01*
X50850974Y-72184360D01*
X50850974Y-72489334D01*
X50850974Y-72794308D01*
X49326103Y-72794308D01*
X49021128Y-72794308D01*
X48716154Y-72794308D01*
X48716154Y-72641821D01*
X48716135Y-72630215D01*
X48707782Y-72534130D01*
X48665869Y-72496078D01*
X48563667Y-72489334D01*
X48552060Y-72489315D01*
X48455975Y-72480962D01*
X48417924Y-72439049D01*
X48411180Y-72336847D01*
X48411180Y-72184360D01*
X48716154Y-72184360D01*
X49021128Y-72184360D01*
X49021128Y-72031873D01*
X49021128Y-71879386D01*
X49326103Y-71879386D01*
X49631077Y-71879386D01*
X49631077Y-71726898D01*
X49631077Y-71574411D01*
X50088538Y-71574411D01*
X50546000Y-71574411D01*
X50546000Y-70964463D01*
X50546000Y-70354514D01*
X50698487Y-70354514D01*
X50850974Y-70354514D01*
X50850974Y-70659488D01*
X50850974Y-70964463D01*
X51003461Y-70964463D01*
X51155948Y-70964463D01*
X51155948Y-70049540D01*
X51155948Y-69134617D01*
X51003461Y-69134617D01*
X50850974Y-69134617D01*
X50850974Y-68677156D01*
X50850974Y-68219694D01*
X50698487Y-68219694D01*
X50686880Y-68219675D01*
X50590795Y-68211323D01*
X50552744Y-68169409D01*
X50546000Y-68067207D01*
X50546000Y-67914720D01*
X50241025Y-67914720D01*
X49936051Y-67914720D01*
X49936051Y-67762233D01*
X49936051Y-67609746D01*
X49631077Y-67609746D01*
X49326103Y-67609746D01*
X49326103Y-67762233D01*
X49326084Y-67773839D01*
X49317731Y-67869924D01*
X49275817Y-67907976D01*
X49173615Y-67914720D01*
X49021128Y-67914720D01*
X49021128Y-68219694D01*
X49021128Y-68524669D01*
X48868641Y-68524669D01*
X48857035Y-68524688D01*
X48760950Y-68533040D01*
X48722898Y-68574954D01*
X48716154Y-68677156D01*
X48716135Y-68688762D01*
X48707782Y-68784847D01*
X48665869Y-68822898D01*
X48563667Y-68829643D01*
X48411180Y-68829643D01*
X48411180Y-69134617D01*
X48411180Y-69439591D01*
X48258693Y-69439591D01*
X48106205Y-69439591D01*
X48106205Y-69744566D01*
X48106205Y-70049540D01*
X47953718Y-70049540D01*
X47801231Y-70049540D01*
X47801231Y-70507001D01*
X47801231Y-70964463D01*
X47648744Y-70964463D01*
X47496257Y-70964463D01*
X47496257Y-71421924D01*
X47496257Y-71879386D01*
X45513924Y-71879386D01*
X45525531Y-71879367D01*
X45621616Y-71871014D01*
X45659667Y-71829100D01*
X45666411Y-71726898D01*
X45666411Y-71574411D01*
X46123873Y-71574411D01*
X46581334Y-71574411D01*
X46581334Y-71116950D01*
X46581334Y-70659488D01*
X46733821Y-70659488D01*
X46886308Y-70659488D01*
X46886308Y-70354514D01*
X46886308Y-70049540D01*
X47038796Y-70049540D01*
X47050402Y-70049521D01*
X47146487Y-70041168D01*
X47184538Y-69999254D01*
X47191283Y-69897053D01*
X47191302Y-69885446D01*
X47199654Y-69789361D01*
X47241568Y-69751310D01*
X47343770Y-69744566D01*
X47355376Y-69744547D01*
X47451461Y-69736194D01*
X47489513Y-69694280D01*
X47496257Y-69592079D01*
X47496276Y-69580472D01*
X47504629Y-69484387D01*
X47546542Y-69446336D01*
X47648744Y-69439591D01*
X47660351Y-69439572D01*
X47756436Y-69431220D01*
X47794487Y-69389306D01*
X47801231Y-69287104D01*
X47801250Y-69275498D01*
X47809603Y-69179413D01*
X47851517Y-69141361D01*
X47953718Y-69134617D01*
X48106205Y-69134617D01*
X48106205Y-68829643D01*
X48106205Y-68524669D01*
X48258693Y-68524669D01*
X48270299Y-68524650D01*
X48366384Y-68516297D01*
X48404435Y-68474383D01*
X48411180Y-68372181D01*
X48411199Y-68360575D01*
X48419551Y-68264490D01*
X48461465Y-68226439D01*
X48563667Y-68219694D01*
X48716154Y-68219694D01*
X48716154Y-67762233D01*
X48716154Y-67304771D01*
X48106205Y-67304771D01*
X47496257Y-67304771D01*
X47496257Y-68067207D01*
X47496257Y-68524669D01*
X47496257Y-68829643D01*
X47191283Y-68829643D01*
X46886308Y-68829643D01*
X46886308Y-69134617D01*
X46886308Y-69439591D01*
X46733821Y-69439591D01*
X46722215Y-69439610D01*
X46626130Y-69447963D01*
X46588078Y-69489877D01*
X46581334Y-69592079D01*
X46581315Y-69603685D01*
X46572962Y-69699770D01*
X46531049Y-69737821D01*
X46428847Y-69744566D01*
X46276360Y-69744566D01*
X46276360Y-70049540D01*
X46276360Y-70354514D01*
X46123873Y-70354514D01*
X46112266Y-70354533D01*
X46016181Y-70362886D01*
X45978130Y-70404800D01*
X45971386Y-70507001D01*
X45971367Y-70518608D01*
X45963014Y-70614693D01*
X45921100Y-70652744D01*
X45818898Y-70659488D01*
X45666411Y-70659488D01*
X45666411Y-70964463D01*
X45666411Y-71269437D01*
X45513924Y-71269437D01*
X45361437Y-71269437D01*
X45361437Y-71574411D01*
X45361437Y-71879386D01*
X44446514Y-71879386D01*
X44446514Y-71574411D01*
X44599001Y-71574411D01*
X44751488Y-71574411D01*
X44751488Y-71269437D01*
X44751488Y-70964463D01*
X44903976Y-70964463D01*
X45056463Y-70964463D01*
X45056463Y-70659488D01*
X45056463Y-70354514D01*
X45361437Y-70354514D01*
X45666411Y-70354514D01*
X45666411Y-70049540D01*
X45666411Y-69744566D01*
X45818898Y-69744566D01*
X45971386Y-69744566D01*
X45971386Y-69439591D01*
X45971386Y-69134617D01*
X46123873Y-69134617D01*
X46135479Y-69134598D01*
X46231564Y-69126245D01*
X46269615Y-69084332D01*
X46276360Y-68982130D01*
X46276379Y-68970523D01*
X46284732Y-68874438D01*
X46326645Y-68836387D01*
X46428847Y-68829643D01*
X46440454Y-68829624D01*
X46536539Y-68821271D01*
X46574590Y-68779357D01*
X46581334Y-68677156D01*
X46581353Y-68665549D01*
X46589706Y-68569464D01*
X46631620Y-68531413D01*
X46733821Y-68524669D01*
X46886308Y-68524669D01*
X46886308Y-68219694D01*
X46886308Y-67914720D01*
X46733821Y-67914720D01*
X46581334Y-67914720D01*
X46581334Y-67609746D01*
X46581334Y-67304771D01*
X46276360Y-67304771D01*
X45971386Y-67304771D01*
X45971386Y-67457259D01*
X45971386Y-67609746D01*
X45666411Y-67609746D01*
X45361437Y-67609746D01*
X45361437Y-67914720D01*
X45361437Y-68219694D01*
X45208950Y-68219694D01*
X45056463Y-68219694D01*
X45056463Y-68677156D01*
X45056463Y-69134617D01*
X44903976Y-69134617D01*
X44751488Y-69134617D01*
X44751488Y-69897053D01*
X44751488Y-70659488D01*
X44599001Y-70659488D01*
X44446514Y-70659488D01*
X44446514Y-71116950D01*
X44446514Y-71574411D01*
X44294027Y-71574411D01*
X44282421Y-71574430D01*
X44186336Y-71582783D01*
X44148284Y-71624697D01*
X44141540Y-71726898D01*
X44141521Y-71738505D01*
X44133168Y-71834590D01*
X44091255Y-71872641D01*
X43989053Y-71879386D01*
X43836566Y-71879386D01*
X43836566Y-72184360D01*
X43836566Y-72489334D01*
X43684079Y-72489334D01*
X43531591Y-72489334D01*
X43531591Y-73251770D01*
X43531591Y-74014205D01*
X43379104Y-74014205D01*
X43226617Y-74014205D01*
X43226617Y-74319180D01*
X43226617Y-74624154D01*
X43074130Y-74624154D01*
X42921643Y-74624154D01*
X42921643Y-74929128D01*
X42921643Y-75234103D01*
X42769156Y-75234103D01*
X42616669Y-75234103D01*
X42616669Y-76149025D01*
X42616669Y-77063948D01*
X41701746Y-77063948D01*
X41701746Y-76149025D01*
X41701746Y-74929128D01*
X41854233Y-74929128D01*
X42006720Y-74929128D01*
X42006720Y-74624154D01*
X42006720Y-74319180D01*
X42159207Y-74319180D01*
X42170814Y-74319161D01*
X42266899Y-74310808D01*
X42304950Y-74268894D01*
X42311694Y-74166693D01*
X42311713Y-74155086D01*
X42320066Y-74059001D01*
X42361980Y-74020950D01*
X42464181Y-74014205D01*
X42475788Y-74014186D01*
X42571873Y-74005834D01*
X42609924Y-73963920D01*
X42616669Y-73861718D01*
X42616688Y-73850112D01*
X42625040Y-73754027D01*
X42666954Y-73715976D01*
X42769156Y-73709231D01*
X42921643Y-73709231D01*
X42921643Y-73099283D01*
X42921643Y-72489334D01*
X43074130Y-72489334D01*
X43226617Y-72489334D01*
X43226617Y-72031873D01*
X43226617Y-71574411D01*
X43379104Y-71574411D01*
X43531591Y-71574411D01*
X43531591Y-71269437D01*
X43531591Y-70964463D01*
X43684079Y-70964463D01*
X43836566Y-70964463D01*
X43836566Y-70659488D01*
X43836566Y-70354514D01*
X43989053Y-70354514D01*
X44141540Y-70354514D01*
X44141540Y-70049540D01*
X44141540Y-69744566D01*
X44294027Y-69744566D01*
X44446514Y-69744566D01*
X44446514Y-68982130D01*
X44446514Y-68219694D01*
X44599001Y-68219694D01*
X44751488Y-68219694D01*
X44751488Y-67762233D01*
X44751488Y-67304771D01*
X44903976Y-67304771D01*
X45056463Y-67304771D01*
X45056463Y-66694823D01*
X45971386Y-66694823D01*
X46276360Y-66694823D01*
X46581334Y-66694823D01*
X47801231Y-66694823D01*
X48258693Y-66694823D01*
X48716154Y-66694823D01*
X49631077Y-66694823D01*
X49936051Y-66694823D01*
X50241025Y-66694823D01*
X50241025Y-66847310D01*
X50241044Y-66858917D01*
X50249397Y-66955002D01*
X50291311Y-66993053D01*
X50393513Y-66999797D01*
X50405119Y-66999816D01*
X50501204Y-67008169D01*
X50539255Y-67050083D01*
X50546000Y-67152284D01*
X50546019Y-67163891D01*
X50554371Y-67259976D01*
X50596285Y-67298027D01*
X50698487Y-67304771D01*
X50850974Y-67304771D01*
X50850974Y-66999797D01*
X50850974Y-66694823D01*
X50698487Y-66694823D01*
X50546000Y-66694823D01*
X50546000Y-66237362D01*
X50850974Y-66237362D01*
X50850993Y-66248968D01*
X50859346Y-66345053D01*
X50901259Y-66383104D01*
X51003461Y-66389849D01*
X51015068Y-66389830D01*
X51111153Y-66381477D01*
X51149204Y-66339563D01*
X51155948Y-66237362D01*
X52070871Y-66237362D01*
X52070871Y-66694823D01*
X52070871Y-67304771D01*
X52070871Y-67914720D01*
X52223358Y-67914720D01*
X52234965Y-67914739D01*
X52331050Y-67923092D01*
X52369101Y-67965005D01*
X52375845Y-68067207D01*
X52375864Y-68078814D01*
X52384217Y-68174899D01*
X52426131Y-68212950D01*
X52528332Y-68219694D01*
X52680820Y-68219694D01*
X52680820Y-67609746D01*
X52985794Y-67609746D01*
X53138281Y-67609746D01*
X53290768Y-67609746D01*
X53290768Y-67304771D01*
X53290768Y-66999797D01*
X53138281Y-66999797D01*
X52985794Y-66999797D01*
X52985794Y-67304771D01*
X52985794Y-67609746D01*
X52680820Y-67609746D01*
X52680820Y-66999797D01*
X52680820Y-65779900D01*
X52528332Y-65779900D01*
X52516726Y-65779881D01*
X52420641Y-65771528D01*
X52382590Y-65729615D01*
X52375845Y-65627413D01*
X52375826Y-65615806D01*
X52367474Y-65519721D01*
X52325560Y-65481670D01*
X52223358Y-65474926D01*
X52070871Y-65474926D01*
X52070871Y-66237362D01*
X51155948Y-66237362D01*
X51155929Y-66225755D01*
X51147576Y-66129670D01*
X51105663Y-66091619D01*
X51003461Y-66084874D01*
X50991855Y-66084893D01*
X50895769Y-66093246D01*
X50857718Y-66135160D01*
X50850974Y-66237362D01*
X50546000Y-66237362D01*
X50546000Y-65779900D01*
X50393513Y-65779900D01*
X50381906Y-65779919D01*
X50285821Y-65788272D01*
X50247770Y-65830186D01*
X50241025Y-65932387D01*
X50241006Y-65943994D01*
X50232654Y-66040079D01*
X50190740Y-66078130D01*
X50088538Y-66084874D01*
X50076932Y-66084893D01*
X49980847Y-66093246D01*
X49942795Y-66135160D01*
X49936051Y-66237362D01*
X49936032Y-66248968D01*
X49927679Y-66345053D01*
X49885766Y-66383104D01*
X49783564Y-66389849D01*
X49771957Y-66389868D01*
X49675872Y-66398220D01*
X49637821Y-66440134D01*
X49631077Y-66542336D01*
X49631077Y-66694823D01*
X48716154Y-66694823D01*
X48716154Y-66542336D01*
X48716135Y-66530729D01*
X48707782Y-66434644D01*
X48665869Y-66396593D01*
X48563667Y-66389849D01*
X48552060Y-66389830D01*
X48455975Y-66381477D01*
X48417924Y-66339563D01*
X48411180Y-66237362D01*
X48411161Y-66225755D01*
X48402808Y-66129670D01*
X48360894Y-66091619D01*
X48258693Y-66084874D01*
X48247086Y-66084893D01*
X48151001Y-66093246D01*
X48112950Y-66135160D01*
X48106205Y-66237362D01*
X48106187Y-66248968D01*
X48097834Y-66345053D01*
X48055920Y-66383104D01*
X47953718Y-66389849D01*
X47942112Y-66389868D01*
X47846027Y-66398220D01*
X47807976Y-66440134D01*
X47801231Y-66542336D01*
X47801231Y-66694823D01*
X46581334Y-66694823D01*
X46581334Y-66389849D01*
X46581334Y-66084874D01*
X46428847Y-66084874D01*
X46417240Y-66084893D01*
X46321155Y-66093246D01*
X46283104Y-66135160D01*
X46276360Y-66237362D01*
X46276341Y-66248968D01*
X46267988Y-66345053D01*
X46226074Y-66383104D01*
X46123873Y-66389849D01*
X46112266Y-66389868D01*
X46016181Y-66398220D01*
X45978130Y-66440134D01*
X45971386Y-66542336D01*
X45971386Y-66694823D01*
X45056463Y-66694823D01*
X45056463Y-66542336D01*
X45056463Y-65779900D01*
X45208950Y-65779900D01*
X45220556Y-65779919D01*
X45316641Y-65788272D01*
X45354693Y-65830186D01*
X45361437Y-65932387D01*
X45361456Y-65943994D01*
X45369809Y-66040079D01*
X45411722Y-66078130D01*
X45513924Y-66084874D01*
X45525531Y-66084855D01*
X45621616Y-66076503D01*
X45659667Y-66034589D01*
X45666411Y-65932387D01*
X45666411Y-65779900D01*
X45971386Y-65779900D01*
X46276360Y-65779900D01*
X46276360Y-65627413D01*
X46276379Y-65615806D01*
X46284732Y-65519721D01*
X46326645Y-65481670D01*
X46428847Y-65474926D01*
X46440454Y-65474907D01*
X46536539Y-65466554D01*
X46574590Y-65424640D01*
X46581334Y-65322439D01*
X46581353Y-65310832D01*
X46589706Y-65214747D01*
X46631620Y-65176696D01*
X46733821Y-65169952D01*
X46886308Y-65169952D01*
X46886308Y-65474926D01*
X46886308Y-65779900D01*
X47038796Y-65779900D01*
X47191283Y-65779900D01*
X47191283Y-65474926D01*
X47191283Y-65169952D01*
X47343770Y-65169952D01*
X47355376Y-65169933D01*
X47451461Y-65161580D01*
X47489513Y-65119666D01*
X47496257Y-65017464D01*
X47496257Y-64864977D01*
X47801231Y-64864977D01*
X48106205Y-64864977D01*
X48106205Y-64712490D01*
X48106224Y-64700884D01*
X48114577Y-64604799D01*
X48156491Y-64566747D01*
X48258693Y-64560003D01*
X48270299Y-64560022D01*
X48366384Y-64568375D01*
X48404435Y-64610288D01*
X48411180Y-64712490D01*
X48411199Y-64724097D01*
X48419551Y-64820182D01*
X48461465Y-64858233D01*
X48563667Y-64864977D01*
X48575273Y-64864996D01*
X48671358Y-64873349D01*
X48709410Y-64915263D01*
X48716154Y-65017464D01*
X48716173Y-65029071D01*
X48724526Y-65125156D01*
X48766439Y-65163207D01*
X48868641Y-65169952D01*
X49021128Y-65169952D01*
X49021128Y-65017464D01*
X49936051Y-65017464D01*
X49936070Y-65029071D01*
X49944423Y-65125156D01*
X49986337Y-65163207D01*
X50088538Y-65169952D01*
X50100145Y-65169933D01*
X50196230Y-65161580D01*
X50234281Y-65119666D01*
X50241025Y-65017464D01*
X50241006Y-65005858D01*
X50232654Y-64909773D01*
X50190740Y-64871722D01*
X50088538Y-64864977D01*
X50076932Y-64864996D01*
X49980847Y-64873349D01*
X49942795Y-64915263D01*
X49936051Y-65017464D01*
X49021128Y-65017464D01*
X49021128Y-64864977D01*
X49021128Y-64560003D01*
X49173615Y-64560003D01*
X49185222Y-64559984D01*
X49281307Y-64551631D01*
X49319358Y-64509718D01*
X49326103Y-64407516D01*
X49326122Y-64395909D01*
X49334474Y-64299824D01*
X49376388Y-64261773D01*
X49478590Y-64255029D01*
X49490196Y-64255010D01*
X49586281Y-64246657D01*
X49624332Y-64204743D01*
X49631077Y-64102542D01*
X49631096Y-64090935D01*
X49639449Y-63994850D01*
X49681362Y-63956799D01*
X49783564Y-63950055D01*
X49795170Y-63950073D01*
X49891256Y-63958426D01*
X49929307Y-64000340D01*
X49936051Y-64102542D01*
X49936051Y-64255029D01*
X50241025Y-64255029D01*
X50546000Y-64255029D01*
X50546000Y-64407516D01*
X50546019Y-64419122D01*
X50554371Y-64515207D01*
X50596285Y-64553259D01*
X50698487Y-64560003D01*
X50710093Y-64559984D01*
X50806178Y-64551631D01*
X50844230Y-64509718D01*
X50850974Y-64407516D01*
X50850993Y-64395909D01*
X50859346Y-64299824D01*
X50901259Y-64261773D01*
X51003461Y-64255029D01*
X51015068Y-64255048D01*
X51111153Y-64263400D01*
X51149204Y-64305314D01*
X51155948Y-64407516D01*
X51155967Y-64419122D01*
X51164320Y-64515207D01*
X51206234Y-64553259D01*
X51308435Y-64560003D01*
X51460922Y-64560003D01*
X51460922Y-64255029D01*
X51460922Y-63950055D01*
X51765897Y-63950055D01*
X52070871Y-63950055D01*
X52070871Y-64102542D01*
X52070890Y-64114148D01*
X52079243Y-64210233D01*
X52121156Y-64248284D01*
X52223358Y-64255029D01*
X52234965Y-64255010D01*
X52331050Y-64246657D01*
X52369101Y-64204743D01*
X52375845Y-64102542D01*
X52375864Y-64090935D01*
X52384217Y-63994850D01*
X52426131Y-63956799D01*
X52528332Y-63950055D01*
X52539939Y-63950073D01*
X52636024Y-63958426D01*
X52674075Y-64000340D01*
X52680820Y-64102542D01*
X52680838Y-64114148D01*
X52689191Y-64210233D01*
X52731105Y-64248284D01*
X52833307Y-64255029D01*
X52985794Y-64255029D01*
X52985794Y-64864977D01*
X52985794Y-65017464D01*
X52985794Y-65474926D01*
G37*
G36*
X49490196Y-70354533D02*
G01*
X49586281Y-70362886D01*
X49624332Y-70404800D01*
X49631077Y-70507001D01*
X49631096Y-70518608D01*
X49639449Y-70614693D01*
X49681362Y-70652744D01*
X49783564Y-70659488D01*
X49795170Y-70659507D01*
X49891256Y-70667860D01*
X49929307Y-70709774D01*
X49936051Y-70811976D01*
X49936032Y-70823582D01*
X49927679Y-70919667D01*
X49885766Y-70957718D01*
X49783564Y-70964463D01*
X49771957Y-70964444D01*
X49675872Y-70956091D01*
X49637821Y-70914177D01*
X49631077Y-70811976D01*
X49631058Y-70800369D01*
X49622705Y-70704284D01*
X49580791Y-70666233D01*
X49478590Y-70659488D01*
X49466983Y-70659470D01*
X49370898Y-70651117D01*
X49332847Y-70609203D01*
X49326103Y-70507001D01*
X49326122Y-70495395D01*
X49334474Y-70399310D01*
X49376388Y-70361259D01*
X49478590Y-70354514D01*
X49490196Y-70354533D01*
G37*
G36*
X49490196Y-69439610D02*
G01*
X49586281Y-69447963D01*
X49624332Y-69489877D01*
X49631077Y-69592079D01*
X49631058Y-69603685D01*
X49622705Y-69699770D01*
X49580791Y-69737821D01*
X49478590Y-69744566D01*
X49466983Y-69744547D01*
X49370898Y-69736194D01*
X49332847Y-69694280D01*
X49326103Y-69592079D01*
X49326122Y-69580472D01*
X49334474Y-69484387D01*
X49376388Y-69446336D01*
X49478590Y-69439591D01*
X49490196Y-69439610D01*
G37*
%TD*%
M02*
