%TF.GenerationSoftware,KiCad,Pcbnew,7.0.7*%
%TF.CreationDate,2023-08-23T10:39:31+10:00*%
%TF.ProjectId,esp32,65737033-322e-46b6-9963-61645f706362,rev?*%
%TF.SameCoordinates,Original*%
%TF.FileFunction,Copper,L2,Bot*%
%TF.FilePolarity,Positive*%
%FSLAX46Y46*%
G04 Gerber Fmt 4.6, Leading zero omitted, Abs format (unit mm)*
G04 Created by KiCad (PCBNEW 7.0.7) date 2023-08-23 10:39:31*
%MOMM*%
%LPD*%
G01*
G04 APERTURE LIST*
%TA.AperFunction,ComponentPad*%
%ADD10C,4.400000*%
%TD*%
%TA.AperFunction,ViaPad*%
%ADD11C,0.800000*%
%TD*%
%TA.AperFunction,Conductor*%
%ADD12C,0.250000*%
%TD*%
G04 APERTURE END LIST*
D10*
%TO.P,REF\u002A\u002A,1*%
%TO.N,N/C*%
X63500000Y-99060000D03*
%TD*%
%TO.P,REF\u002A\u002A,1*%
%TO.N,N/C*%
X63500000Y-38100000D03*
%TD*%
%TO.P,REF\u002A\u002A,1*%
%TO.N,N/C*%
X38100000Y-38100000D03*
%TD*%
%TO.P,REF\u002A\u002A,1*%
%TO.N,N/C*%
X38100000Y-99060000D03*
%TD*%
D11*
%TO.N,GND*%
X40640000Y-40640000D03*
X43180000Y-40640000D03*
X54356000Y-84582000D03*
X47244000Y-87630000D03*
X53594000Y-87630000D03*
X45212000Y-87630000D03*
%TO.N,+3.3V*%
X52324000Y-83058000D03*
X49276000Y-91694000D03*
X43180000Y-43180000D03*
%TO.N,21*%
X50292000Y-90678000D03*
X58420000Y-55880000D03*
%TO.N,20*%
X51308000Y-90678000D03*
X58420000Y-53340000D03*
%TO.N,10*%
X58420000Y-50800000D03*
X52324000Y-90678000D03*
%TO.N,0*%
X43180000Y-55880000D03*
%TO.N,1*%
X43180000Y-53340000D03*
X51054000Y-94234000D03*
%TO.N,2*%
X43180000Y-50800000D03*
X52053503Y-94234000D03*
%TO.N,3*%
X43180000Y-48260000D03*
X53053006Y-94234000D03*
%TO.N,4*%
X43180000Y-45720000D03*
X54052509Y-94234000D03*
%TO.N,Net-(J1-Pin_3)*%
X56516000Y-85090000D03*
X55626000Y-88392000D03*
%TD*%
D12*
%TO.N,GND*%
X43180000Y-40640000D02*
X40640000Y-40640000D01*
X53594000Y-85344000D02*
X53594000Y-87630000D01*
X54356000Y-84582000D02*
X53594000Y-85344000D01*
X47244000Y-87630000D02*
X45212000Y-87630000D01*
%TO.N,21*%
X58695000Y-56155000D02*
X58420000Y-55880000D01*
X50292000Y-86614000D02*
X58695000Y-78211000D01*
X50292000Y-90678000D02*
X50292000Y-86614000D01*
X58695000Y-78211000D02*
X58695000Y-56155000D01*
%TO.N,20*%
X59145000Y-54065000D02*
X58420000Y-53340000D01*
X59145000Y-78397396D02*
X59145000Y-54065000D01*
X51308000Y-90678000D02*
X51308000Y-86234396D01*
X51308000Y-86234396D02*
X59145000Y-78397396D01*
%TO.N,10*%
X52324000Y-85854792D02*
X59595000Y-78583792D01*
X52324000Y-90678000D02*
X52324000Y-85854792D01*
X59595000Y-78583792D02*
X59595000Y-51975000D01*
X59595000Y-51975000D02*
X58420000Y-50800000D01*
%TO.N,1*%
X51054000Y-94234000D02*
X47615695Y-94234000D01*
X47615695Y-94234000D02*
X42233000Y-88851305D01*
X42233000Y-54287000D02*
X43180000Y-53340000D01*
X42233000Y-88851305D02*
X42233000Y-54287000D01*
%TO.N,2*%
X52053503Y-94234000D02*
X52053503Y-94259802D01*
X51354305Y-94959000D02*
X47704299Y-94959000D01*
X41783000Y-52197000D02*
X43180000Y-50800000D01*
X52053503Y-94259802D02*
X51354305Y-94959000D01*
X41783000Y-89037701D02*
X41783000Y-52197000D01*
X47704299Y-94959000D02*
X41783000Y-89037701D01*
%TO.N,3*%
X41333000Y-89224097D02*
X41333000Y-50107000D01*
X41333000Y-50107000D02*
X43180000Y-48260000D01*
X53053006Y-94259802D02*
X51903808Y-95409000D01*
X47517903Y-95409000D02*
X41333000Y-89224097D01*
X51903808Y-95409000D02*
X47517903Y-95409000D01*
X53053006Y-94234000D02*
X53053006Y-94259802D01*
%TO.N,4*%
X54052509Y-94234000D02*
X54052509Y-94259802D01*
X47331507Y-95859000D02*
X40883000Y-89410493D01*
X54052509Y-94259802D02*
X52453311Y-95859000D01*
X40883000Y-89410493D02*
X40883000Y-48017000D01*
X40883000Y-48017000D02*
X43180000Y-45720000D01*
X52453311Y-95859000D02*
X47331507Y-95859000D01*
%TO.N,Net-(J1-Pin_3)*%
X56134000Y-85090000D02*
X56516000Y-85090000D01*
X55626000Y-85598000D02*
X55626000Y-88392000D01*
X55626000Y-85598000D02*
X56134000Y-85090000D01*
%TD*%
%TA.AperFunction,Conductor*%
%TO.N,+3.3V*%
G36*
X44392539Y-35580185D02*
G01*
X44438294Y-35632989D01*
X44449500Y-35684500D01*
X44449500Y-60935467D01*
X44449416Y-60935889D01*
X44449459Y-60960001D01*
X44449500Y-60960099D01*
X44449616Y-60960382D01*
X44449618Y-60960384D01*
X44449808Y-60960462D01*
X44450000Y-60960541D01*
X44450002Y-60960539D01*
X44474616Y-60960524D01*
X44474616Y-60960528D01*
X44474760Y-60960500D01*
X57125240Y-60960500D01*
X57125383Y-60960528D01*
X57125384Y-60960524D01*
X57149997Y-60960539D01*
X57150000Y-60960541D01*
X57150383Y-60960383D01*
X57150500Y-60960099D01*
X57150499Y-60960099D01*
X57150541Y-60960000D01*
X57150540Y-60959998D01*
X57156892Y-60945028D01*
X57150521Y-60924747D01*
X57150499Y-60922417D01*
X57150500Y-35684500D01*
X57170185Y-35617461D01*
X57222989Y-35571706D01*
X57274500Y-35560500D01*
X62036043Y-35560500D01*
X62103082Y-35580185D01*
X62148837Y-35632989D01*
X62158781Y-35702147D01*
X62129756Y-35765703D01*
X62100195Y-35790615D01*
X62037759Y-35828359D01*
X61963131Y-35873473D01*
X61705960Y-36074954D01*
X61474954Y-36305960D01*
X61273473Y-36563131D01*
X61104454Y-36842723D01*
X61104453Y-36842725D01*
X60970372Y-37140642D01*
X60970366Y-37140657D01*
X60873178Y-37452547D01*
X60814289Y-37773900D01*
X60794564Y-38100000D01*
X60814289Y-38426099D01*
X60873178Y-38747452D01*
X60970366Y-39059342D01*
X60970370Y-39059354D01*
X60970373Y-39059361D01*
X61104455Y-39357279D01*
X61206311Y-39525768D01*
X61273473Y-39636868D01*
X61474954Y-39894039D01*
X61705960Y-40125045D01*
X61963131Y-40326526D01*
X61963134Y-40326528D01*
X61963137Y-40326530D01*
X62242721Y-40495545D01*
X62540639Y-40629627D01*
X62540652Y-40629631D01*
X62540657Y-40629633D01*
X62852546Y-40726821D01*
X62852547Y-40726821D01*
X63173896Y-40785710D01*
X63500000Y-40805436D01*
X63826104Y-40785710D01*
X64147453Y-40726821D01*
X64459361Y-40629627D01*
X64757279Y-40495545D01*
X65036863Y-40326530D01*
X65294036Y-40125048D01*
X65525048Y-39894036D01*
X65726530Y-39636863D01*
X65809384Y-39499805D01*
X65860911Y-39452620D01*
X65929770Y-39440781D01*
X65994099Y-39468050D01*
X66033473Y-39525768D01*
X66039500Y-39563957D01*
X66039500Y-97596042D01*
X66019815Y-97663081D01*
X65967011Y-97708836D01*
X65897853Y-97718780D01*
X65834297Y-97689755D01*
X65809383Y-97660192D01*
X65793688Y-97634230D01*
X65726530Y-97523137D01*
X65525048Y-97265964D01*
X65525045Y-97265960D01*
X65294039Y-97034954D01*
X65036868Y-96833473D01*
X65029306Y-96828901D01*
X64757279Y-96664455D01*
X64459361Y-96530373D01*
X64459354Y-96530370D01*
X64459342Y-96530366D01*
X64147452Y-96433178D01*
X63826099Y-96374289D01*
X63500000Y-96354564D01*
X63173900Y-96374289D01*
X62852547Y-96433178D01*
X62540657Y-96530366D01*
X62540641Y-96530372D01*
X62540639Y-96530373D01*
X62508675Y-96544759D01*
X62242725Y-96664453D01*
X62242723Y-96664454D01*
X61963131Y-96833473D01*
X61705960Y-97034954D01*
X61474954Y-97265960D01*
X61273473Y-97523131D01*
X61104454Y-97802723D01*
X61104453Y-97802725D01*
X60970372Y-98100642D01*
X60970366Y-98100657D01*
X60873178Y-98412547D01*
X60814289Y-98733900D01*
X60794564Y-99060000D01*
X60814289Y-99386099D01*
X60873178Y-99707452D01*
X60970366Y-100019342D01*
X60970370Y-100019354D01*
X60970373Y-100019361D01*
X61104455Y-100317279D01*
X61268901Y-100589306D01*
X61273473Y-100596868D01*
X61474954Y-100854039D01*
X61705960Y-101085045D01*
X61963131Y-101286526D01*
X61963134Y-101286528D01*
X61963137Y-101286530D01*
X62100194Y-101369384D01*
X62147380Y-101420911D01*
X62159219Y-101489770D01*
X62131950Y-101554099D01*
X62074232Y-101593473D01*
X62036043Y-101599500D01*
X58544500Y-101599500D01*
X58477461Y-101579815D01*
X58431706Y-101527011D01*
X58420500Y-101475500D01*
X58420500Y-96544759D01*
X58420528Y-96544616D01*
X58420524Y-96544616D01*
X58420539Y-96520002D01*
X58420541Y-96520000D01*
X58420462Y-96519808D01*
X58420384Y-96519618D01*
X58420382Y-96519616D01*
X58420099Y-96519500D01*
X58420000Y-96519459D01*
X58395446Y-96519459D01*
X58395240Y-96519500D01*
X52982208Y-96519500D01*
X52915169Y-96499815D01*
X52869414Y-96447011D01*
X52859470Y-96377853D01*
X52886661Y-96316464D01*
X52899050Y-96301486D01*
X52914611Y-96282675D01*
X52918512Y-96278387D01*
X54026081Y-95170819D01*
X54087405Y-95137334D01*
X54113763Y-95134500D01*
X54147153Y-95134500D01*
X54147155Y-95134500D01*
X54332312Y-95095144D01*
X54505239Y-95018151D01*
X54658380Y-94906888D01*
X54785042Y-94766216D01*
X54879688Y-94602284D01*
X54938183Y-94422256D01*
X54957969Y-94234000D01*
X54938183Y-94045744D01*
X54879688Y-93865716D01*
X54785042Y-93701784D01*
X54658380Y-93561112D01*
X54658379Y-93561111D01*
X54505243Y-93449851D01*
X54505238Y-93449848D01*
X54332316Y-93372857D01*
X54332311Y-93372855D01*
X54186510Y-93341865D01*
X54147155Y-93333500D01*
X53957863Y-93333500D01*
X53925406Y-93340398D01*
X53772706Y-93372855D01*
X53772701Y-93372857D01*
X53603193Y-93448328D01*
X53533943Y-93457613D01*
X53502321Y-93448328D01*
X53332813Y-93372857D01*
X53332808Y-93372855D01*
X53187007Y-93341865D01*
X53147652Y-93333500D01*
X52958360Y-93333500D01*
X52925903Y-93340398D01*
X52773203Y-93372855D01*
X52773198Y-93372857D01*
X52603690Y-93448328D01*
X52534440Y-93457613D01*
X52502818Y-93448328D01*
X52333310Y-93372857D01*
X52333305Y-93372855D01*
X52187504Y-93341865D01*
X52148149Y-93333500D01*
X51958857Y-93333500D01*
X51926400Y-93340398D01*
X51773700Y-93372855D01*
X51773695Y-93372857D01*
X51604187Y-93448328D01*
X51534937Y-93457613D01*
X51503315Y-93448328D01*
X51333807Y-93372857D01*
X51333802Y-93372855D01*
X51188000Y-93341865D01*
X51148646Y-93333500D01*
X50959354Y-93333500D01*
X50926897Y-93340398D01*
X50774197Y-93372855D01*
X50774192Y-93372857D01*
X50601270Y-93449848D01*
X50601265Y-93449851D01*
X50448130Y-93561110D01*
X50448126Y-93561114D01*
X50442400Y-93567474D01*
X50382913Y-93604121D01*
X50350252Y-93608500D01*
X47926148Y-93608500D01*
X47859109Y-93588815D01*
X47838467Y-93572181D01*
X44944287Y-90678000D01*
X49386540Y-90678000D01*
X49406326Y-90866256D01*
X49406327Y-90866259D01*
X49464818Y-91046277D01*
X49464821Y-91046284D01*
X49559467Y-91210216D01*
X49686128Y-91350888D01*
X49686129Y-91350888D01*
X49839265Y-91462148D01*
X49839270Y-91462151D01*
X50012192Y-91539142D01*
X50012197Y-91539144D01*
X50197354Y-91578500D01*
X50197355Y-91578500D01*
X50386644Y-91578500D01*
X50386646Y-91578500D01*
X50571803Y-91539144D01*
X50744730Y-91462151D01*
X50744734Y-91462148D01*
X50749563Y-91459998D01*
X50818813Y-91450712D01*
X50850437Y-91459998D01*
X50855265Y-91462148D01*
X50855270Y-91462151D01*
X51028197Y-91539144D01*
X51213354Y-91578500D01*
X51213355Y-91578500D01*
X51402644Y-91578500D01*
X51402646Y-91578500D01*
X51587803Y-91539144D01*
X51760730Y-91462151D01*
X51760734Y-91462148D01*
X51765563Y-91459998D01*
X51834813Y-91450712D01*
X51866437Y-91459998D01*
X51871265Y-91462148D01*
X51871270Y-91462151D01*
X52044197Y-91539144D01*
X52229354Y-91578500D01*
X52229355Y-91578500D01*
X52418644Y-91578500D01*
X52418646Y-91578500D01*
X52603803Y-91539144D01*
X52776730Y-91462151D01*
X52929871Y-91350888D01*
X53056533Y-91210216D01*
X53151179Y-91046284D01*
X53209674Y-90866256D01*
X53229460Y-90678000D01*
X53209674Y-90489744D01*
X53151179Y-90309716D01*
X53056533Y-90145784D01*
X52981350Y-90062284D01*
X52951120Y-89999292D01*
X52949500Y-89979312D01*
X52949500Y-88518185D01*
X52969185Y-88451146D01*
X53021989Y-88405391D01*
X53091147Y-88395447D01*
X53134373Y-88413087D01*
X53135637Y-88410899D01*
X53141270Y-88414151D01*
X53314192Y-88491142D01*
X53314197Y-88491144D01*
X53499354Y-88530500D01*
X53499355Y-88530500D01*
X53688644Y-88530500D01*
X53688646Y-88530500D01*
X53873803Y-88491144D01*
X54046730Y-88414151D01*
X54199871Y-88302888D01*
X54326533Y-88162216D01*
X54421179Y-87998284D01*
X54479674Y-87818256D01*
X54499460Y-87630000D01*
X54479674Y-87441744D01*
X54421179Y-87261716D01*
X54326533Y-87097784D01*
X54251350Y-87014284D01*
X54221120Y-86951292D01*
X54219500Y-86931312D01*
X54219500Y-85654452D01*
X54239185Y-85587413D01*
X54255819Y-85566771D01*
X54303771Y-85518819D01*
X54365094Y-85485334D01*
X54391452Y-85482500D01*
X54450644Y-85482500D01*
X54450646Y-85482500D01*
X54635803Y-85443144D01*
X54808730Y-85366151D01*
X54814065Y-85362274D01*
X54879869Y-85338791D01*
X54947924Y-85354611D01*
X54996622Y-85404714D01*
X55010502Y-85473191D01*
X55007061Y-85493422D01*
X55000501Y-85518974D01*
X55000500Y-85518982D01*
X55000500Y-85539016D01*
X54998973Y-85558415D01*
X54995840Y-85578194D01*
X54995840Y-85578195D01*
X55000225Y-85624583D01*
X55000500Y-85630421D01*
X55000500Y-87693312D01*
X54980815Y-87760351D01*
X54968650Y-87776284D01*
X54893466Y-87859784D01*
X54798821Y-88023715D01*
X54798818Y-88023722D01*
X54753820Y-88162214D01*
X54740326Y-88203744D01*
X54720540Y-88392000D01*
X54740326Y-88580256D01*
X54740327Y-88580259D01*
X54798818Y-88760277D01*
X54798821Y-88760284D01*
X54893467Y-88924216D01*
X55020128Y-89064887D01*
X55020129Y-89064888D01*
X55173265Y-89176148D01*
X55173270Y-89176151D01*
X55346192Y-89253142D01*
X55346197Y-89253144D01*
X55531354Y-89292500D01*
X55531355Y-89292500D01*
X55720644Y-89292500D01*
X55720646Y-89292500D01*
X55905803Y-89253144D01*
X56078730Y-89176151D01*
X56231871Y-89064888D01*
X56358533Y-88924216D01*
X56453179Y-88760284D01*
X56511674Y-88580256D01*
X56531460Y-88392000D01*
X56511674Y-88203744D01*
X56453179Y-88023716D01*
X56358533Y-87859784D01*
X56321141Y-87818256D01*
X56283350Y-87776284D01*
X56253120Y-87713292D01*
X56251500Y-87693312D01*
X56251500Y-86107523D01*
X56271185Y-86040484D01*
X56323989Y-85994729D01*
X56393147Y-85984785D01*
X56401261Y-85986229D01*
X56421354Y-85990500D01*
X56421356Y-85990500D01*
X56610644Y-85990500D01*
X56610646Y-85990500D01*
X56795803Y-85951144D01*
X56968730Y-85874151D01*
X57121871Y-85762888D01*
X57248533Y-85622216D01*
X57343179Y-85458284D01*
X57401674Y-85278256D01*
X57421460Y-85090000D01*
X57401674Y-84901744D01*
X57343179Y-84721716D01*
X57248533Y-84557784D01*
X57121871Y-84417112D01*
X57089708Y-84393744D01*
X56968734Y-84305851D01*
X56968729Y-84305848D01*
X56795807Y-84228857D01*
X56795802Y-84228855D01*
X56650000Y-84197865D01*
X56610646Y-84189500D01*
X56421354Y-84189500D01*
X56388897Y-84196398D01*
X56236197Y-84228855D01*
X56236192Y-84228857D01*
X56063270Y-84305848D01*
X56063265Y-84305851D01*
X55910129Y-84417111D01*
X55783459Y-84557792D01*
X55782212Y-84559509D01*
X55780561Y-84561010D01*
X55779120Y-84562612D01*
X55778960Y-84562468D01*
X55752996Y-84586094D01*
X55753739Y-84587052D01*
X55747581Y-84591827D01*
X55733408Y-84606000D01*
X55718623Y-84618628D01*
X55702412Y-84630407D01*
X55672709Y-84666310D01*
X55668777Y-84670631D01*
X55449275Y-84890132D01*
X55387952Y-84923617D01*
X55318260Y-84918633D01*
X55262327Y-84876761D01*
X55237910Y-84811297D01*
X55242222Y-84777020D01*
X55240322Y-84776617D01*
X55241672Y-84770261D01*
X55241674Y-84770256D01*
X55261460Y-84582000D01*
X55241674Y-84393744D01*
X55183179Y-84213716D01*
X55108678Y-84084676D01*
X55092206Y-84016776D01*
X55115059Y-83950749D01*
X55128379Y-83935002D01*
X59978788Y-79084593D01*
X59991042Y-79074778D01*
X59990859Y-79074556D01*
X59996866Y-79069584D01*
X59996877Y-79069578D01*
X60027775Y-79036674D01*
X60044227Y-79019156D01*
X60054671Y-79008710D01*
X60065120Y-78998263D01*
X60069379Y-78992770D01*
X60073152Y-78988353D01*
X60105062Y-78954374D01*
X60114715Y-78936812D01*
X60125389Y-78920562D01*
X60137673Y-78904728D01*
X60156180Y-78861959D01*
X60158749Y-78856716D01*
X60181196Y-78815885D01*
X60181197Y-78815884D01*
X60186177Y-78796483D01*
X60192478Y-78778080D01*
X60200438Y-78759688D01*
X60207730Y-78713641D01*
X60208911Y-78707944D01*
X60220500Y-78662811D01*
X60220500Y-78642775D01*
X60222027Y-78623374D01*
X60225160Y-78603595D01*
X60225160Y-78603592D01*
X60224022Y-78591560D01*
X60220772Y-78557186D01*
X60220499Y-78551391D01*
X60220499Y-52057749D01*
X60222224Y-52042128D01*
X60221938Y-52042101D01*
X60222671Y-52034341D01*
X60222673Y-52034333D01*
X60220500Y-51965185D01*
X60220500Y-51935650D01*
X60219631Y-51928772D01*
X60219172Y-51922943D01*
X60217709Y-51876372D01*
X60212122Y-51857144D01*
X60208174Y-51838084D01*
X60205663Y-51818204D01*
X60188512Y-51774887D01*
X60186619Y-51769358D01*
X60173618Y-51724609D01*
X60173616Y-51724606D01*
X60163423Y-51707371D01*
X60154861Y-51689894D01*
X60147487Y-51671270D01*
X60140130Y-51661144D01*
X60120079Y-51633545D01*
X60116888Y-51628686D01*
X60093172Y-51588583D01*
X60093165Y-51588574D01*
X60079006Y-51574415D01*
X60066368Y-51559619D01*
X60054594Y-51543413D01*
X60018688Y-51513709D01*
X60014376Y-51509786D01*
X59358960Y-50854369D01*
X59325475Y-50793046D01*
X59323323Y-50779668D01*
X59305674Y-50611744D01*
X59247179Y-50431716D01*
X59152533Y-50267784D01*
X59025871Y-50127112D01*
X59025870Y-50127111D01*
X58872734Y-50015851D01*
X58872729Y-50015848D01*
X58699807Y-49938857D01*
X58699802Y-49938855D01*
X58554000Y-49907865D01*
X58514646Y-49899500D01*
X58325354Y-49899500D01*
X58292897Y-49906398D01*
X58140197Y-49938855D01*
X58140192Y-49938857D01*
X57967270Y-50015848D01*
X57967265Y-50015851D01*
X57814129Y-50127111D01*
X57687466Y-50267785D01*
X57592821Y-50431715D01*
X57592818Y-50431722D01*
X57534327Y-50611740D01*
X57534326Y-50611744D01*
X57514540Y-50800000D01*
X57534326Y-50988256D01*
X57534327Y-50988259D01*
X57592818Y-51168277D01*
X57592821Y-51168284D01*
X57687467Y-51332216D01*
X57814129Y-51472888D01*
X57967265Y-51584148D01*
X57967270Y-51584151D01*
X58140192Y-51661142D01*
X58140197Y-51661144D01*
X58325354Y-51700500D01*
X58384548Y-51700500D01*
X58451587Y-51720185D01*
X58472229Y-51736819D01*
X58933182Y-52197772D01*
X58966666Y-52259093D01*
X58969500Y-52285451D01*
X58969500Y-52407990D01*
X58949815Y-52475029D01*
X58897011Y-52520784D01*
X58827853Y-52530728D01*
X58795064Y-52521269D01*
X58699807Y-52478857D01*
X58699802Y-52478855D01*
X58554000Y-52447865D01*
X58514646Y-52439500D01*
X58325354Y-52439500D01*
X58292897Y-52446398D01*
X58140197Y-52478855D01*
X58140192Y-52478857D01*
X57967270Y-52555848D01*
X57967265Y-52555851D01*
X57814129Y-52667111D01*
X57687466Y-52807785D01*
X57592821Y-52971715D01*
X57592818Y-52971722D01*
X57534327Y-53151740D01*
X57534326Y-53151744D01*
X57514540Y-53340000D01*
X57534326Y-53528256D01*
X57534327Y-53528259D01*
X57592818Y-53708277D01*
X57592821Y-53708284D01*
X57687467Y-53872216D01*
X57814129Y-54012888D01*
X57967265Y-54124148D01*
X57967270Y-54124151D01*
X58140192Y-54201142D01*
X58140197Y-54201144D01*
X58325354Y-54240500D01*
X58384546Y-54240500D01*
X58451585Y-54260185D01*
X58472223Y-54276815D01*
X58483177Y-54287768D01*
X58516665Y-54349089D01*
X58519500Y-54375453D01*
X58519500Y-54855500D01*
X58499815Y-54922539D01*
X58447011Y-54968294D01*
X58395500Y-54979500D01*
X58325354Y-54979500D01*
X58292897Y-54986398D01*
X58140197Y-55018855D01*
X58140192Y-55018857D01*
X57967270Y-55095848D01*
X57967265Y-55095851D01*
X57814129Y-55207111D01*
X57687466Y-55347785D01*
X57592821Y-55511715D01*
X57592818Y-55511722D01*
X57534327Y-55691740D01*
X57534326Y-55691744D01*
X57514540Y-55880000D01*
X57534326Y-56068256D01*
X57534327Y-56068259D01*
X57592818Y-56248277D01*
X57592821Y-56248284D01*
X57687467Y-56412216D01*
X57814129Y-56552888D01*
X57967265Y-56664148D01*
X57967266Y-56664148D01*
X57967270Y-56664151D01*
X57995936Y-56676914D01*
X58049173Y-56722164D01*
X58069494Y-56789013D01*
X58069500Y-56790193D01*
X58069500Y-77900546D01*
X58049815Y-77967585D01*
X58033181Y-77988227D01*
X49908208Y-86113199D01*
X49895951Y-86123020D01*
X49896134Y-86123241D01*
X49890123Y-86128213D01*
X49842772Y-86178636D01*
X49821889Y-86199519D01*
X49821877Y-86199532D01*
X49817621Y-86205017D01*
X49813837Y-86209447D01*
X49781937Y-86243418D01*
X49781936Y-86243420D01*
X49772284Y-86260976D01*
X49761610Y-86277226D01*
X49749329Y-86293061D01*
X49749324Y-86293068D01*
X49730815Y-86335838D01*
X49728245Y-86341084D01*
X49705803Y-86381906D01*
X49700822Y-86401307D01*
X49694521Y-86419710D01*
X49686562Y-86438102D01*
X49686561Y-86438105D01*
X49679271Y-86484127D01*
X49678087Y-86489846D01*
X49666501Y-86534972D01*
X49666500Y-86534982D01*
X49666500Y-86555016D01*
X49664973Y-86574415D01*
X49661840Y-86594194D01*
X49661840Y-86594195D01*
X49666225Y-86640583D01*
X49666500Y-86646421D01*
X49666500Y-89979312D01*
X49646815Y-90046351D01*
X49634650Y-90062284D01*
X49559466Y-90145784D01*
X49464821Y-90309715D01*
X49464818Y-90309722D01*
X49406327Y-90489740D01*
X49406326Y-90489744D01*
X49386540Y-90678000D01*
X44944287Y-90678000D01*
X42894819Y-88628532D01*
X42861334Y-88567209D01*
X42858500Y-88540851D01*
X42858500Y-87630000D01*
X44306540Y-87630000D01*
X44326326Y-87818256D01*
X44326327Y-87818259D01*
X44384818Y-87998277D01*
X44384821Y-87998284D01*
X44479467Y-88162216D01*
X44567500Y-88259986D01*
X44606129Y-88302888D01*
X44759265Y-88414148D01*
X44759270Y-88414151D01*
X44932192Y-88491142D01*
X44932197Y-88491144D01*
X45117354Y-88530500D01*
X45117355Y-88530500D01*
X45306644Y-88530500D01*
X45306646Y-88530500D01*
X45491803Y-88491144D01*
X45664730Y-88414151D01*
X45817871Y-88302888D01*
X45820788Y-88299647D01*
X45823600Y-88296526D01*
X45883087Y-88259879D01*
X45915748Y-88255500D01*
X46540252Y-88255500D01*
X46607291Y-88275185D01*
X46632400Y-88296526D01*
X46638126Y-88302885D01*
X46638130Y-88302889D01*
X46791265Y-88414148D01*
X46791270Y-88414151D01*
X46964192Y-88491142D01*
X46964197Y-88491144D01*
X47149354Y-88530500D01*
X47149355Y-88530500D01*
X47338644Y-88530500D01*
X47338646Y-88530500D01*
X47523803Y-88491144D01*
X47696730Y-88414151D01*
X47849871Y-88302888D01*
X47976533Y-88162216D01*
X48071179Y-87998284D01*
X48129674Y-87818256D01*
X48149460Y-87630000D01*
X48129674Y-87441744D01*
X48071179Y-87261716D01*
X47976533Y-87097784D01*
X47849871Y-86957112D01*
X47849870Y-86957111D01*
X47696734Y-86845851D01*
X47696729Y-86845848D01*
X47523807Y-86768857D01*
X47523802Y-86768855D01*
X47378001Y-86737865D01*
X47338646Y-86729500D01*
X47149354Y-86729500D01*
X47116897Y-86736398D01*
X46964197Y-86768855D01*
X46964192Y-86768857D01*
X46791270Y-86845848D01*
X46791265Y-86845851D01*
X46638130Y-86957110D01*
X46638126Y-86957114D01*
X46632400Y-86963474D01*
X46572913Y-87000121D01*
X46540252Y-87004500D01*
X45915748Y-87004500D01*
X45848709Y-86984815D01*
X45823600Y-86963474D01*
X45817873Y-86957114D01*
X45817869Y-86957110D01*
X45664734Y-86845851D01*
X45664729Y-86845848D01*
X45491807Y-86768857D01*
X45491802Y-86768855D01*
X45346001Y-86737865D01*
X45306646Y-86729500D01*
X45117354Y-86729500D01*
X45084897Y-86736398D01*
X44932197Y-86768855D01*
X44932192Y-86768857D01*
X44759270Y-86845848D01*
X44759265Y-86845851D01*
X44606129Y-86957111D01*
X44479466Y-87097785D01*
X44384821Y-87261715D01*
X44384818Y-87261722D01*
X44326327Y-87441740D01*
X44326326Y-87441744D01*
X44306540Y-87630000D01*
X42858500Y-87630000D01*
X42858500Y-56885407D01*
X42878185Y-56818368D01*
X42930989Y-56772613D01*
X43000147Y-56762669D01*
X43008253Y-56764111D01*
X43085354Y-56780500D01*
X43085356Y-56780500D01*
X43274644Y-56780500D01*
X43274646Y-56780500D01*
X43459803Y-56741144D01*
X43632730Y-56664151D01*
X43785871Y-56552888D01*
X43912533Y-56412216D01*
X44007179Y-56248284D01*
X44065674Y-56068256D01*
X44085460Y-55880000D01*
X44065674Y-55691744D01*
X44007179Y-55511716D01*
X43912533Y-55347784D01*
X43785871Y-55207112D01*
X43785870Y-55207111D01*
X43632734Y-55095851D01*
X43632729Y-55095848D01*
X43459807Y-55018857D01*
X43459802Y-55018855D01*
X43314001Y-54987865D01*
X43274646Y-54979500D01*
X43085354Y-54979500D01*
X43085352Y-54979500D01*
X43008280Y-54995882D01*
X42938613Y-54990566D01*
X42882880Y-54948428D01*
X42858775Y-54882848D01*
X42858500Y-54874592D01*
X42858500Y-54597452D01*
X42878185Y-54530413D01*
X42894819Y-54509771D01*
X43127772Y-54276819D01*
X43189095Y-54243334D01*
X43215453Y-54240500D01*
X43274644Y-54240500D01*
X43274646Y-54240500D01*
X43459803Y-54201144D01*
X43632730Y-54124151D01*
X43785871Y-54012888D01*
X43912533Y-53872216D01*
X44007179Y-53708284D01*
X44065674Y-53528256D01*
X44085460Y-53340000D01*
X44065674Y-53151744D01*
X44007179Y-52971716D01*
X43912533Y-52807784D01*
X43785871Y-52667112D01*
X43785870Y-52667111D01*
X43632734Y-52555851D01*
X43632729Y-52555848D01*
X43459807Y-52478857D01*
X43459802Y-52478855D01*
X43314001Y-52447865D01*
X43274646Y-52439500D01*
X43085354Y-52439500D01*
X43052897Y-52446398D01*
X42900197Y-52478855D01*
X42900192Y-52478857D01*
X42727270Y-52555848D01*
X42727265Y-52555851D01*
X42605385Y-52644403D01*
X42539579Y-52667883D01*
X42471525Y-52652057D01*
X42422830Y-52601952D01*
X42408500Y-52544085D01*
X42408500Y-52507452D01*
X42428185Y-52440413D01*
X42444819Y-52419771D01*
X43127772Y-51736819D01*
X43189095Y-51703334D01*
X43215453Y-51700500D01*
X43274644Y-51700500D01*
X43274646Y-51700500D01*
X43459803Y-51661144D01*
X43632730Y-51584151D01*
X43785871Y-51472888D01*
X43912533Y-51332216D01*
X44007179Y-51168284D01*
X44065674Y-50988256D01*
X44085460Y-50800000D01*
X44065674Y-50611744D01*
X44007179Y-50431716D01*
X43912533Y-50267784D01*
X43785871Y-50127112D01*
X43785870Y-50127111D01*
X43632734Y-50015851D01*
X43632729Y-50015848D01*
X43459807Y-49938857D01*
X43459802Y-49938855D01*
X43314001Y-49907865D01*
X43274646Y-49899500D01*
X43085354Y-49899500D01*
X43052897Y-49906398D01*
X42900197Y-49938855D01*
X42900192Y-49938857D01*
X42727270Y-50015848D01*
X42727265Y-50015851D01*
X42574129Y-50127111D01*
X42447466Y-50267785D01*
X42352821Y-50431715D01*
X42352818Y-50431722D01*
X42294327Y-50611740D01*
X42294326Y-50611744D01*
X42276679Y-50779649D01*
X42276679Y-50779650D01*
X42250094Y-50844264D01*
X42241039Y-50854369D01*
X42170181Y-50925227D01*
X42108858Y-50958712D01*
X42039166Y-50953728D01*
X41983233Y-50911856D01*
X41958816Y-50846392D01*
X41958500Y-50837546D01*
X41958500Y-50417452D01*
X41978185Y-50350413D01*
X41994819Y-50329771D01*
X43127772Y-49196819D01*
X43189095Y-49163334D01*
X43215453Y-49160500D01*
X43274644Y-49160500D01*
X43274646Y-49160500D01*
X43459803Y-49121144D01*
X43632730Y-49044151D01*
X43785871Y-48932888D01*
X43912533Y-48792216D01*
X44007179Y-48628284D01*
X44065674Y-48448256D01*
X44085460Y-48260000D01*
X44065674Y-48071744D01*
X44007179Y-47891716D01*
X43912533Y-47727784D01*
X43785871Y-47587112D01*
X43778333Y-47581635D01*
X43632734Y-47475851D01*
X43632729Y-47475848D01*
X43459807Y-47398857D01*
X43459802Y-47398855D01*
X43314001Y-47367865D01*
X43274646Y-47359500D01*
X43085354Y-47359500D01*
X43052897Y-47366398D01*
X42900197Y-47398855D01*
X42900192Y-47398857D01*
X42727270Y-47475848D01*
X42727265Y-47475851D01*
X42574129Y-47587111D01*
X42447466Y-47727785D01*
X42352821Y-47891715D01*
X42352818Y-47891722D01*
X42318548Y-47997196D01*
X42294326Y-48071744D01*
X42276679Y-48239649D01*
X42250094Y-48304263D01*
X42241039Y-48314368D01*
X41720181Y-48835227D01*
X41658858Y-48868712D01*
X41589167Y-48863728D01*
X41533233Y-48821857D01*
X41508816Y-48756392D01*
X41508500Y-48747546D01*
X41508500Y-48327452D01*
X41528185Y-48260413D01*
X41544819Y-48239771D01*
X43127771Y-46656819D01*
X43189094Y-46623334D01*
X43215452Y-46620500D01*
X43274644Y-46620500D01*
X43274646Y-46620500D01*
X43459803Y-46581144D01*
X43632730Y-46504151D01*
X43785871Y-46392888D01*
X43912533Y-46252216D01*
X44007179Y-46088284D01*
X44065674Y-45908256D01*
X44085460Y-45720000D01*
X44065674Y-45531744D01*
X44007179Y-45351716D01*
X43912533Y-45187784D01*
X43785871Y-45047112D01*
X43785870Y-45047111D01*
X43632734Y-44935851D01*
X43632729Y-44935848D01*
X43459807Y-44858857D01*
X43459802Y-44858855D01*
X43314000Y-44827865D01*
X43274646Y-44819500D01*
X43085354Y-44819500D01*
X43052897Y-44826398D01*
X42900197Y-44858855D01*
X42900192Y-44858857D01*
X42727270Y-44935848D01*
X42727265Y-44935851D01*
X42574129Y-45047111D01*
X42447466Y-45187785D01*
X42352821Y-45351715D01*
X42352818Y-45351722D01*
X42294327Y-45531740D01*
X42294326Y-45531744D01*
X42276679Y-45699649D01*
X42250094Y-45764263D01*
X42241039Y-45774368D01*
X40499208Y-47516199D01*
X40486951Y-47526020D01*
X40487134Y-47526241D01*
X40481123Y-47531213D01*
X40433772Y-47581636D01*
X40412889Y-47602519D01*
X40412877Y-47602532D01*
X40408621Y-47608017D01*
X40404837Y-47612447D01*
X40372937Y-47646418D01*
X40372936Y-47646420D01*
X40363284Y-47663976D01*
X40352610Y-47680226D01*
X40340329Y-47696061D01*
X40340324Y-47696068D01*
X40321815Y-47738838D01*
X40319245Y-47744084D01*
X40296803Y-47784906D01*
X40291822Y-47804307D01*
X40285521Y-47822710D01*
X40277562Y-47841102D01*
X40277561Y-47841106D01*
X40270271Y-47887127D01*
X40269087Y-47892846D01*
X40257499Y-47937983D01*
X40257499Y-47958019D01*
X40255973Y-47977407D01*
X40252840Y-47997192D01*
X40252840Y-47997195D01*
X40257225Y-48043583D01*
X40257500Y-48049421D01*
X40257500Y-89327748D01*
X40255775Y-89343365D01*
X40256061Y-89343392D01*
X40255326Y-89351158D01*
X40257500Y-89420307D01*
X40257500Y-89449836D01*
X40257501Y-89449853D01*
X40258368Y-89456724D01*
X40258826Y-89462543D01*
X40260290Y-89509117D01*
X40260291Y-89509120D01*
X40265880Y-89528360D01*
X40269824Y-89547404D01*
X40272336Y-89567284D01*
X40289490Y-89610612D01*
X40291382Y-89616140D01*
X40304381Y-89660881D01*
X40314580Y-89678127D01*
X40323138Y-89695596D01*
X40330514Y-89714225D01*
X40357898Y-89751916D01*
X40361106Y-89756800D01*
X40384827Y-89796909D01*
X40384833Y-89796917D01*
X40398990Y-89811073D01*
X40411628Y-89825869D01*
X40423405Y-89842079D01*
X40423406Y-89842080D01*
X40459309Y-89871781D01*
X40463620Y-89875703D01*
X45354130Y-94766214D01*
X46830704Y-96242788D01*
X46840529Y-96255051D01*
X46840750Y-96254869D01*
X46845718Y-96260874D01*
X46892822Y-96305108D01*
X46928216Y-96365349D01*
X46925424Y-96435163D01*
X46885330Y-96492384D01*
X46820665Y-96518845D01*
X46807938Y-96519500D01*
X43204760Y-96519500D01*
X43204554Y-96519459D01*
X43180000Y-96519459D01*
X43179901Y-96519500D01*
X43179617Y-96519616D01*
X43179615Y-96519618D01*
X43179459Y-96519999D01*
X43179476Y-96544616D01*
X43179471Y-96544616D01*
X43179500Y-96544759D01*
X43179500Y-101475500D01*
X43159815Y-101542539D01*
X43107011Y-101588294D01*
X43055500Y-101599500D01*
X39563957Y-101599500D01*
X39496918Y-101579815D01*
X39451163Y-101527011D01*
X39441219Y-101457853D01*
X39470244Y-101394297D01*
X39499804Y-101369384D01*
X39636863Y-101286530D01*
X39894036Y-101085048D01*
X40125048Y-100854036D01*
X40326530Y-100596863D01*
X40495545Y-100317279D01*
X40629627Y-100019361D01*
X40726821Y-99707453D01*
X40785710Y-99386104D01*
X40805436Y-99060000D01*
X40785710Y-98733896D01*
X40726821Y-98412547D01*
X40629627Y-98100639D01*
X40495545Y-97802721D01*
X40326530Y-97523137D01*
X40326528Y-97523134D01*
X40326526Y-97523131D01*
X40125045Y-97265960D01*
X39894039Y-97034954D01*
X39636868Y-96833473D01*
X39629306Y-96828901D01*
X39357279Y-96664455D01*
X39059361Y-96530373D01*
X39059354Y-96530370D01*
X39059342Y-96530366D01*
X38747452Y-96433178D01*
X38426099Y-96374289D01*
X38100000Y-96354564D01*
X37773900Y-96374289D01*
X37452547Y-96433178D01*
X37140657Y-96530366D01*
X37140641Y-96530372D01*
X37140639Y-96530373D01*
X37108675Y-96544759D01*
X36842725Y-96664453D01*
X36842723Y-96664454D01*
X36563131Y-96833473D01*
X36305960Y-97034954D01*
X36074954Y-97265960D01*
X35873473Y-97523132D01*
X35790617Y-97660192D01*
X35739089Y-97707380D01*
X35670229Y-97719218D01*
X35605901Y-97691949D01*
X35566527Y-97634230D01*
X35560500Y-97596042D01*
X35560500Y-39563957D01*
X35580185Y-39496918D01*
X35632989Y-39451163D01*
X35702147Y-39441219D01*
X35765703Y-39470244D01*
X35790615Y-39499804D01*
X35806311Y-39525768D01*
X35873473Y-39636868D01*
X36074954Y-39894039D01*
X36305960Y-40125045D01*
X36563131Y-40326526D01*
X36563134Y-40326528D01*
X36563137Y-40326530D01*
X36842721Y-40495545D01*
X37140639Y-40629627D01*
X37140652Y-40629631D01*
X37140657Y-40629633D01*
X37452546Y-40726821D01*
X37452547Y-40726821D01*
X37773896Y-40785710D01*
X38100000Y-40805436D01*
X38426104Y-40785710D01*
X38747453Y-40726821D01*
X39059361Y-40629627D01*
X39357279Y-40495545D01*
X39562798Y-40371303D01*
X39630348Y-40353469D01*
X39696822Y-40374986D01*
X39741110Y-40429027D01*
X39750265Y-40490383D01*
X39735630Y-40629633D01*
X39734540Y-40640000D01*
X39754326Y-40828256D01*
X39754327Y-40828259D01*
X39812818Y-41008277D01*
X39812821Y-41008284D01*
X39907467Y-41172216D01*
X40009185Y-41285185D01*
X40034129Y-41312888D01*
X40187265Y-41424148D01*
X40187270Y-41424151D01*
X40360192Y-41501142D01*
X40360197Y-41501144D01*
X40545354Y-41540500D01*
X40545355Y-41540500D01*
X40734644Y-41540500D01*
X40734646Y-41540500D01*
X40919803Y-41501144D01*
X41092730Y-41424151D01*
X41245871Y-41312888D01*
X41248788Y-41309647D01*
X41251600Y-41306526D01*
X41311087Y-41269879D01*
X41343748Y-41265500D01*
X42476252Y-41265500D01*
X42543291Y-41285185D01*
X42568400Y-41306526D01*
X42574126Y-41312885D01*
X42574130Y-41312889D01*
X42727265Y-41424148D01*
X42727270Y-41424151D01*
X42900192Y-41501142D01*
X42900197Y-41501144D01*
X43085354Y-41540500D01*
X43085355Y-41540500D01*
X43274644Y-41540500D01*
X43274646Y-41540500D01*
X43459803Y-41501144D01*
X43632730Y-41424151D01*
X43785871Y-41312888D01*
X43912533Y-41172216D01*
X44007179Y-41008284D01*
X44065674Y-40828256D01*
X44085460Y-40640000D01*
X44065674Y-40451744D01*
X44007179Y-40271716D01*
X43912533Y-40107784D01*
X43785871Y-39967112D01*
X43785870Y-39967111D01*
X43632734Y-39855851D01*
X43632729Y-39855848D01*
X43459807Y-39778857D01*
X43459802Y-39778855D01*
X43314000Y-39747865D01*
X43274646Y-39739500D01*
X43085354Y-39739500D01*
X43052897Y-39746398D01*
X42900197Y-39778855D01*
X42900192Y-39778857D01*
X42727270Y-39855848D01*
X42727265Y-39855851D01*
X42574130Y-39967110D01*
X42574126Y-39967114D01*
X42568400Y-39973474D01*
X42508913Y-40010121D01*
X42476252Y-40014500D01*
X41343748Y-40014500D01*
X41276709Y-39994815D01*
X41251600Y-39973474D01*
X41245873Y-39967114D01*
X41245869Y-39967110D01*
X41092734Y-39855851D01*
X41092729Y-39855848D01*
X40919807Y-39778857D01*
X40919802Y-39778855D01*
X40774000Y-39747865D01*
X40734646Y-39739500D01*
X40545354Y-39739500D01*
X40503045Y-39748493D01*
X40433378Y-39743175D01*
X40377645Y-39701037D01*
X40353541Y-39635457D01*
X40368719Y-39567256D01*
X40371117Y-39563107D01*
X40495545Y-39357279D01*
X40629627Y-39059361D01*
X40726821Y-38747453D01*
X40785710Y-38426104D01*
X40805436Y-38100000D01*
X40785710Y-37773896D01*
X40726821Y-37452547D01*
X40629627Y-37140639D01*
X40495545Y-36842721D01*
X40326530Y-36563137D01*
X40326528Y-36563134D01*
X40326526Y-36563131D01*
X40125045Y-36305960D01*
X39894039Y-36074954D01*
X39636868Y-35873473D01*
X39631204Y-35870049D01*
X39499805Y-35790615D01*
X39452620Y-35739089D01*
X39440781Y-35670230D01*
X39468050Y-35605901D01*
X39525768Y-35566527D01*
X39563957Y-35560500D01*
X44325500Y-35560500D01*
X44392539Y-35580185D01*
G37*
%TD.AperFunction*%
%TD*%
M02*
