%TF.GenerationSoftware,KiCad,Pcbnew,7.0.7*%
%TF.CreationDate,2023-08-25T22:45:50+10:00*%
%TF.ProjectId,SuperMini-EPD-Sheild,53757065-724d-4696-9e69-2d4550442d53,rev?*%
%TF.SameCoordinates,Original*%
%TF.FileFunction,Copper,L1,Top*%
%TF.FilePolarity,Positive*%
%FSLAX46Y46*%
G04 Gerber Fmt 4.6, Leading zero omitted, Abs format (unit mm)*
G04 Created by KiCad (PCBNEW 7.0.7) date 2023-08-25 22:45:50*
%MOMM*%
%LPD*%
G01*
G04 APERTURE LIST*
G04 Aperture macros list*
%AMRoundRect*
0 Rectangle with rounded corners*
0 $1 Rounding radius*
0 $2 $3 $4 $5 $6 $7 $8 $9 X,Y pos of 4 corners*
0 Add a 4 corners polygon primitive as box body*
4,1,4,$2,$3,$4,$5,$6,$7,$8,$9,$2,$3,0*
0 Add four circle primitives for the rounded corners*
1,1,$1+$1,$2,$3*
1,1,$1+$1,$4,$5*
1,1,$1+$1,$6,$7*
1,1,$1+$1,$8,$9*
0 Add four rect primitives between the rounded corners*
20,1,$1+$1,$2,$3,$4,$5,0*
20,1,$1+$1,$4,$5,$6,$7,0*
20,1,$1+$1,$6,$7,$8,$9,0*
20,1,$1+$1,$8,$9,$2,$3,0*%
G04 Aperture macros list end*
%TA.AperFunction,SMDPad,CuDef*%
%ADD10RoundRect,0.225000X0.225000X0.250000X-0.225000X0.250000X-0.225000X-0.250000X0.225000X-0.250000X0*%
%TD*%
%TA.AperFunction,SMDPad,CuDef*%
%ADD11RoundRect,0.250000X-1.075000X0.375000X-1.075000X-0.375000X1.075000X-0.375000X1.075000X0.375000X0*%
%TD*%
%TA.AperFunction,SMDPad,CuDef*%
%ADD12RoundRect,0.200000X-0.250000X-0.200000X0.250000X-0.200000X0.250000X0.200000X-0.250000X0.200000X0*%
%TD*%
%TA.AperFunction,SMDPad,CuDef*%
%ADD13RoundRect,0.225000X-0.250000X0.225000X-0.250000X-0.225000X0.250000X-0.225000X0.250000X0.225000X0*%
%TD*%
%TA.AperFunction,SMDPad,CuDef*%
%ADD14RoundRect,0.225000X0.250000X-0.225000X0.250000X0.225000X-0.250000X0.225000X-0.250000X-0.225000X0*%
%TD*%
%TA.AperFunction,ComponentPad*%
%ADD15C,4.400000*%
%TD*%
%TA.AperFunction,SMDPad,CuDef*%
%ADD16RoundRect,0.200000X0.250000X0.200000X-0.250000X0.200000X-0.250000X-0.200000X0.250000X-0.200000X0*%
%TD*%
%TA.AperFunction,SMDPad,CuDef*%
%ADD17RoundRect,0.150000X0.587500X0.150000X-0.587500X0.150000X-0.587500X-0.150000X0.587500X-0.150000X0*%
%TD*%
%TA.AperFunction,SMDPad,CuDef*%
%ADD18RoundRect,0.218750X0.256250X-0.218750X0.256250X0.218750X-0.256250X0.218750X-0.256250X-0.218750X0*%
%TD*%
%TA.AperFunction,SMDPad,CuDef*%
%ADD19RoundRect,0.218750X-0.256250X0.218750X-0.256250X-0.218750X0.256250X-0.218750X0.256250X0.218750X0*%
%TD*%
%TA.AperFunction,SMDPad,CuDef*%
%ADD20RoundRect,0.381000X-0.762000X-0.381000X0.762000X-0.381000X0.762000X0.381000X-0.762000X0.381000X0*%
%TD*%
%TA.AperFunction,SMDPad,CuDef*%
%ADD21RoundRect,0.075000X-0.075000X0.325000X-0.075000X-0.325000X0.075000X-0.325000X0.075000X0.325000X0*%
%TD*%
%TA.AperFunction,SMDPad,CuDef*%
%ADD22RoundRect,0.200000X0.275000X-0.200000X0.275000X0.200000X-0.275000X0.200000X-0.275000X-0.200000X0*%
%TD*%
%TA.AperFunction,SMDPad,CuDef*%
%ADD23RoundRect,0.250000X-0.250000X-1.500000X0.250000X-1.500000X0.250000X1.500000X-0.250000X1.500000X0*%
%TD*%
%TA.AperFunction,SMDPad,CuDef*%
%ADD24RoundRect,0.250001X-0.499999X-1.449999X0.499999X-1.449999X0.499999X1.449999X-0.499999X1.449999X0*%
%TD*%
%TA.AperFunction,SMDPad,CuDef*%
%ADD25RoundRect,0.150000X0.512500X0.150000X-0.512500X0.150000X-0.512500X-0.150000X0.512500X-0.150000X0*%
%TD*%
%TA.AperFunction,SMDPad,CuDef*%
%ADD26RoundRect,0.218750X0.218750X0.256250X-0.218750X0.256250X-0.218750X-0.256250X0.218750X-0.256250X0*%
%TD*%
%TA.AperFunction,SMDPad,CuDef*%
%ADD27RoundRect,0.200000X0.200000X0.275000X-0.200000X0.275000X-0.200000X-0.275000X0.200000X-0.275000X0*%
%TD*%
%TA.AperFunction,ViaPad*%
%ADD28C,0.800000*%
%TD*%
%TA.AperFunction,Conductor*%
%ADD29C,0.250000*%
%TD*%
G04 APERTURE END LIST*
D10*
%TO.P,C3,1*%
%TO.N,Net-(D3-A)*%
X45479000Y-84576000D03*
%TO.P,C3,2*%
%TO.N,Net-(D1-K)*%
X43929000Y-84576000D03*
%TD*%
D11*
%TO.P,L1,2,2*%
%TO.N,Net-(D3-A)*%
X50800000Y-85090000D03*
%TO.P,L1,1,1*%
%TO.N,+3.3V*%
X50800000Y-82290000D03*
%TD*%
D12*
%TO.P,Q1,3,D*%
%TO.N,+BATT*%
X46990000Y-64135000D03*
%TO.P,Q1,2,S*%
%TO.N,Net-(Q1-S)*%
X44590000Y-65085000D03*
%TO.P,Q1,1,G*%
%TO.N,+5V*%
X44590000Y-63185000D03*
%TD*%
D13*
%TO.P,C4,1*%
%TO.N,GND*%
X50800000Y-87611000D03*
%TO.P,C4,2*%
%TO.N,Net-(J1-Pin_18)*%
X50800000Y-89161000D03*
%TD*%
D14*
%TO.P,C8,1*%
%TO.N,Net-(D1-A)*%
X42672000Y-89161000D03*
%TO.P,C8,2*%
%TO.N,GND*%
X42672000Y-87611000D03*
%TD*%
D15*
%TO.P,REF\u002A\u002A,1*%
%TO.N,N/C*%
X63500000Y-99060000D03*
%TD*%
D16*
%TO.P,Q2,1,G*%
%TO.N,Net-(J1-Pin_2)*%
X59557000Y-89336000D03*
%TO.P,Q2,2,D*%
%TO.N,Net-(D3-A)*%
X59557000Y-87436000D03*
%TO.P,Q2,3,S*%
%TO.N,Net-(J1-Pin_3)*%
X57157000Y-88386000D03*
%TD*%
D17*
%TO.P,U3,3,VI*%
%TO.N,Net-(Q1-S)*%
X49286038Y-64138500D03*
%TO.P,U3,2,VO*%
%TO.N,+3.3V*%
X51161038Y-63188500D03*
%TO.P,U3,1,GND*%
%TO.N,GND*%
X51161038Y-65088500D03*
%TD*%
D18*
%TO.P,D3,2,A*%
%TO.N,Net-(D3-A)*%
X47752000Y-83814000D03*
%TO.P,D3,1,K*%
%TO.N,Net-(D3-K)*%
X47752000Y-85389000D03*
%TD*%
D15*
%TO.P,REF\u002A\u002A,1*%
%TO.N,N/C*%
X70612000Y-99060000D03*
%TD*%
D14*
%TO.P,C6,1*%
%TO.N,Net-(D3-K)*%
X46736000Y-89174000D03*
%TO.P,C6,2*%
%TO.N,GND*%
X46736000Y-87624000D03*
%TD*%
D19*
%TO.P,D1,1,K*%
%TO.N,Net-(D1-K)*%
X41656000Y-83814000D03*
%TO.P,D1,2,A*%
%TO.N,Net-(D1-A)*%
X41656000Y-85389000D03*
%TD*%
D15*
%TO.P,REF\u002A\u002A,1*%
%TO.N,N/C*%
X63500000Y-38100000D03*
%TD*%
D13*
%TO.P,C9,1*%
%TO.N,GND*%
X40640000Y-87624000D03*
%TO.P,C9,2*%
%TO.N,Net-(J1-Pin_24)*%
X40640000Y-89174000D03*
%TD*%
D20*
%TO.P,U1,1,5V*%
%TO.N,+5V*%
X43180000Y-38100000D03*
%TO.P,U1,2,G*%
%TO.N,GND*%
X43180000Y-40640000D03*
%TO.P,U1,3,3.3*%
%TO.N,+3.3V*%
X43180000Y-43180000D03*
%TO.P,U1,4,4*%
%TO.N,4*%
X43180000Y-45720000D03*
%TO.P,U1,5,3*%
%TO.N,3*%
X43180000Y-48260000D03*
%TO.P,U1,6,2*%
%TO.N,2*%
X43180000Y-50800000D03*
%TO.P,U1,7,1*%
%TO.N,1*%
X43180000Y-53340000D03*
%TO.P,U1,8,0*%
%TO.N,0*%
X43180000Y-55880000D03*
%TO.P,U1,9,5*%
%TO.N,5*%
X58420000Y-38100000D03*
%TO.P,U1,10,6*%
%TO.N,6*%
X58420000Y-40640000D03*
%TO.P,U1,11,7*%
%TO.N,7*%
X58420000Y-43180000D03*
%TO.P,U1,12,8*%
%TO.N,8*%
X58420000Y-45720000D03*
%TO.P,U1,13,9*%
%TO.N,9*%
X58420000Y-48260000D03*
%TO.P,U1,14,10*%
%TO.N,10*%
X58420000Y-50800000D03*
%TO.P,U1,15,20*%
%TO.N,20*%
X58420000Y-53340000D03*
%TO.P,U1,16,21*%
%TO.N,21*%
X58420000Y-55880000D03*
%TD*%
D18*
%TO.P,D4,2,A*%
%TO.N,+5V*%
X46622000Y-67249000D03*
%TO.P,D4,1,K*%
%TO.N,Net-(D4-K)*%
X46622000Y-68824000D03*
%TD*%
D21*
%TO.P,J1,1,Pin_1*%
%TO.N,unconnected-(J1-Pin_1-Pad1)*%
X56530000Y-92710000D03*
%TO.P,J1,2,Pin_2*%
%TO.N,Net-(J1-Pin_2)*%
X56030000Y-92710000D03*
%TO.P,J1,3,Pin_3*%
%TO.N,Net-(J1-Pin_3)*%
X55530000Y-92710000D03*
%TO.P,J1,4,Pin_4*%
%TO.N,unconnected-(J1-Pin_4-Pad4)*%
X55030000Y-92710000D03*
%TO.P,J1,5,Pin_5*%
%TO.N,Net-(J1-Pin_5)*%
X54530000Y-92710000D03*
%TO.P,J1,6,Pin_6*%
%TO.N,unconnected-(J1-Pin_6-Pad6)*%
X54030000Y-92710000D03*
%TO.P,J1,7,Pin_7*%
%TO.N,unconnected-(J1-Pin_7-Pad7)*%
X53530000Y-92710000D03*
%TO.P,J1,8,Pin_8*%
%TO.N,4*%
X53030000Y-92710000D03*
%TO.P,J1,9,Pin_9*%
%TO.N,3*%
X52530000Y-92710000D03*
%TO.P,J1,10,Pin_10*%
%TO.N,2*%
X52030000Y-92710000D03*
%TO.P,J1,11,Pin_11*%
%TO.N,1*%
X51530000Y-92710000D03*
%TO.P,J1,12,Pin_12*%
%TO.N,10*%
X51030000Y-92710000D03*
%TO.P,J1,13,Pin_13*%
%TO.N,20*%
X50530000Y-92710000D03*
%TO.P,J1,14,Pin_14*%
%TO.N,21*%
X50030000Y-92710000D03*
%TO.P,J1,15,Pin_15*%
%TO.N,+3.3V*%
X49530000Y-92710000D03*
%TO.P,J1,16,Pin_16*%
X49030000Y-92710000D03*
%TO.P,J1,17,Pin_17*%
%TO.N,GND*%
X48530000Y-92710000D03*
%TO.P,J1,18,Pin_18*%
%TO.N,Net-(J1-Pin_18)*%
X48030000Y-92710000D03*
%TO.P,J1,19,Pin_19*%
%TO.N,unconnected-(J1-Pin_19-Pad19)*%
X47530000Y-92710000D03*
%TO.P,J1,20,Pin_20*%
%TO.N,Net-(J1-Pin_20)*%
X47030000Y-92710000D03*
%TO.P,J1,21,Pin_21*%
%TO.N,Net-(D3-K)*%
X46530000Y-92710000D03*
%TO.P,J1,22,Pin_22*%
%TO.N,Net-(J1-Pin_22)*%
X46030000Y-92710000D03*
%TO.P,J1,23,Pin_23*%
%TO.N,Net-(D1-A)*%
X45530000Y-92710000D03*
%TO.P,J1,24,Pin_24*%
%TO.N,Net-(J1-Pin_24)*%
X45030000Y-92710000D03*
%TD*%
D22*
%TO.P,R2,2*%
%TO.N,+5V*%
X48654000Y-67249000D03*
%TO.P,R2,1*%
%TO.N,GND*%
X48654000Y-68899000D03*
%TD*%
D23*
%TO.P,BT1,1,+*%
%TO.N,+BATT*%
X56020000Y-63328000D03*
%TO.P,BT1,2,-*%
%TO.N,GND*%
X58020000Y-63328000D03*
D24*
%TO.P,BT1,MP*%
%TO.N,N/C*%
X53670000Y-69078000D03*
X60370000Y-69078000D03*
%TD*%
D25*
%TO.P,U2,5,PROG*%
%TO.N,Net-(U2-PROG)*%
X40140000Y-65018500D03*
%TO.P,U2,4,V_{DD}*%
%TO.N,+5V*%
X40140000Y-63118500D03*
%TO.P,U2,3,V_{BAT}*%
%TO.N,+BATT*%
X42415000Y-63118500D03*
%TO.P,U2,2,V_{SS}*%
%TO.N,GND*%
X42415000Y-64068500D03*
%TO.P,U2,1,STAT*%
%TO.N,Net-(U2-STAT)*%
X42415000Y-65018500D03*
%TD*%
D15*
%TO.P,REF\u002A\u002A,1*%
%TO.N,N/C*%
X38100000Y-38100000D03*
%TD*%
D22*
%TO.P,R4,2*%
%TO.N,Net-(U2-STAT)*%
X44590000Y-67249000D03*
%TO.P,R4,1*%
%TO.N,Net-(D4-K)*%
X44590000Y-68899000D03*
%TD*%
D13*
%TO.P,C10,1*%
%TO.N,GND*%
X55118000Y-87611000D03*
%TO.P,C10,2*%
%TO.N,Net-(J1-Pin_5)*%
X55118000Y-89161000D03*
%TD*%
%TO.P,C5,1*%
%TO.N,GND*%
X48768000Y-87611000D03*
%TO.P,C5,2*%
%TO.N,Net-(J1-Pin_20)*%
X48768000Y-89161000D03*
%TD*%
D15*
%TO.P,REF\u002A\u002A,1*%
%TO.N,N/C*%
X96012000Y-38100000D03*
%TD*%
%TO.P,REF\u002A\u002A,1*%
%TO.N,N/C*%
X38100000Y-99060000D03*
%TD*%
%TO.P,REF\u002A\u002A,1*%
%TO.N,N/C*%
X96012000Y-99060000D03*
%TD*%
D26*
%TO.P,D2,2,A*%
%TO.N,Net-(D1-K)*%
X43916500Y-82290000D03*
%TO.P,D2,1,K*%
%TO.N,GND*%
X45491500Y-82290000D03*
%TD*%
D13*
%TO.P,C2,1*%
%TO.N,+3.3V*%
X55880000Y-83052000D03*
%TO.P,C2,2*%
%TO.N,GND*%
X55880000Y-84602000D03*
%TD*%
D27*
%TO.P,R1,1*%
%TO.N,GND*%
X59690000Y-85084000D03*
%TO.P,R1,2*%
%TO.N,Net-(J1-Pin_3)*%
X58040000Y-85084000D03*
%TD*%
D15*
%TO.P,REF\u002A\u002A,1*%
%TO.N,N/C*%
X70612000Y-38100000D03*
%TD*%
D22*
%TO.P,R3,2*%
%TO.N,Net-(U2-PROG)*%
X42558000Y-67249000D03*
%TO.P,R3,1*%
%TO.N,GND*%
X42558000Y-68899000D03*
%TD*%
D13*
%TO.P,C7,1*%
%TO.N,GND*%
X44704000Y-87611000D03*
%TO.P,C7,2*%
%TO.N,Net-(J1-Pin_22)*%
X44704000Y-89161000D03*
%TD*%
%TO.P,C1,1*%
%TO.N,+3.3V*%
X53848000Y-83052000D03*
%TO.P,C1,2*%
%TO.N,GND*%
X53848000Y-84602000D03*
%TD*%
D28*
%TO.N,GND*%
X55880000Y-84576000D03*
X55118000Y-87624000D03*
X43180000Y-40640000D03*
X40640000Y-40640000D03*
%TO.N,+3.3V*%
X40158500Y-71374000D03*
X51161038Y-63188500D03*
X49276000Y-91694000D03*
X42957500Y-71374000D03*
X50800000Y-82290000D03*
X43180000Y-43180000D03*
%TO.N,21*%
X50292000Y-90678000D03*
X58420000Y-55880000D03*
%TO.N,20*%
X51308000Y-90678000D03*
X58420000Y-53340000D03*
%TO.N,10*%
X58420000Y-50800000D03*
X52324000Y-90678000D03*
%TO.N,1*%
X43180000Y-53340000D03*
X51054000Y-94234000D03*
%TO.N,2*%
X43180000Y-50800000D03*
X52053503Y-94234000D03*
%TO.N,3*%
X43180000Y-48260000D03*
X53053006Y-94234000D03*
%TO.N,4*%
X43180000Y-45720000D03*
X54052509Y-94234000D03*
%TO.N,Net-(J1-Pin_3)*%
X58040000Y-85084000D03*
X57150000Y-88386000D03*
%TO.N,+BATT*%
X42957500Y-63118500D03*
X56020000Y-63328000D03*
X46990000Y-64135000D03*
%TD*%
D29*
%TO.N,+5V*%
X44590000Y-63185000D02*
X43815000Y-63960000D01*
X41712000Y-39568000D02*
X43180000Y-38100000D01*
X44590000Y-63185000D02*
X43754000Y-62349000D01*
X41712000Y-61546500D02*
X40140000Y-63118500D01*
X43815000Y-65782104D02*
X44556896Y-66524000D01*
X40909500Y-62349000D02*
X40140000Y-63118500D01*
X45897000Y-66524000D02*
X46622000Y-67249000D01*
X44556896Y-66524000D02*
X45897000Y-66524000D01*
X43815000Y-63960000D02*
X43815000Y-65782104D01*
X43754000Y-62349000D02*
X40909500Y-62349000D01*
X41712000Y-39568000D02*
X41712000Y-61546500D01*
X46622000Y-67249000D02*
X48654000Y-67249000D01*
%TO.N,GND*%
X53848000Y-84602000D02*
X55880000Y-84576000D01*
X58890000Y-84284000D02*
X59690000Y-85084000D01*
X56198000Y-84284000D02*
X58890000Y-84284000D01*
X49454000Y-68099000D02*
X48654000Y-68899000D01*
X48530000Y-92710000D02*
X48530000Y-93710000D01*
X55880000Y-84602000D02*
X56198000Y-84284000D01*
%TO.N,+3.3V*%
X49276000Y-92710000D02*
X49030000Y-92710000D01*
X49530000Y-92710000D02*
X49276000Y-92710000D01*
X42957500Y-71374000D02*
X40158500Y-71374000D01*
X53848000Y-83052000D02*
X55880000Y-83052000D01*
X53086000Y-82290000D02*
X53848000Y-83052000D01*
X49276000Y-91694000D02*
X49276000Y-92710000D01*
X50800000Y-82290000D02*
X53086000Y-82290000D01*
%TO.N,21*%
X50030000Y-90940000D02*
X50292000Y-90678000D01*
X50030000Y-92710000D02*
X50030000Y-90940000D01*
%TO.N,20*%
X50530000Y-91465305D02*
X51308000Y-90687305D01*
X50530000Y-92710000D02*
X50530000Y-91465305D01*
X51308000Y-90687305D02*
X51308000Y-90678000D01*
%TO.N,10*%
X51571305Y-91440000D02*
X52324000Y-90687305D01*
X51030000Y-92710000D02*
X51030000Y-91972000D01*
X52324000Y-90687305D02*
X52324000Y-90678000D01*
X51030000Y-91972000D02*
X51562000Y-91440000D01*
X51562000Y-91440000D02*
X51571305Y-91440000D01*
%TO.N,1*%
X51530000Y-93732198D02*
X51054000Y-94208198D01*
X51530000Y-92710000D02*
X51530000Y-93732198D01*
X51054000Y-94208198D02*
X51054000Y-94234000D01*
%TO.N,2*%
X52030000Y-94210497D02*
X52053503Y-94234000D01*
X52030000Y-92710000D02*
X52030000Y-94210497D01*
%TO.N,3*%
X52530000Y-92710000D02*
X52530000Y-93685192D01*
X53053006Y-94208198D02*
X53053006Y-94234000D01*
X52530000Y-93685192D02*
X53053006Y-94208198D01*
%TO.N,4*%
X53030000Y-93175685D02*
X54052509Y-94198194D01*
X53030000Y-92710000D02*
X53030000Y-93175685D01*
X54052509Y-94198194D02*
X54052509Y-94234000D01*
%TO.N,Net-(D1-A)*%
X42672000Y-89161000D02*
X45530000Y-92019000D01*
X45530000Y-92019000D02*
X45530000Y-92710000D01*
X41656000Y-88145000D02*
X41656000Y-85389000D01*
X42672000Y-89161000D02*
X41656000Y-88145000D01*
%TO.N,Net-(D3-K)*%
X47752000Y-88158000D02*
X47752000Y-85389000D01*
X46530000Y-89380000D02*
X46530000Y-92710000D01*
X46736000Y-89174000D02*
X46530000Y-89380000D01*
X46736000Y-89174000D02*
X47752000Y-88158000D01*
%TO.N,Net-(D3-A)*%
X50800000Y-85090000D02*
X52064000Y-86354000D01*
X50800000Y-85090000D02*
X49524000Y-83814000D01*
X46241000Y-83814000D02*
X45479000Y-84576000D01*
X47752000Y-83814000D02*
X46241000Y-83814000D01*
X52064000Y-86354000D02*
X58475000Y-86354000D01*
X49524000Y-83814000D02*
X47752000Y-83814000D01*
X58475000Y-86354000D02*
X59557000Y-87436000D01*
%TO.N,Net-(J1-Pin_18)*%
X49554000Y-90407000D02*
X49537695Y-90407000D01*
X49537695Y-90407000D02*
X48030000Y-91914695D01*
X48030000Y-91914695D02*
X48030000Y-92710000D01*
X49554000Y-90407000D02*
X50800000Y-89161000D01*
%TO.N,Net-(J1-Pin_20)*%
X47030000Y-90899000D02*
X47030000Y-92710000D01*
X48768000Y-89161000D02*
X47030000Y-90899000D01*
%TO.N,Net-(J1-Pin_5)*%
X55118000Y-89161000D02*
X54530000Y-89749000D01*
X54530000Y-89749000D02*
X54530000Y-92710000D01*
%TO.N,Net-(J1-Pin_22)*%
X46030000Y-90487000D02*
X44704000Y-89161000D01*
X46030000Y-92710000D02*
X46030000Y-90487000D01*
%TO.N,Net-(J1-Pin_24)*%
X40640000Y-89174000D02*
X44176000Y-92710000D01*
X44176000Y-92710000D02*
X45030000Y-92710000D01*
%TO.N,Net-(J1-Pin_2)*%
X59557000Y-89336000D02*
X58134000Y-89336000D01*
X56030000Y-91440000D02*
X56030000Y-92710000D01*
X58134000Y-89336000D02*
X56030000Y-91440000D01*
%TO.N,Net-(J1-Pin_3)*%
X57150000Y-88386000D02*
X55530000Y-90006000D01*
X55530000Y-90006000D02*
X55530000Y-92710000D01*
%TO.N,Net-(D1-K)*%
X43167000Y-83814000D02*
X43929000Y-84576000D01*
X41656000Y-83814000D02*
X43167000Y-83814000D01*
X43929000Y-84576000D02*
X43929000Y-82302500D01*
%TO.N,Net-(U2-PROG)*%
X42370500Y-67249000D02*
X40140000Y-65018500D01*
X42558000Y-67249000D02*
X42370500Y-67249000D01*
%TO.N,Net-(D4-K)*%
X44590000Y-68899000D02*
X46547000Y-68899000D01*
X46547000Y-68899000D02*
X46622000Y-68824000D01*
%TO.N,Net-(U2-STAT)*%
X44590000Y-67249000D02*
X44590000Y-67193500D01*
X44590000Y-67193500D02*
X42415000Y-65018500D01*
%TO.N,+BATT*%
X42957500Y-63118500D02*
X42415000Y-63118500D01*
X42005500Y-63118500D02*
X42957500Y-63118500D01*
%TO.N,Net-(Q1-S)*%
X49286038Y-64138500D02*
X48339538Y-65085000D01*
X48339538Y-65085000D02*
X44590000Y-65085000D01*
%TD*%
%TA.AperFunction,Conductor*%
%TO.N,GND*%
G36*
X48932703Y-85437393D02*
G01*
X48970477Y-85496171D01*
X48974858Y-85518505D01*
X48985000Y-85617796D01*
X48985001Y-85617799D01*
X49040185Y-85784331D01*
X49040186Y-85784334D01*
X49132288Y-85933656D01*
X49256344Y-86057712D01*
X49405666Y-86149814D01*
X49572203Y-86204999D01*
X49674991Y-86215500D01*
X50989546Y-86215499D01*
X51056585Y-86235184D01*
X51077227Y-86251818D01*
X51284105Y-86458696D01*
X51317590Y-86520019D01*
X51312606Y-86589711D01*
X51270734Y-86645644D01*
X51205270Y-86670061D01*
X51183822Y-86669735D01*
X51098324Y-86661000D01*
X51049999Y-86661000D01*
X51049999Y-87360999D01*
X51050001Y-87361000D01*
X51774999Y-87361000D01*
X51774999Y-87337692D01*
X51774998Y-87337677D01*
X51764855Y-87238392D01*
X51723372Y-87113204D01*
X51720970Y-87043376D01*
X51756702Y-86983334D01*
X51819222Y-86952141D01*
X51880176Y-86958775D01*
X51880616Y-86957262D01*
X51888096Y-86959434D01*
X51888104Y-86959438D01*
X51934157Y-86966732D01*
X51939826Y-86967906D01*
X51984981Y-86979500D01*
X52005016Y-86979500D01*
X52024413Y-86981026D01*
X52044196Y-86984160D01*
X52090583Y-86979775D01*
X52096422Y-86979500D01*
X54067213Y-86979500D01*
X54134252Y-86999185D01*
X54180007Y-87051989D01*
X54189951Y-87121147D01*
X54184919Y-87142504D01*
X54153144Y-87238393D01*
X54143000Y-87337677D01*
X54143000Y-87337681D01*
X54142999Y-87361000D01*
X56092999Y-87361000D01*
X56092999Y-87337692D01*
X56092998Y-87337677D01*
X56082855Y-87238392D01*
X56051081Y-87142504D01*
X56048679Y-87072676D01*
X56084411Y-87012634D01*
X56146931Y-86981441D01*
X56168787Y-86979500D01*
X58164548Y-86979500D01*
X58231587Y-86999185D01*
X58252228Y-87015818D01*
X58570182Y-87333772D01*
X58603666Y-87395093D01*
X58606500Y-87421451D01*
X58606499Y-87692613D01*
X58612913Y-87763192D01*
X58612913Y-87763194D01*
X58612914Y-87763196D01*
X58663522Y-87925606D01*
X58744043Y-88058804D01*
X58751530Y-88071188D01*
X58871811Y-88191469D01*
X58871813Y-88191470D01*
X58871815Y-88191472D01*
X58981374Y-88257703D01*
X59018064Y-88279883D01*
X59065252Y-88331411D01*
X59077090Y-88400271D01*
X59049821Y-88464599D01*
X59018064Y-88492117D01*
X59017394Y-88492521D01*
X59017394Y-88492522D01*
X59011709Y-88495959D01*
X58871811Y-88580530D01*
X58871810Y-88580531D01*
X58778161Y-88674181D01*
X58716838Y-88707666D01*
X58690480Y-88710500D01*
X58231500Y-88710500D01*
X58164461Y-88690815D01*
X58118706Y-88638011D01*
X58107500Y-88586500D01*
X58107500Y-88129386D01*
X58106296Y-88116140D01*
X58101086Y-88058804D01*
X58050478Y-87896394D01*
X57962472Y-87750815D01*
X57962470Y-87750813D01*
X57962469Y-87750811D01*
X57842188Y-87630530D01*
X57696606Y-87542522D01*
X57696606Y-87542521D01*
X57534196Y-87491914D01*
X57534194Y-87491913D01*
X57534192Y-87491913D01*
X57484778Y-87487423D01*
X57463616Y-87485500D01*
X56850384Y-87485500D01*
X56831144Y-87487248D01*
X56779807Y-87491913D01*
X56617393Y-87542522D01*
X56471811Y-87630530D01*
X56351531Y-87750810D01*
X56351528Y-87750814D01*
X56294491Y-87845164D01*
X56242963Y-87892351D01*
X56174104Y-87904189D01*
X56109775Y-87876920D01*
X56100694Y-87868694D01*
X56093000Y-87861000D01*
X54143001Y-87861000D01*
X54143001Y-87884322D01*
X54153144Y-87983607D01*
X54206452Y-88144481D01*
X54206457Y-88144492D01*
X54295424Y-88288728D01*
X54295427Y-88288732D01*
X54304660Y-88297965D01*
X54338145Y-88359288D01*
X54333161Y-88428980D01*
X54304663Y-88473324D01*
X54295033Y-88482953D01*
X54295029Y-88482959D01*
X54206001Y-88627294D01*
X54205996Y-88627305D01*
X54152651Y-88788290D01*
X54142500Y-88887647D01*
X54142500Y-89198808D01*
X54122815Y-89265847D01*
X54108892Y-89283692D01*
X54080772Y-89313636D01*
X54059889Y-89334519D01*
X54059877Y-89334532D01*
X54055621Y-89340017D01*
X54051837Y-89344447D01*
X54019937Y-89378418D01*
X54019936Y-89378420D01*
X54010284Y-89395976D01*
X53999610Y-89412226D01*
X53987329Y-89428061D01*
X53987324Y-89428068D01*
X53968815Y-89470838D01*
X53966245Y-89476084D01*
X53943803Y-89516906D01*
X53938822Y-89536307D01*
X53932521Y-89554710D01*
X53924562Y-89573102D01*
X53924561Y-89573105D01*
X53917271Y-89619127D01*
X53916087Y-89624846D01*
X53904501Y-89669972D01*
X53904500Y-89669982D01*
X53904500Y-89690016D01*
X53902973Y-89709416D01*
X53899839Y-89729194D01*
X53904224Y-89775580D01*
X53904499Y-89781417D01*
X53904499Y-91702440D01*
X53884814Y-91769479D01*
X53832010Y-91815234D01*
X53812658Y-91822197D01*
X53812159Y-91822331D01*
X53763688Y-91822370D01*
X53763293Y-91825374D01*
X53755236Y-91824313D01*
X53735451Y-91821708D01*
X53642727Y-91809500D01*
X53642720Y-91809500D01*
X53417280Y-91809500D01*
X53417272Y-91809500D01*
X53330393Y-91820938D01*
X53304764Y-91824313D01*
X53304762Y-91824313D01*
X53296708Y-91825374D01*
X53296316Y-91822399D01*
X53263684Y-91822399D01*
X53263292Y-91825374D01*
X53255237Y-91824313D01*
X53255236Y-91824313D01*
X53226271Y-91820499D01*
X53142727Y-91809500D01*
X53142720Y-91809500D01*
X52917280Y-91809500D01*
X52917272Y-91809500D01*
X52830393Y-91820938D01*
X52804764Y-91824313D01*
X52804762Y-91824313D01*
X52796708Y-91825374D01*
X52796316Y-91822399D01*
X52763684Y-91822399D01*
X52763292Y-91825374D01*
X52755237Y-91824313D01*
X52755236Y-91824313D01*
X52726271Y-91820499D01*
X52642727Y-91809500D01*
X52642720Y-91809500D01*
X52511656Y-91809500D01*
X52444617Y-91789815D01*
X52398862Y-91737011D01*
X52388918Y-91667853D01*
X52417943Y-91604297D01*
X52476721Y-91566523D01*
X52485876Y-91564210D01*
X52495380Y-91562189D01*
X52603803Y-91539144D01*
X52776730Y-91462151D01*
X52929871Y-91350888D01*
X53056533Y-91210216D01*
X53151179Y-91046284D01*
X53209674Y-90866256D01*
X53229460Y-90678000D01*
X53209674Y-90489744D01*
X53151179Y-90309716D01*
X53056533Y-90145784D01*
X52929871Y-90005112D01*
X52919833Y-89997819D01*
X52776734Y-89893851D01*
X52776729Y-89893848D01*
X52603807Y-89816857D01*
X52603802Y-89816855D01*
X52437074Y-89781417D01*
X52418646Y-89777500D01*
X52229354Y-89777500D01*
X52210926Y-89781417D01*
X52044197Y-89816855D01*
X52044192Y-89816857D01*
X51866436Y-89896001D01*
X51797186Y-89905286D01*
X51765560Y-89896000D01*
X51760731Y-89893849D01*
X51760730Y-89893849D01*
X51755673Y-89891597D01*
X51702439Y-89846345D01*
X51682120Y-89779496D01*
X51700578Y-89713220D01*
X51712000Y-89694702D01*
X51712000Y-89694701D01*
X51712003Y-89694697D01*
X51765349Y-89533708D01*
X51775500Y-89434345D01*
X51775499Y-88887656D01*
X51765349Y-88788292D01*
X51712003Y-88627303D01*
X51711999Y-88627297D01*
X51711998Y-88627294D01*
X51622970Y-88482959D01*
X51622967Y-88482955D01*
X51613339Y-88473327D01*
X51579854Y-88412004D01*
X51584838Y-88342312D01*
X51613345Y-88297959D01*
X51622573Y-88288731D01*
X51711542Y-88144492D01*
X51711547Y-88144481D01*
X51764855Y-87983606D01*
X51774999Y-87884322D01*
X51775000Y-87884309D01*
X51775000Y-87861000D01*
X50674000Y-87861000D01*
X50606961Y-87841315D01*
X50561206Y-87788511D01*
X50550000Y-87737000D01*
X50550000Y-86661000D01*
X50549999Y-86660999D01*
X50501693Y-86661000D01*
X50501675Y-86661001D01*
X50402392Y-86671144D01*
X50241518Y-86724452D01*
X50241507Y-86724457D01*
X50097271Y-86813424D01*
X50097267Y-86813427D01*
X49977427Y-86933267D01*
X49977424Y-86933271D01*
X49889538Y-87075756D01*
X49837590Y-87122481D01*
X49768628Y-87133702D01*
X49704546Y-87105859D01*
X49678462Y-87075756D01*
X49590575Y-86933271D01*
X49590572Y-86933267D01*
X49470732Y-86813427D01*
X49470728Y-86813424D01*
X49326492Y-86724457D01*
X49326481Y-86724452D01*
X49165606Y-86671144D01*
X49066322Y-86661000D01*
X49018000Y-86661000D01*
X49018000Y-87737000D01*
X48998315Y-87804039D01*
X48945511Y-87849794D01*
X48894000Y-87861000D01*
X48642000Y-87861000D01*
X48574961Y-87841315D01*
X48529206Y-87788511D01*
X48518000Y-87737000D01*
X48518000Y-86661000D01*
X48517999Y-86660999D01*
X48501502Y-86661000D01*
X48434462Y-86641316D01*
X48388706Y-86588513D01*
X48377500Y-86537000D01*
X48377500Y-86294265D01*
X48397185Y-86227226D01*
X48436401Y-86188727D01*
X48457391Y-86175781D01*
X48576281Y-86056891D01*
X48664549Y-85913787D01*
X48717436Y-85754185D01*
X48727500Y-85655674D01*
X48727500Y-85531105D01*
X48747185Y-85464067D01*
X48799989Y-85418312D01*
X48869147Y-85408368D01*
X48932703Y-85437393D01*
G37*
%TD.AperFunction*%
%TA.AperFunction,Conductor*%
G36*
X42921539Y-84459185D02*
G01*
X42967294Y-84511989D01*
X42978500Y-84563500D01*
X42978500Y-84874336D01*
X42978501Y-84874355D01*
X42988650Y-84973707D01*
X42988651Y-84973710D01*
X43041996Y-85134694D01*
X43042001Y-85134705D01*
X43131029Y-85279040D01*
X43131032Y-85279044D01*
X43250955Y-85398967D01*
X43250959Y-85398970D01*
X43395294Y-85487998D01*
X43395297Y-85487999D01*
X43395303Y-85488003D01*
X43556292Y-85541349D01*
X43655655Y-85551500D01*
X44202344Y-85551499D01*
X44202352Y-85551498D01*
X44202355Y-85551498D01*
X44256760Y-85545940D01*
X44301708Y-85541349D01*
X44462697Y-85488003D01*
X44607044Y-85398968D01*
X44616319Y-85389692D01*
X44677642Y-85356208D01*
X44747334Y-85361192D01*
X44791681Y-85389693D01*
X44800955Y-85398967D01*
X44800959Y-85398970D01*
X44945294Y-85487998D01*
X44945297Y-85487999D01*
X44945303Y-85488003D01*
X45106292Y-85541349D01*
X45205655Y-85551500D01*
X45752344Y-85551499D01*
X45752352Y-85551498D01*
X45752355Y-85551498D01*
X45806760Y-85545940D01*
X45851708Y-85541349D01*
X46012697Y-85488003D01*
X46157044Y-85398968D01*
X46276968Y-85279044D01*
X46366003Y-85134697D01*
X46419349Y-84973708D01*
X46429500Y-84874345D01*
X46429499Y-84563499D01*
X46449183Y-84496461D01*
X46501987Y-84450706D01*
X46553499Y-84439500D01*
X46834168Y-84439500D01*
X46901207Y-84459185D01*
X46921664Y-84477731D01*
X46922612Y-84476784D01*
X46959647Y-84513819D01*
X46993132Y-84575142D01*
X46988148Y-84644834D01*
X46959647Y-84689181D01*
X46927719Y-84721108D01*
X46927716Y-84721112D01*
X46839455Y-84864204D01*
X46839450Y-84864215D01*
X46836090Y-84874355D01*
X46786564Y-85023815D01*
X46786564Y-85023816D01*
X46786563Y-85023816D01*
X46776500Y-85122318D01*
X46776500Y-85655681D01*
X46786563Y-85754183D01*
X46839450Y-85913784D01*
X46839455Y-85913795D01*
X46927716Y-86056887D01*
X46927719Y-86056891D01*
X47046609Y-86175781D01*
X47067597Y-86188727D01*
X47114321Y-86240674D01*
X47126500Y-86294265D01*
X47126500Y-86550000D01*
X47106815Y-86617039D01*
X47054011Y-86662794D01*
X47002500Y-86674000D01*
X46986000Y-86674000D01*
X46986000Y-87750000D01*
X46966315Y-87817039D01*
X46913511Y-87862794D01*
X46862000Y-87874000D01*
X46610000Y-87874000D01*
X46542961Y-87854315D01*
X46497206Y-87801511D01*
X46486000Y-87750000D01*
X46486000Y-86674000D01*
X46485999Y-86673999D01*
X46437693Y-86674000D01*
X46437675Y-86674001D01*
X46338392Y-86684144D01*
X46177518Y-86737452D01*
X46177507Y-86737457D01*
X46033271Y-86826424D01*
X46033267Y-86826427D01*
X45913426Y-86946268D01*
X45829547Y-87082257D01*
X45777599Y-87128981D01*
X45708636Y-87140202D01*
X45644554Y-87112359D01*
X45618471Y-87082256D01*
X45526575Y-86933271D01*
X45526572Y-86933267D01*
X45406732Y-86813427D01*
X45406728Y-86813424D01*
X45262492Y-86724457D01*
X45262481Y-86724452D01*
X45101606Y-86671144D01*
X45002322Y-86661000D01*
X44954000Y-86661000D01*
X44954000Y-87737000D01*
X44934315Y-87804039D01*
X44881511Y-87849794D01*
X44830000Y-87861000D01*
X44578000Y-87861000D01*
X44510961Y-87841315D01*
X44465206Y-87788511D01*
X44454000Y-87737000D01*
X44454000Y-86661000D01*
X44453999Y-86660999D01*
X44405693Y-86661000D01*
X44405675Y-86661001D01*
X44306392Y-86671144D01*
X44145518Y-86724452D01*
X44145507Y-86724457D01*
X44001271Y-86813424D01*
X44001267Y-86813427D01*
X43881427Y-86933267D01*
X43881424Y-86933271D01*
X43793538Y-87075756D01*
X43741590Y-87122481D01*
X43672628Y-87133702D01*
X43608546Y-87105859D01*
X43582462Y-87075756D01*
X43494575Y-86933271D01*
X43494572Y-86933267D01*
X43374732Y-86813427D01*
X43374728Y-86813424D01*
X43230492Y-86724457D01*
X43230481Y-86724452D01*
X43069606Y-86671144D01*
X42970322Y-86661000D01*
X42922000Y-86661000D01*
X42922000Y-87737000D01*
X42902315Y-87804039D01*
X42849511Y-87849794D01*
X42798000Y-87861000D01*
X42546000Y-87861000D01*
X42478961Y-87841315D01*
X42433206Y-87788511D01*
X42422000Y-87737000D01*
X42422000Y-86661000D01*
X42421999Y-86660999D01*
X42405502Y-86661000D01*
X42338462Y-86641316D01*
X42292706Y-86588513D01*
X42281500Y-86537000D01*
X42281500Y-86294265D01*
X42301185Y-86227226D01*
X42340401Y-86188727D01*
X42361391Y-86175781D01*
X42480281Y-86056891D01*
X42568549Y-85913787D01*
X42621436Y-85754185D01*
X42631500Y-85655674D01*
X42631500Y-85122326D01*
X42621436Y-85023815D01*
X42568549Y-84864213D01*
X42568545Y-84864207D01*
X42568544Y-84864204D01*
X42480283Y-84721112D01*
X42480280Y-84721108D01*
X42448353Y-84689181D01*
X42414868Y-84627858D01*
X42419852Y-84558166D01*
X42448353Y-84513819D01*
X42485388Y-84476784D01*
X42487471Y-84478867D01*
X42533584Y-84446214D01*
X42573832Y-84439500D01*
X42854500Y-84439500D01*
X42921539Y-84459185D01*
G37*
%TD.AperFunction*%
%TA.AperFunction,Conductor*%
G36*
X52815539Y-82935185D02*
G01*
X52861294Y-82987989D01*
X52872500Y-83039500D01*
X52872500Y-83325336D01*
X52872501Y-83325355D01*
X52882650Y-83424707D01*
X52882651Y-83424710D01*
X52935996Y-83585694D01*
X52936001Y-83585705D01*
X53025029Y-83730040D01*
X53025032Y-83730044D01*
X53034660Y-83739672D01*
X53068145Y-83800995D01*
X53063161Y-83870687D01*
X53034663Y-83915031D01*
X53025428Y-83924265D01*
X53025424Y-83924271D01*
X52936457Y-84068507D01*
X52936452Y-84068518D01*
X52883144Y-84229393D01*
X52873000Y-84328677D01*
X52873000Y-84352000D01*
X53974000Y-84352000D01*
X54041039Y-84371685D01*
X54086794Y-84424489D01*
X54098000Y-84476000D01*
X54098000Y-84728000D01*
X54078315Y-84795039D01*
X54025511Y-84840794D01*
X53974000Y-84852000D01*
X52873001Y-84852000D01*
X52869287Y-84855713D01*
X52872857Y-84873908D01*
X52883144Y-84974607D01*
X52936452Y-85135481D01*
X52936457Y-85135492D01*
X53025424Y-85279728D01*
X53025427Y-85279732D01*
X53145267Y-85399572D01*
X53145271Y-85399575D01*
X53289507Y-85488542D01*
X53296059Y-85491597D01*
X53294864Y-85494158D01*
X53341675Y-85526571D01*
X53368496Y-85591088D01*
X53356178Y-85659863D01*
X53308632Y-85711061D01*
X53245223Y-85728500D01*
X52741003Y-85728500D01*
X52673964Y-85708815D01*
X52628209Y-85656011D01*
X52617645Y-85591897D01*
X52622809Y-85541348D01*
X52625500Y-85515009D01*
X52625499Y-84886509D01*
X52638374Y-84842659D01*
X52625815Y-84808984D01*
X52625499Y-84800139D01*
X52625499Y-84664998D01*
X52625498Y-84664980D01*
X52614999Y-84562203D01*
X52614998Y-84562200D01*
X52598966Y-84513819D01*
X52559814Y-84395666D01*
X52467712Y-84246344D01*
X52343656Y-84122288D01*
X52194334Y-84030186D01*
X52027797Y-83975001D01*
X52027795Y-83975000D01*
X51925016Y-83964500D01*
X51925009Y-83964500D01*
X50610453Y-83964500D01*
X50543414Y-83944815D01*
X50522772Y-83928181D01*
X50221771Y-83627180D01*
X50188286Y-83565857D01*
X50193270Y-83496165D01*
X50235142Y-83440232D01*
X50300606Y-83415815D01*
X50309452Y-83415499D01*
X51925002Y-83415499D01*
X51925008Y-83415499D01*
X52027797Y-83404999D01*
X52194334Y-83349814D01*
X52343656Y-83257712D01*
X52467712Y-83133656D01*
X52559814Y-82984334D01*
X52559815Y-82984331D01*
X52563605Y-82978187D01*
X52565399Y-82979293D01*
X52604687Y-82934663D01*
X52670908Y-82915500D01*
X52748500Y-82915500D01*
X52815539Y-82935185D01*
G37*
%TD.AperFunction*%
%TA.AperFunction,Conductor*%
G36*
X43630539Y-35580185D02*
G01*
X43676294Y-35632989D01*
X43687500Y-35684500D01*
X43687500Y-36713500D01*
X43667815Y-36780539D01*
X43615011Y-36826294D01*
X43563500Y-36837500D01*
X42341344Y-36837501D01*
X42341343Y-36837501D01*
X42298298Y-36840418D01*
X42298297Y-36840418D01*
X42112221Y-36886694D01*
X41940456Y-36971881D01*
X41940453Y-36971883D01*
X41791010Y-37092009D01*
X41791009Y-37092010D01*
X41670883Y-37241453D01*
X41670881Y-37241456D01*
X41585694Y-37413221D01*
X41539419Y-37599291D01*
X41536500Y-37642342D01*
X41536501Y-38557656D01*
X41536501Y-38557657D01*
X41539418Y-38600701D01*
X41539418Y-38600702D01*
X41573342Y-38737112D01*
X41570418Y-38806921D01*
X41540688Y-38854719D01*
X41328208Y-39067199D01*
X41315951Y-39077020D01*
X41316134Y-39077241D01*
X41310123Y-39082213D01*
X41262772Y-39132636D01*
X41241889Y-39153519D01*
X41241877Y-39153532D01*
X41237621Y-39159017D01*
X41233837Y-39163447D01*
X41201937Y-39197418D01*
X41201936Y-39197420D01*
X41192284Y-39214976D01*
X41181610Y-39231226D01*
X41169329Y-39247061D01*
X41169324Y-39247068D01*
X41150815Y-39289838D01*
X41148245Y-39295084D01*
X41125803Y-39335906D01*
X41120822Y-39355307D01*
X41114521Y-39373710D01*
X41106562Y-39392102D01*
X41106561Y-39392105D01*
X41099271Y-39438127D01*
X41098087Y-39443846D01*
X41086501Y-39488972D01*
X41086500Y-39488982D01*
X41086500Y-39509016D01*
X41084973Y-39528415D01*
X41081840Y-39548194D01*
X41081840Y-39548195D01*
X41086225Y-39594583D01*
X41086500Y-39600421D01*
X41086500Y-61236047D01*
X41066815Y-61303086D01*
X41050181Y-61323728D01*
X40523080Y-61850829D01*
X40523079Y-61850830D01*
X40512405Y-61861503D01*
X40508910Y-61864998D01*
X40494122Y-61877629D01*
X40477912Y-61889406D01*
X40448209Y-61925310D01*
X40444277Y-61929631D01*
X40092228Y-62281681D01*
X40030905Y-62315166D01*
X40004547Y-62318000D01*
X39561804Y-62318000D01*
X39524932Y-62320901D01*
X39524926Y-62320902D01*
X39367106Y-62366754D01*
X39367103Y-62366755D01*
X39225637Y-62450417D01*
X39225629Y-62450423D01*
X39109423Y-62566629D01*
X39109417Y-62566637D01*
X39025755Y-62708103D01*
X39025754Y-62708106D01*
X38979902Y-62865926D01*
X38979901Y-62865932D01*
X38977000Y-62902804D01*
X38977000Y-63334196D01*
X38979901Y-63371067D01*
X38979902Y-63371073D01*
X39025754Y-63528893D01*
X39025755Y-63528896D01*
X39109417Y-63670362D01*
X39109423Y-63670370D01*
X39225629Y-63786576D01*
X39225633Y-63786579D01*
X39225635Y-63786581D01*
X39367102Y-63870244D01*
X39395120Y-63878384D01*
X39524926Y-63916097D01*
X39524929Y-63916097D01*
X39524931Y-63916098D01*
X39537222Y-63917065D01*
X39561804Y-63919000D01*
X39561806Y-63919000D01*
X40718196Y-63919000D01*
X40736631Y-63917549D01*
X40755069Y-63916098D01*
X40755071Y-63916097D01*
X40755073Y-63916097D01*
X40796691Y-63904005D01*
X40912898Y-63870244D01*
X41054365Y-63786581D01*
X41054370Y-63786575D01*
X41060531Y-63781798D01*
X41061839Y-63783484D01*
X41113509Y-63755261D01*
X41183201Y-63760235D01*
X41230941Y-63792252D01*
X41255204Y-63818500D01*
X41520685Y-63818500D01*
X41583806Y-63835768D01*
X41642102Y-63870244D01*
X41670120Y-63878384D01*
X41799926Y-63916097D01*
X41799929Y-63916097D01*
X41799931Y-63916098D01*
X41812222Y-63917065D01*
X41836804Y-63919000D01*
X41836806Y-63919000D01*
X42515133Y-63919000D01*
X42565564Y-63929718D01*
X42591436Y-63941237D01*
X42644671Y-63986484D01*
X42664994Y-64053333D01*
X42665000Y-64054516D01*
X42665000Y-64094000D01*
X42645315Y-64161039D01*
X42592511Y-64206794D01*
X42541000Y-64218000D01*
X41836804Y-64218000D01*
X41799932Y-64220901D01*
X41799926Y-64220902D01*
X41642106Y-64266754D01*
X41642103Y-64266755D01*
X41583806Y-64301232D01*
X41520685Y-64318500D01*
X41255204Y-64318500D01*
X41230940Y-64344748D01*
X41170979Y-64380614D01*
X41101145Y-64378369D01*
X41061487Y-64353968D01*
X41060531Y-64355202D01*
X41054362Y-64350417D01*
X40929880Y-64276799D01*
X40912898Y-64266756D01*
X40912897Y-64266755D01*
X40912896Y-64266755D01*
X40912893Y-64266754D01*
X40755073Y-64220902D01*
X40755067Y-64220901D01*
X40718196Y-64218000D01*
X40718194Y-64218000D01*
X39561806Y-64218000D01*
X39561804Y-64218000D01*
X39524932Y-64220901D01*
X39524926Y-64220902D01*
X39367106Y-64266754D01*
X39367103Y-64266755D01*
X39225637Y-64350417D01*
X39225629Y-64350423D01*
X39109423Y-64466629D01*
X39109417Y-64466637D01*
X39025755Y-64608103D01*
X39025754Y-64608106D01*
X38979902Y-64765926D01*
X38979901Y-64765932D01*
X38977000Y-64802804D01*
X38977000Y-65234196D01*
X38979901Y-65271067D01*
X38979902Y-65271073D01*
X39025754Y-65428893D01*
X39025755Y-65428896D01*
X39109417Y-65570362D01*
X39109423Y-65570370D01*
X39225629Y-65686576D01*
X39225633Y-65686579D01*
X39225635Y-65686581D01*
X39367102Y-65770244D01*
X39408724Y-65782336D01*
X39524926Y-65816097D01*
X39524929Y-65816097D01*
X39524931Y-65816098D01*
X39537222Y-65817065D01*
X39561804Y-65819000D01*
X39561806Y-65819000D01*
X40004548Y-65819000D01*
X40071587Y-65838685D01*
X40092229Y-65855319D01*
X41546181Y-67309271D01*
X41579666Y-67370594D01*
X41582500Y-67396952D01*
X41582500Y-67505613D01*
X41588913Y-67576192D01*
X41639522Y-67738606D01*
X41727530Y-67884188D01*
X41830015Y-67986673D01*
X41863500Y-68047996D01*
X41858516Y-68117688D01*
X41830015Y-68162035D01*
X41727928Y-68264121D01*
X41727927Y-68264122D01*
X41639980Y-68409604D01*
X41589409Y-68571893D01*
X41583000Y-68642427D01*
X41583000Y-68649000D01*
X42684000Y-68649000D01*
X42751039Y-68668685D01*
X42796794Y-68721489D01*
X42808000Y-68773000D01*
X42808000Y-69798999D01*
X42889581Y-69798999D01*
X42960102Y-69792591D01*
X42960107Y-69792590D01*
X43122396Y-69742018D01*
X43267877Y-69654072D01*
X43388072Y-69533877D01*
X43467590Y-69402339D01*
X43519118Y-69355152D01*
X43587977Y-69343313D01*
X43652306Y-69370582D01*
X43679823Y-69402338D01*
X43755386Y-69527334D01*
X43759530Y-69534188D01*
X43879811Y-69654469D01*
X43879813Y-69654470D01*
X43879815Y-69654472D01*
X44025394Y-69742478D01*
X44187804Y-69793086D01*
X44258384Y-69799500D01*
X44258387Y-69799500D01*
X44921613Y-69799500D01*
X44921616Y-69799500D01*
X44992196Y-69793086D01*
X45154606Y-69742478D01*
X45300185Y-69654472D01*
X45343877Y-69610780D01*
X45393839Y-69560819D01*
X45455162Y-69527334D01*
X45481520Y-69524500D01*
X45778966Y-69524500D01*
X45846005Y-69544185D01*
X45866647Y-69560819D01*
X45916608Y-69610780D01*
X45916612Y-69610783D01*
X46059704Y-69699044D01*
X46059707Y-69699045D01*
X46059713Y-69699049D01*
X46219315Y-69751936D01*
X46317826Y-69762000D01*
X46317831Y-69762000D01*
X46926169Y-69762000D01*
X46926174Y-69762000D01*
X47024685Y-69751936D01*
X47184287Y-69699049D01*
X47327391Y-69610781D01*
X47446281Y-69491891D01*
X47518007Y-69375604D01*
X47569952Y-69328884D01*
X47638914Y-69317661D01*
X47702997Y-69345505D01*
X47731124Y-69382571D01*
X47732102Y-69381980D01*
X47823927Y-69533877D01*
X47944122Y-69654072D01*
X48089604Y-69742019D01*
X48089603Y-69742019D01*
X48251894Y-69792590D01*
X48251892Y-69792590D01*
X48322418Y-69798999D01*
X48403999Y-69798998D01*
X48404000Y-69798998D01*
X48404000Y-69149000D01*
X48904000Y-69149000D01*
X48904000Y-69798999D01*
X48985581Y-69798999D01*
X49056102Y-69792591D01*
X49056107Y-69792590D01*
X49218396Y-69742018D01*
X49363877Y-69654072D01*
X49484072Y-69533877D01*
X49572019Y-69388395D01*
X49622590Y-69226106D01*
X49629000Y-69155572D01*
X49629000Y-69149000D01*
X48904000Y-69149000D01*
X48404000Y-69149000D01*
X48404000Y-68773000D01*
X48423685Y-68705961D01*
X48476489Y-68660206D01*
X48528000Y-68649000D01*
X49628999Y-68649000D01*
X49628999Y-68642417D01*
X49622591Y-68571897D01*
X49622590Y-68571892D01*
X49572018Y-68409603D01*
X49484072Y-68264122D01*
X49381984Y-68162034D01*
X49348499Y-68100711D01*
X49353483Y-68031019D01*
X49381983Y-67986673D01*
X49484472Y-67884185D01*
X49572478Y-67738606D01*
X49623086Y-67576196D01*
X49629500Y-67505616D01*
X49629500Y-66992384D01*
X49623086Y-66921804D01*
X49572478Y-66759394D01*
X49484472Y-66613815D01*
X49484470Y-66613813D01*
X49484469Y-66613811D01*
X49364188Y-66493530D01*
X49218606Y-66405522D01*
X49218606Y-66405521D01*
X49056196Y-66354914D01*
X49056194Y-66354913D01*
X49056192Y-66354913D01*
X49006778Y-66350423D01*
X48985616Y-66348500D01*
X48322384Y-66348500D01*
X48303144Y-66350248D01*
X48251807Y-66354913D01*
X48089393Y-66405522D01*
X47943811Y-66493530D01*
X47943810Y-66493531D01*
X47850161Y-66587181D01*
X47788838Y-66620666D01*
X47762480Y-66623500D01*
X47539832Y-66623500D01*
X47472793Y-66603815D01*
X47452335Y-66585268D01*
X47451388Y-66586216D01*
X47327391Y-66462219D01*
X47327387Y-66462216D01*
X47184295Y-66373955D01*
X47184289Y-66373952D01*
X47184287Y-66373951D01*
X47024685Y-66321064D01*
X47024683Y-66321063D01*
X46926181Y-66311000D01*
X46926174Y-66311000D01*
X46619953Y-66311000D01*
X46552914Y-66291315D01*
X46532272Y-66274681D01*
X46397803Y-66140212D01*
X46387980Y-66127950D01*
X46387759Y-66128134D01*
X46382786Y-66122123D01*
X46332364Y-66074773D01*
X46321919Y-66064328D01*
X46311475Y-66053883D01*
X46305986Y-66049625D01*
X46301561Y-66045847D01*
X46267582Y-66013938D01*
X46267580Y-66013936D01*
X46267577Y-66013935D01*
X46250029Y-66004288D01*
X46233763Y-65993604D01*
X46217932Y-65981324D01*
X46175169Y-65962818D01*
X46169923Y-65960249D01*
X46152807Y-65950840D01*
X46138842Y-65943162D01*
X46089578Y-65893619D01*
X46074919Y-65825304D01*
X46099522Y-65759909D01*
X46155573Y-65718196D01*
X46198578Y-65710500D01*
X48256795Y-65710500D01*
X48272415Y-65712224D01*
X48272442Y-65711939D01*
X48280198Y-65712671D01*
X48280205Y-65712673D01*
X48349352Y-65710500D01*
X48378888Y-65710500D01*
X48385766Y-65709630D01*
X48391579Y-65709172D01*
X48438165Y-65707709D01*
X48457407Y-65702117D01*
X48476450Y-65698174D01*
X48496330Y-65695664D01*
X48539660Y-65678507D01*
X48545184Y-65676617D01*
X48548934Y-65675527D01*
X48589928Y-65663618D01*
X48607167Y-65653422D01*
X48624641Y-65644862D01*
X48643265Y-65637488D01*
X48643265Y-65637487D01*
X48643270Y-65637486D01*
X48680987Y-65610082D01*
X48685843Y-65606892D01*
X48725958Y-65583170D01*
X48740127Y-65568999D01*
X48754917Y-65556368D01*
X48771125Y-65544594D01*
X48800837Y-65508676D01*
X48804750Y-65504376D01*
X48970626Y-65338501D01*
X49926242Y-65338501D01*
X49926437Y-65340986D01*
X49972256Y-65498698D01*
X50055852Y-65640052D01*
X50055859Y-65640061D01*
X50171976Y-65756178D01*
X50171985Y-65756185D01*
X50313341Y-65839782D01*
X50313344Y-65839783D01*
X50471042Y-65885599D01*
X50471048Y-65885600D01*
X50507894Y-65888500D01*
X50911037Y-65888500D01*
X50911038Y-65338500D01*
X51411038Y-65338500D01*
X51411038Y-65888500D01*
X51814182Y-65888500D01*
X51851027Y-65885600D01*
X51851033Y-65885599D01*
X52008731Y-65839783D01*
X52008734Y-65839782D01*
X52150090Y-65756185D01*
X52150099Y-65756178D01*
X52266216Y-65640061D01*
X52266223Y-65640052D01*
X52349819Y-65498698D01*
X52395638Y-65340986D01*
X52395833Y-65338501D01*
X52395833Y-65338500D01*
X51411038Y-65338500D01*
X50911038Y-65338500D01*
X49926243Y-65338500D01*
X49926242Y-65338501D01*
X48970626Y-65338501D01*
X49333809Y-64975319D01*
X49395133Y-64941834D01*
X49421491Y-64939000D01*
X49939234Y-64939000D01*
X49957669Y-64937549D01*
X49976107Y-64936098D01*
X49976109Y-64936097D01*
X49976111Y-64936097D01*
X50017729Y-64924005D01*
X50133936Y-64890244D01*
X50154638Y-64878001D01*
X55019500Y-64878001D01*
X55019501Y-64878018D01*
X55030000Y-64980796D01*
X55030001Y-64980799D01*
X55085115Y-65147119D01*
X55085186Y-65147334D01*
X55177288Y-65296656D01*
X55301344Y-65420712D01*
X55450666Y-65512814D01*
X55617203Y-65567999D01*
X55719991Y-65578500D01*
X56320008Y-65578499D01*
X56320016Y-65578498D01*
X56320019Y-65578498D01*
X56399635Y-65570365D01*
X56422797Y-65567999D01*
X56589334Y-65512814D01*
X56738656Y-65420712D01*
X56862712Y-65296656D01*
X56914755Y-65212279D01*
X56966701Y-65165556D01*
X57035664Y-65154333D01*
X57099746Y-65182176D01*
X57125831Y-65212280D01*
X57177680Y-65296340D01*
X57177683Y-65296344D01*
X57301654Y-65420315D01*
X57450875Y-65512356D01*
X57450880Y-65512358D01*
X57617302Y-65567505D01*
X57617309Y-65567506D01*
X57720019Y-65577999D01*
X57769999Y-65577998D01*
X57769999Y-63578000D01*
X58270000Y-63578000D01*
X58270000Y-65577999D01*
X58319972Y-65577999D01*
X58319986Y-65577998D01*
X58422697Y-65567505D01*
X58589119Y-65512358D01*
X58589124Y-65512356D01*
X58738345Y-65420315D01*
X58862315Y-65296345D01*
X58954356Y-65147124D01*
X58954358Y-65147119D01*
X59009505Y-64980697D01*
X59009506Y-64980690D01*
X59019999Y-64877986D01*
X59020000Y-64877973D01*
X59020000Y-63578000D01*
X58270000Y-63578000D01*
X57769999Y-63578000D01*
X57770000Y-61078000D01*
X58270000Y-61078000D01*
X58270000Y-63078000D01*
X59019999Y-63078000D01*
X59019999Y-61778028D01*
X59019998Y-61778013D01*
X59009505Y-61675302D01*
X58954358Y-61508880D01*
X58954356Y-61508875D01*
X58862315Y-61359654D01*
X58738345Y-61235684D01*
X58589124Y-61143643D01*
X58589119Y-61143641D01*
X58422697Y-61088494D01*
X58422690Y-61088493D01*
X58319986Y-61078000D01*
X58270000Y-61078000D01*
X57770000Y-61078000D01*
X57769999Y-61077999D01*
X57720029Y-61078000D01*
X57720011Y-61078001D01*
X57617302Y-61088494D01*
X57450880Y-61143641D01*
X57450875Y-61143643D01*
X57301654Y-61235684D01*
X57177682Y-61359656D01*
X57125831Y-61443720D01*
X57073883Y-61490444D01*
X57004920Y-61501665D01*
X56940838Y-61473822D01*
X56914754Y-61443718D01*
X56862712Y-61359344D01*
X56738657Y-61235289D01*
X56738656Y-61235288D01*
X56589334Y-61143186D01*
X56422797Y-61088001D01*
X56422795Y-61088000D01*
X56320010Y-61077500D01*
X55719998Y-61077500D01*
X55719980Y-61077501D01*
X55617203Y-61088000D01*
X55617200Y-61088001D01*
X55450668Y-61143185D01*
X55450663Y-61143187D01*
X55301342Y-61235289D01*
X55177289Y-61359342D01*
X55085187Y-61508663D01*
X55085185Y-61508668D01*
X55085115Y-61508880D01*
X55030001Y-61675203D01*
X55030001Y-61675204D01*
X55030000Y-61675204D01*
X55019500Y-61777983D01*
X55019500Y-64878001D01*
X50154638Y-64878001D01*
X50192231Y-64855768D01*
X50255353Y-64838500D01*
X52395833Y-64838500D01*
X52395833Y-64838498D01*
X52395638Y-64836013D01*
X52349819Y-64678301D01*
X52266223Y-64536947D01*
X52266216Y-64536938D01*
X52150099Y-64420821D01*
X52150090Y-64420814D01*
X52008734Y-64337217D01*
X52008731Y-64337216D01*
X51851033Y-64291400D01*
X51851027Y-64291399D01*
X51814182Y-64288500D01*
X51487736Y-64288500D01*
X51420697Y-64268815D01*
X51374942Y-64216011D01*
X51364998Y-64146853D01*
X51394023Y-64083297D01*
X51437300Y-64051221D01*
X51552969Y-63999721D01*
X51603405Y-63989000D01*
X51814234Y-63989000D01*
X51832669Y-63987549D01*
X51851107Y-63986098D01*
X51851109Y-63986097D01*
X51851111Y-63986097D01*
X51892729Y-63974005D01*
X52008936Y-63940244D01*
X52150403Y-63856581D01*
X52266619Y-63740365D01*
X52350282Y-63598898D01*
X52396136Y-63441069D01*
X52399038Y-63404194D01*
X52399038Y-62972806D01*
X52396136Y-62935931D01*
X52393943Y-62928384D01*
X52350283Y-62778106D01*
X52350282Y-62778103D01*
X52350282Y-62778102D01*
X52266619Y-62636635D01*
X52266617Y-62636633D01*
X52266614Y-62636629D01*
X52150408Y-62520423D01*
X52150400Y-62520417D01*
X52032039Y-62450419D01*
X52008936Y-62436756D01*
X52008935Y-62436755D01*
X52008934Y-62436755D01*
X52008931Y-62436754D01*
X51851111Y-62390902D01*
X51851105Y-62390901D01*
X51814234Y-62388000D01*
X51814232Y-62388000D01*
X51603405Y-62388000D01*
X51552969Y-62377279D01*
X51440845Y-62327357D01*
X51440840Y-62327355D01*
X51269393Y-62290914D01*
X51255684Y-62288000D01*
X51066392Y-62288000D01*
X51052683Y-62290914D01*
X50881235Y-62327355D01*
X50881230Y-62327357D01*
X50769107Y-62377279D01*
X50718671Y-62388000D01*
X50507842Y-62388000D01*
X50470970Y-62390901D01*
X50470964Y-62390902D01*
X50313144Y-62436754D01*
X50313141Y-62436755D01*
X50171675Y-62520417D01*
X50171667Y-62520423D01*
X50055461Y-62636629D01*
X50055455Y-62636637D01*
X49971793Y-62778103D01*
X49971792Y-62778106D01*
X49925940Y-62935926D01*
X49925939Y-62935932D01*
X49923038Y-62972804D01*
X49923038Y-63214000D01*
X49903353Y-63281039D01*
X49850549Y-63326794D01*
X49799038Y-63338000D01*
X48632842Y-63338000D01*
X48595970Y-63340901D01*
X48595964Y-63340902D01*
X48438144Y-63386754D01*
X48438141Y-63386755D01*
X48296675Y-63470417D01*
X48296667Y-63470423D01*
X48180461Y-63586629D01*
X48180454Y-63586638D01*
X48116048Y-63695544D01*
X48064979Y-63743228D01*
X47996237Y-63755731D01*
X47931648Y-63729085D01*
X47891718Y-63671750D01*
X47890930Y-63669310D01*
X47883478Y-63645394D01*
X47795472Y-63499815D01*
X47795470Y-63499813D01*
X47795469Y-63499811D01*
X47675188Y-63379530D01*
X47606489Y-63338000D01*
X47529606Y-63291522D01*
X47367196Y-63240914D01*
X47367194Y-63240913D01*
X47367192Y-63240913D01*
X47317778Y-63236423D01*
X47296616Y-63234500D01*
X46683384Y-63234500D01*
X46664145Y-63236248D01*
X46612807Y-63240913D01*
X46450393Y-63291522D01*
X46304811Y-63379530D01*
X46184530Y-63499811D01*
X46096522Y-63645393D01*
X46045913Y-63807807D01*
X46039500Y-63878386D01*
X46039500Y-64335500D01*
X46019815Y-64402539D01*
X45967011Y-64448294D01*
X45915500Y-64459500D01*
X45456520Y-64459500D01*
X45389481Y-64439815D01*
X45368839Y-64423181D01*
X45275189Y-64329531D01*
X45275185Y-64329528D01*
X45128934Y-64241115D01*
X45081747Y-64189587D01*
X45069909Y-64120728D01*
X45097178Y-64056399D01*
X45128935Y-64028882D01*
X45129600Y-64028479D01*
X45129606Y-64028478D01*
X45275185Y-63940472D01*
X45395472Y-63820185D01*
X45483478Y-63674606D01*
X45534086Y-63512196D01*
X45540500Y-63441616D01*
X45540500Y-62928384D01*
X45534086Y-62857804D01*
X45483478Y-62695394D01*
X45395472Y-62549815D01*
X45395470Y-62549813D01*
X45395469Y-62549811D01*
X45275188Y-62429530D01*
X45206489Y-62388000D01*
X45129606Y-62341522D01*
X44967196Y-62290914D01*
X44967194Y-62290913D01*
X44967192Y-62290913D01*
X44917778Y-62286423D01*
X44896616Y-62284500D01*
X44896613Y-62284500D01*
X44625453Y-62284500D01*
X44558414Y-62264815D01*
X44537772Y-62248181D01*
X44254803Y-61965212D01*
X44244980Y-61952950D01*
X44244759Y-61953134D01*
X44239786Y-61947123D01*
X44221159Y-61929631D01*
X44189364Y-61899773D01*
X44178919Y-61889328D01*
X44168475Y-61878883D01*
X44162986Y-61874625D01*
X44158561Y-61870847D01*
X44124582Y-61838938D01*
X44124580Y-61838936D01*
X44124577Y-61838935D01*
X44107029Y-61829288D01*
X44090763Y-61818604D01*
X44074933Y-61806325D01*
X44032168Y-61787818D01*
X44026922Y-61785248D01*
X43986093Y-61762803D01*
X43986092Y-61762802D01*
X43966693Y-61757822D01*
X43948281Y-61751518D01*
X43929898Y-61743562D01*
X43929892Y-61743560D01*
X43883874Y-61736272D01*
X43878152Y-61735087D01*
X43833021Y-61723500D01*
X43833019Y-61723500D01*
X43812984Y-61723500D01*
X43793586Y-61721973D01*
X43786162Y-61720797D01*
X43773805Y-61718840D01*
X43773804Y-61718840D01*
X43727416Y-61723225D01*
X43721578Y-61723500D01*
X42462448Y-61723500D01*
X42395409Y-61703815D01*
X42349654Y-61651011D01*
X42339710Y-61581853D01*
X42339975Y-61580101D01*
X42340536Y-61576556D01*
X42342160Y-61566304D01*
X42337775Y-61519915D01*
X42337500Y-61514077D01*
X42337500Y-57266499D01*
X42357185Y-57199460D01*
X42409989Y-57153705D01*
X42461495Y-57142499D01*
X43563500Y-57142499D01*
X43630539Y-57162184D01*
X43676294Y-57214988D01*
X43687500Y-57266499D01*
X43687500Y-59411467D01*
X43687416Y-59411889D01*
X43687459Y-59436001D01*
X43687500Y-59436099D01*
X43687616Y-59436382D01*
X43687618Y-59436384D01*
X43687808Y-59436462D01*
X43688000Y-59436541D01*
X43688002Y-59436539D01*
X43712616Y-59436524D01*
X43712616Y-59436528D01*
X43712760Y-59436500D01*
X57887240Y-59436500D01*
X57887383Y-59436528D01*
X57887384Y-59436524D01*
X57911997Y-59436539D01*
X57912000Y-59436541D01*
X57912383Y-59436383D01*
X57912500Y-59436099D01*
X57912499Y-59436099D01*
X57912541Y-59436000D01*
X57912540Y-59435998D01*
X57918892Y-59421028D01*
X57912521Y-59400750D01*
X57912499Y-59398418D01*
X57912500Y-57266499D01*
X57932185Y-57199459D01*
X57984989Y-57153705D01*
X58036500Y-57142499D01*
X59258657Y-57142499D01*
X59269418Y-57141769D01*
X59301704Y-57139581D01*
X59487775Y-57093307D01*
X59659547Y-57008116D01*
X59808990Y-56887990D01*
X59929116Y-56738547D01*
X60014307Y-56566775D01*
X60060581Y-56380704D01*
X60063500Y-56337657D01*
X60063499Y-55422344D01*
X60060581Y-55379296D01*
X60014307Y-55193225D01*
X60011695Y-55187959D01*
X59929118Y-55021456D01*
X59929116Y-55021453D01*
X59808990Y-54872010D01*
X59808989Y-54872009D01*
X59659546Y-54751883D01*
X59659543Y-54751881D01*
X59597453Y-54721088D01*
X59546140Y-54673667D01*
X59528610Y-54606032D01*
X59550430Y-54539657D01*
X59597453Y-54498912D01*
X59659543Y-54468118D01*
X59659543Y-54468117D01*
X59659547Y-54468116D01*
X59808990Y-54347990D01*
X59929116Y-54198547D01*
X60014307Y-54026775D01*
X60060581Y-53840704D01*
X60063500Y-53797657D01*
X60063499Y-52882344D01*
X60060581Y-52839296D01*
X60014307Y-52653225D01*
X60011695Y-52647959D01*
X59929118Y-52481456D01*
X59929116Y-52481453D01*
X59808990Y-52332010D01*
X59808989Y-52332009D01*
X59659546Y-52211883D01*
X59659543Y-52211881D01*
X59597453Y-52181088D01*
X59546140Y-52133667D01*
X59528610Y-52066032D01*
X59550430Y-51999657D01*
X59597453Y-51958912D01*
X59659543Y-51928118D01*
X59659543Y-51928117D01*
X59659547Y-51928116D01*
X59808990Y-51807990D01*
X59929116Y-51658547D01*
X60014307Y-51486775D01*
X60060581Y-51300704D01*
X60063500Y-51257657D01*
X60063499Y-50342344D01*
X60060581Y-50299296D01*
X60014307Y-50113225D01*
X60011695Y-50107959D01*
X59929118Y-49941456D01*
X59929116Y-49941453D01*
X59808990Y-49792010D01*
X59808989Y-49792009D01*
X59659546Y-49671883D01*
X59659543Y-49671881D01*
X59597453Y-49641088D01*
X59546140Y-49593667D01*
X59528610Y-49526032D01*
X59550430Y-49459657D01*
X59597453Y-49418912D01*
X59659543Y-49388118D01*
X59659543Y-49388117D01*
X59659547Y-49388116D01*
X59808990Y-49267990D01*
X59929116Y-49118547D01*
X60014307Y-48946775D01*
X60060581Y-48760704D01*
X60063500Y-48717657D01*
X60063499Y-47802344D01*
X60060581Y-47759296D01*
X60014307Y-47573225D01*
X60011695Y-47567959D01*
X59929118Y-47401456D01*
X59929116Y-47401453D01*
X59808990Y-47252010D01*
X59808989Y-47252009D01*
X59659546Y-47131883D01*
X59597452Y-47101087D01*
X59546139Y-47053665D01*
X59528611Y-46986030D01*
X59550431Y-46919655D01*
X59597450Y-46878912D01*
X59659547Y-46848116D01*
X59808990Y-46727990D01*
X59929116Y-46578547D01*
X60014307Y-46406775D01*
X60060581Y-46220704D01*
X60063500Y-46177657D01*
X60063499Y-45262344D01*
X60060581Y-45219296D01*
X60014307Y-45033225D01*
X60011695Y-45027959D01*
X59929118Y-44861456D01*
X59929116Y-44861453D01*
X59808990Y-44712010D01*
X59808989Y-44712009D01*
X59659546Y-44591883D01*
X59659543Y-44591881D01*
X59597453Y-44561088D01*
X59546140Y-44513667D01*
X59528610Y-44446032D01*
X59550430Y-44379657D01*
X59597453Y-44338912D01*
X59659543Y-44308118D01*
X59659543Y-44308117D01*
X59659547Y-44308116D01*
X59808990Y-44187990D01*
X59929116Y-44038547D01*
X60014307Y-43866775D01*
X60060581Y-43680704D01*
X60063500Y-43637657D01*
X60063499Y-42722344D01*
X60060581Y-42679296D01*
X60014307Y-42493225D01*
X60011695Y-42487959D01*
X59929118Y-42321456D01*
X59929116Y-42321453D01*
X59808990Y-42172010D01*
X59808989Y-42172009D01*
X59659546Y-42051883D01*
X59659543Y-42051881D01*
X59597453Y-42021088D01*
X59546140Y-41973667D01*
X59528610Y-41906032D01*
X59550430Y-41839657D01*
X59597453Y-41798912D01*
X59659543Y-41768118D01*
X59659543Y-41768117D01*
X59659547Y-41768116D01*
X59808990Y-41647990D01*
X59929116Y-41498547D01*
X60014307Y-41326775D01*
X60060581Y-41140704D01*
X60063500Y-41097657D01*
X60063499Y-40182344D01*
X60060581Y-40139296D01*
X60014307Y-39953225D01*
X59998794Y-39921946D01*
X59929118Y-39781456D01*
X59929116Y-39781453D01*
X59808990Y-39632010D01*
X59808989Y-39632009D01*
X59659546Y-39511883D01*
X59659543Y-39511881D01*
X59597453Y-39481088D01*
X59546140Y-39433667D01*
X59528610Y-39366032D01*
X59550430Y-39299657D01*
X59597453Y-39258912D01*
X59659543Y-39228118D01*
X59659543Y-39228117D01*
X59659547Y-39228116D01*
X59808990Y-39107990D01*
X59929116Y-38958547D01*
X60014307Y-38786775D01*
X60060581Y-38600704D01*
X60063500Y-38557657D01*
X60063499Y-37642344D01*
X60060581Y-37599296D01*
X60014307Y-37413225D01*
X60011695Y-37407959D01*
X59929118Y-37241456D01*
X59929116Y-37241453D01*
X59808990Y-37092010D01*
X59808989Y-37092009D01*
X59659546Y-36971883D01*
X59659543Y-36971881D01*
X59487778Y-36886694D01*
X59487776Y-36886693D01*
X59487775Y-36886693D01*
X59449939Y-36877283D01*
X59301708Y-36840419D01*
X59258658Y-36837500D01*
X59258657Y-36837500D01*
X58036500Y-36837500D01*
X57969461Y-36817815D01*
X57923706Y-36765011D01*
X57912500Y-36713500D01*
X57912500Y-35684500D01*
X57932185Y-35617461D01*
X57984989Y-35571706D01*
X58036500Y-35560500D01*
X62036043Y-35560500D01*
X62103082Y-35580185D01*
X62148837Y-35632989D01*
X62158781Y-35702147D01*
X62129756Y-35765703D01*
X62100195Y-35790615D01*
X62037759Y-35828359D01*
X61963131Y-35873473D01*
X61705960Y-36074954D01*
X61474954Y-36305960D01*
X61273473Y-36563131D01*
X61104454Y-36842723D01*
X61104453Y-36842725D01*
X60970372Y-37140642D01*
X60970366Y-37140657D01*
X60873178Y-37452547D01*
X60814289Y-37773900D01*
X60794564Y-38100000D01*
X60814289Y-38426099D01*
X60873178Y-38747452D01*
X60970366Y-39059342D01*
X60970370Y-39059354D01*
X60970373Y-39059361D01*
X61104455Y-39357279D01*
X61202082Y-39518773D01*
X61273473Y-39636868D01*
X61474954Y-39894039D01*
X61705960Y-40125045D01*
X61963131Y-40326526D01*
X61963134Y-40326528D01*
X61963137Y-40326530D01*
X62242721Y-40495545D01*
X62540639Y-40629627D01*
X62540652Y-40629631D01*
X62540657Y-40629633D01*
X62852546Y-40726821D01*
X62852547Y-40726821D01*
X63173896Y-40785710D01*
X63500000Y-40805436D01*
X63826104Y-40785710D01*
X64147453Y-40726821D01*
X64459361Y-40629627D01*
X64757279Y-40495545D01*
X65036863Y-40326530D01*
X65294036Y-40125048D01*
X65525048Y-39894036D01*
X65700408Y-39670204D01*
X65757248Y-39629572D01*
X65827032Y-39626120D01*
X65887605Y-39660944D01*
X65902334Y-39679638D01*
X65908967Y-39689959D01*
X65928652Y-39756998D01*
X65908968Y-39824037D01*
X65846046Y-39921946D01*
X65846045Y-39921949D01*
X65805500Y-40060036D01*
X65805500Y-40203963D01*
X65846045Y-40342050D01*
X65908968Y-40439961D01*
X65928652Y-40507001D01*
X65908968Y-40574039D01*
X65846045Y-40671949D01*
X65805500Y-40810036D01*
X65805500Y-40953963D01*
X65846045Y-41092050D01*
X65923855Y-41213126D01*
X65923856Y-41213127D01*
X65923857Y-41213128D01*
X65997203Y-41276682D01*
X66034976Y-41335457D01*
X66039999Y-41370393D01*
X66039999Y-42061551D01*
X66039735Y-42067264D01*
X66039500Y-42069805D01*
X66039500Y-95090196D01*
X66039734Y-95092723D01*
X66039999Y-95098447D01*
X66039999Y-95789606D01*
X66020314Y-95856645D01*
X65997203Y-95883317D01*
X65942614Y-95930619D01*
X65923856Y-95946873D01*
X65846045Y-96067949D01*
X65805500Y-96206036D01*
X65805500Y-96349963D01*
X65846045Y-96488050D01*
X65908968Y-96585961D01*
X65928652Y-96653001D01*
X65908968Y-96720039D01*
X65846045Y-96817949D01*
X65805500Y-96956036D01*
X65805500Y-97099963D01*
X65846045Y-97238050D01*
X65908968Y-97335960D01*
X65928652Y-97402999D01*
X65908970Y-97470035D01*
X65902337Y-97480357D01*
X65849535Y-97526113D01*
X65780377Y-97536060D01*
X65716820Y-97507037D01*
X65700408Y-97489794D01*
X65525045Y-97265960D01*
X65294039Y-97034954D01*
X65036868Y-96833473D01*
X65011185Y-96817947D01*
X64757279Y-96664455D01*
X64459361Y-96530373D01*
X64459354Y-96530370D01*
X64459342Y-96530366D01*
X64147452Y-96433178D01*
X63826099Y-96374289D01*
X63500000Y-96354564D01*
X63173900Y-96374289D01*
X62852547Y-96433178D01*
X62540657Y-96530366D01*
X62540641Y-96530372D01*
X62540639Y-96530373D01*
X62508675Y-96544759D01*
X62242725Y-96664453D01*
X62242723Y-96664454D01*
X61963131Y-96833473D01*
X61705960Y-97034954D01*
X61474954Y-97265960D01*
X61273473Y-97523131D01*
X61162091Y-97707380D01*
X61104455Y-97802721D01*
X60993690Y-98048832D01*
X60970372Y-98100642D01*
X60970366Y-98100657D01*
X60873178Y-98412547D01*
X60814289Y-98733900D01*
X60794564Y-99060000D01*
X60814289Y-99386099D01*
X60873178Y-99707452D01*
X60970366Y-100019342D01*
X60970370Y-100019354D01*
X60970373Y-100019361D01*
X61104455Y-100317279D01*
X61268901Y-100589306D01*
X61273473Y-100596868D01*
X61474954Y-100854039D01*
X61705960Y-101085045D01*
X61963131Y-101286526D01*
X61963134Y-101286528D01*
X61963137Y-101286530D01*
X62100194Y-101369384D01*
X62147380Y-101420911D01*
X62159219Y-101489770D01*
X62131950Y-101554099D01*
X62074232Y-101593473D01*
X62036043Y-101599500D01*
X58544500Y-101599500D01*
X58477461Y-101579815D01*
X58431706Y-101527011D01*
X58420500Y-101475500D01*
X58420500Y-96544759D01*
X58420528Y-96544616D01*
X58420524Y-96544616D01*
X58420539Y-96520002D01*
X58420541Y-96520000D01*
X58420462Y-96519808D01*
X58420384Y-96519618D01*
X58420382Y-96519616D01*
X58420099Y-96519500D01*
X58420000Y-96519459D01*
X58395446Y-96519459D01*
X58395240Y-96519500D01*
X43204760Y-96519500D01*
X43204554Y-96519459D01*
X43180000Y-96519459D01*
X43179901Y-96519500D01*
X43179617Y-96519616D01*
X43179615Y-96519618D01*
X43179459Y-96519999D01*
X43179476Y-96544616D01*
X43179471Y-96544616D01*
X43179500Y-96544759D01*
X43179500Y-101475500D01*
X43159815Y-101542539D01*
X43107011Y-101588294D01*
X43055500Y-101599500D01*
X39563957Y-101599500D01*
X39496918Y-101579815D01*
X39451163Y-101527011D01*
X39441219Y-101457853D01*
X39470244Y-101394297D01*
X39499804Y-101369384D01*
X39636863Y-101286530D01*
X39894036Y-101085048D01*
X40125048Y-100854036D01*
X40326530Y-100596863D01*
X40495545Y-100317279D01*
X40629627Y-100019361D01*
X40726821Y-99707453D01*
X40785710Y-99386104D01*
X40805436Y-99060000D01*
X40785710Y-98733896D01*
X40726821Y-98412547D01*
X40693489Y-98305579D01*
X40629633Y-98100657D01*
X40629631Y-98100652D01*
X40629627Y-98100639D01*
X40495545Y-97802721D01*
X40326530Y-97523137D01*
X40326528Y-97523134D01*
X40326526Y-97523131D01*
X40125045Y-97265960D01*
X39894039Y-97034954D01*
X39636868Y-96833473D01*
X39611185Y-96817947D01*
X39357279Y-96664455D01*
X39059361Y-96530373D01*
X39059354Y-96530370D01*
X39059342Y-96530366D01*
X38747452Y-96433178D01*
X38426099Y-96374289D01*
X38100000Y-96354564D01*
X37773900Y-96374289D01*
X37452547Y-96433178D01*
X37140657Y-96530366D01*
X37140641Y-96530372D01*
X37140639Y-96530373D01*
X37108675Y-96544759D01*
X36842725Y-96664453D01*
X36842723Y-96664454D01*
X36563131Y-96833473D01*
X36305960Y-97034954D01*
X36074954Y-97265960D01*
X35873473Y-97523132D01*
X35790617Y-97660192D01*
X35739089Y-97707380D01*
X35670229Y-97719218D01*
X35605901Y-97691949D01*
X35566527Y-97634230D01*
X35560500Y-97596042D01*
X35560500Y-89447337D01*
X39664500Y-89447337D01*
X39664501Y-89447355D01*
X39674650Y-89546707D01*
X39674651Y-89546710D01*
X39727996Y-89707694D01*
X39728001Y-89707705D01*
X39817029Y-89852040D01*
X39817032Y-89852044D01*
X39936955Y-89971967D01*
X39936959Y-89971970D01*
X40081294Y-90060998D01*
X40081297Y-90060999D01*
X40081303Y-90061003D01*
X40242292Y-90114349D01*
X40341655Y-90124500D01*
X40654547Y-90124499D01*
X40721586Y-90144183D01*
X40742227Y-90160817D01*
X42233017Y-91651608D01*
X43675197Y-93093788D01*
X43685022Y-93106051D01*
X43685243Y-93105869D01*
X43690214Y-93111878D01*
X43716217Y-93136295D01*
X43740635Y-93159226D01*
X43761529Y-93180120D01*
X43767011Y-93184373D01*
X43771443Y-93188157D01*
X43805418Y-93220062D01*
X43822976Y-93229714D01*
X43839235Y-93240395D01*
X43855064Y-93252673D01*
X43897838Y-93271182D01*
X43903056Y-93273738D01*
X43943908Y-93296197D01*
X43963316Y-93301180D01*
X43981717Y-93307480D01*
X44000104Y-93315437D01*
X44043488Y-93322308D01*
X44046119Y-93322725D01*
X44051839Y-93323909D01*
X44096981Y-93335500D01*
X44117016Y-93335500D01*
X44136414Y-93337026D01*
X44156194Y-93340159D01*
X44156195Y-93340160D01*
X44156195Y-93340159D01*
X44156196Y-93340160D01*
X44202583Y-93335775D01*
X44208422Y-93335500D01*
X44399030Y-93335500D01*
X44466069Y-93355185D01*
X44497405Y-93384013D01*
X44544546Y-93445448D01*
X44544547Y-93445449D01*
X44544549Y-93445451D01*
X44664767Y-93537698D01*
X44804764Y-93595687D01*
X44911586Y-93609750D01*
X44917264Y-93610498D01*
X44917280Y-93610500D01*
X44917287Y-93610500D01*
X45142713Y-93610500D01*
X45142720Y-93610500D01*
X45255236Y-93595687D01*
X45255236Y-93595686D01*
X45263295Y-93594626D01*
X45263698Y-93597689D01*
X45296302Y-93597689D01*
X45296705Y-93594626D01*
X45304763Y-93595686D01*
X45304764Y-93595687D01*
X45417280Y-93610500D01*
X45417287Y-93610500D01*
X45642713Y-93610500D01*
X45642720Y-93610500D01*
X45755236Y-93595687D01*
X45755236Y-93595686D01*
X45763295Y-93594626D01*
X45763697Y-93597685D01*
X45796305Y-93597676D01*
X45796707Y-93594626D01*
X45804763Y-93595686D01*
X45804764Y-93595687D01*
X45897824Y-93607938D01*
X45917264Y-93610498D01*
X45917280Y-93610500D01*
X45917287Y-93610500D01*
X46142713Y-93610500D01*
X46142720Y-93610500D01*
X46255236Y-93595687D01*
X46255236Y-93595686D01*
X46263295Y-93594626D01*
X46263697Y-93597685D01*
X46296305Y-93597676D01*
X46296707Y-93594626D01*
X46304763Y-93595686D01*
X46304764Y-93595687D01*
X46397824Y-93607938D01*
X46417264Y-93610498D01*
X46417280Y-93610500D01*
X46417287Y-93610500D01*
X46642713Y-93610500D01*
X46642720Y-93610500D01*
X46755236Y-93595687D01*
X46755236Y-93595686D01*
X46763295Y-93594626D01*
X46763698Y-93597689D01*
X46796302Y-93597689D01*
X46796705Y-93594626D01*
X46804763Y-93595686D01*
X46804764Y-93595687D01*
X46917280Y-93610500D01*
X46917287Y-93610500D01*
X47142713Y-93610500D01*
X47142720Y-93610500D01*
X47255236Y-93595687D01*
X47255236Y-93595686D01*
X47263295Y-93594626D01*
X47263698Y-93597689D01*
X47296302Y-93597689D01*
X47296705Y-93594626D01*
X47304763Y-93595686D01*
X47304764Y-93595687D01*
X47417280Y-93610500D01*
X47417287Y-93610500D01*
X47642713Y-93610500D01*
X47642720Y-93610500D01*
X47755236Y-93595687D01*
X47755236Y-93595686D01*
X47763295Y-93594626D01*
X47763697Y-93597685D01*
X47796305Y-93597676D01*
X47796707Y-93594626D01*
X47804763Y-93595686D01*
X47804764Y-93595687D01*
X47897824Y-93607938D01*
X47917264Y-93610498D01*
X47917280Y-93610500D01*
X47917287Y-93610500D01*
X48142713Y-93610500D01*
X48142720Y-93610500D01*
X48255236Y-93595687D01*
X48255236Y-93595686D01*
X48263295Y-93594626D01*
X48263529Y-93596409D01*
X48297270Y-93594196D01*
X48417302Y-93609999D01*
X48417317Y-93610000D01*
X48642683Y-93610000D01*
X48642697Y-93609999D01*
X48762729Y-93594196D01*
X48796470Y-93596406D01*
X48796705Y-93594626D01*
X48804763Y-93595686D01*
X48804764Y-93595687D01*
X48917280Y-93610500D01*
X48917287Y-93610500D01*
X49142713Y-93610500D01*
X49142720Y-93610500D01*
X49255236Y-93595687D01*
X49255236Y-93595686D01*
X49263295Y-93594626D01*
X49263698Y-93597689D01*
X49296302Y-93597689D01*
X49296705Y-93594626D01*
X49304763Y-93595686D01*
X49304764Y-93595687D01*
X49417280Y-93610500D01*
X49417287Y-93610500D01*
X49642713Y-93610500D01*
X49642720Y-93610500D01*
X49755236Y-93595687D01*
X49755236Y-93595686D01*
X49763295Y-93594626D01*
X49763697Y-93597685D01*
X49796305Y-93597676D01*
X49796707Y-93594626D01*
X49804763Y-93595686D01*
X49804764Y-93595687D01*
X49897824Y-93607938D01*
X49917264Y-93610498D01*
X49917280Y-93610500D01*
X49917287Y-93610500D01*
X50142713Y-93610500D01*
X50142720Y-93610500D01*
X50143913Y-93610343D01*
X50144266Y-93610398D01*
X50146772Y-93610234D01*
X50146808Y-93610794D01*
X50212948Y-93621108D01*
X50265204Y-93667488D01*
X50284090Y-93734757D01*
X50267486Y-93795282D01*
X50226821Y-93865715D01*
X50226818Y-93865722D01*
X50168327Y-94045740D01*
X50168326Y-94045744D01*
X50148540Y-94234000D01*
X50168326Y-94422256D01*
X50168327Y-94422259D01*
X50226818Y-94602277D01*
X50226821Y-94602284D01*
X50321467Y-94766216D01*
X50448128Y-94906888D01*
X50448129Y-94906888D01*
X50601265Y-95018148D01*
X50601270Y-95018151D01*
X50774192Y-95095142D01*
X50774197Y-95095144D01*
X50959354Y-95134500D01*
X50959355Y-95134500D01*
X51148644Y-95134500D01*
X51148646Y-95134500D01*
X51333803Y-95095144D01*
X51503316Y-95019670D01*
X51572564Y-95010386D01*
X51604187Y-95019671D01*
X51773695Y-95095142D01*
X51773700Y-95095144D01*
X51958857Y-95134500D01*
X51958858Y-95134500D01*
X52148147Y-95134500D01*
X52148149Y-95134500D01*
X52333306Y-95095144D01*
X52502819Y-95019670D01*
X52572067Y-95010386D01*
X52603690Y-95019671D01*
X52773198Y-95095142D01*
X52773203Y-95095144D01*
X52958360Y-95134500D01*
X52958361Y-95134500D01*
X53147650Y-95134500D01*
X53147652Y-95134500D01*
X53332809Y-95095144D01*
X53502322Y-95019670D01*
X53571570Y-95010386D01*
X53603193Y-95019671D01*
X53772701Y-95095142D01*
X53772706Y-95095144D01*
X53957863Y-95134500D01*
X53957864Y-95134500D01*
X54147153Y-95134500D01*
X54147155Y-95134500D01*
X54332312Y-95095144D01*
X54505239Y-95018151D01*
X54658380Y-94906888D01*
X54785042Y-94766216D01*
X54879688Y-94602284D01*
X54938183Y-94422256D01*
X54957969Y-94234000D01*
X54938183Y-94045744D01*
X54879688Y-93865716D01*
X54839725Y-93796499D01*
X54823253Y-93728600D01*
X54846106Y-93662573D01*
X54901027Y-93619382D01*
X54947113Y-93610500D01*
X55142713Y-93610500D01*
X55142720Y-93610500D01*
X55255236Y-93595687D01*
X55255236Y-93595686D01*
X55263295Y-93594626D01*
X55263698Y-93597689D01*
X55296302Y-93597689D01*
X55296705Y-93594626D01*
X55304763Y-93595686D01*
X55304764Y-93595687D01*
X55417280Y-93610500D01*
X55417287Y-93610500D01*
X55642713Y-93610500D01*
X55642720Y-93610500D01*
X55755236Y-93595687D01*
X55755236Y-93595686D01*
X55763295Y-93594626D01*
X55763697Y-93597685D01*
X55796305Y-93597676D01*
X55796707Y-93594626D01*
X55804763Y-93595686D01*
X55804764Y-93595687D01*
X55897824Y-93607938D01*
X55917264Y-93610498D01*
X55917280Y-93610500D01*
X55917287Y-93610500D01*
X56142713Y-93610500D01*
X56142720Y-93610500D01*
X56255236Y-93595687D01*
X56255236Y-93595686D01*
X56263295Y-93594626D01*
X56263698Y-93597689D01*
X56296302Y-93597689D01*
X56296705Y-93594626D01*
X56304763Y-93595686D01*
X56304764Y-93595687D01*
X56417280Y-93610500D01*
X56417287Y-93610500D01*
X56642713Y-93610500D01*
X56642720Y-93610500D01*
X56755236Y-93595687D01*
X56895233Y-93537698D01*
X57015451Y-93445451D01*
X57107698Y-93325233D01*
X57165687Y-93185236D01*
X57180500Y-93072720D01*
X57180500Y-92347280D01*
X57165687Y-92234764D01*
X57107698Y-92094767D01*
X57015451Y-91974549D01*
X56895233Y-91882302D01*
X56895230Y-91882301D01*
X56895228Y-91882299D01*
X56767618Y-91829442D01*
X56713214Y-91785601D01*
X56691149Y-91719307D01*
X56708428Y-91651608D01*
X56727385Y-91627204D01*
X58356771Y-89997819D01*
X58418095Y-89964334D01*
X58444453Y-89961500D01*
X58690480Y-89961500D01*
X58757519Y-89981185D01*
X58778161Y-89997819D01*
X58871811Y-90091469D01*
X58871813Y-90091470D01*
X58871815Y-90091472D01*
X59017394Y-90179478D01*
X59179804Y-90230086D01*
X59250384Y-90236500D01*
X59250387Y-90236500D01*
X59863613Y-90236500D01*
X59863616Y-90236500D01*
X59934196Y-90230086D01*
X60096606Y-90179478D01*
X60242185Y-90091472D01*
X60362472Y-89971185D01*
X60450478Y-89825606D01*
X60501086Y-89663196D01*
X60507500Y-89592616D01*
X60507500Y-89079384D01*
X60501086Y-89008804D01*
X60450478Y-88846394D01*
X60362472Y-88700815D01*
X60362470Y-88700813D01*
X60362469Y-88700811D01*
X60242188Y-88580530D01*
X60242185Y-88580528D01*
X60096606Y-88492522D01*
X60096603Y-88492521D01*
X60095935Y-88492117D01*
X60048747Y-88440589D01*
X60036909Y-88371730D01*
X60064178Y-88307401D01*
X60095935Y-88279883D01*
X60096603Y-88279478D01*
X60096606Y-88279478D01*
X60242185Y-88191472D01*
X60362472Y-88071185D01*
X60450478Y-87925606D01*
X60501086Y-87763196D01*
X60507500Y-87692616D01*
X60507500Y-87179384D01*
X60501086Y-87108804D01*
X60450478Y-86946394D01*
X60362472Y-86800815D01*
X60362470Y-86800813D01*
X60362469Y-86800811D01*
X60242188Y-86680530D01*
X60231384Y-86673999D01*
X60096606Y-86592522D01*
X59934196Y-86541914D01*
X59934194Y-86541913D01*
X59934192Y-86541913D01*
X59884778Y-86537423D01*
X59863616Y-86535500D01*
X59863613Y-86535500D01*
X59592452Y-86535500D01*
X59525413Y-86515815D01*
X59504771Y-86499181D01*
X59269889Y-86264298D01*
X59236404Y-86202975D01*
X59241388Y-86133283D01*
X59283260Y-86077350D01*
X59348724Y-86052933D01*
X59368794Y-86053126D01*
X59433413Y-86058998D01*
X59433426Y-86058999D01*
X59439999Y-86058998D01*
X59440000Y-86058998D01*
X59440000Y-85334000D01*
X59940000Y-85334000D01*
X59940000Y-86058999D01*
X59946581Y-86058999D01*
X60017102Y-86052591D01*
X60017107Y-86052590D01*
X60179396Y-86002018D01*
X60324877Y-85914072D01*
X60445072Y-85793877D01*
X60533019Y-85648395D01*
X60583590Y-85486106D01*
X60590000Y-85415572D01*
X60590000Y-85334000D01*
X59940000Y-85334000D01*
X59440000Y-85334000D01*
X59440000Y-84834000D01*
X59939999Y-84834000D01*
X60589999Y-84834000D01*
X60589999Y-84752417D01*
X60583591Y-84681897D01*
X60583590Y-84681892D01*
X60533018Y-84519603D01*
X60445072Y-84374122D01*
X60324877Y-84253927D01*
X60179395Y-84165980D01*
X60179396Y-84165980D01*
X60017105Y-84115409D01*
X60017106Y-84115409D01*
X59946572Y-84109000D01*
X59940000Y-84109000D01*
X59939999Y-84834000D01*
X59440000Y-84834000D01*
X59440000Y-84109000D01*
X59439999Y-84108999D01*
X59433436Y-84109000D01*
X59433417Y-84109001D01*
X59362897Y-84115408D01*
X59362892Y-84115409D01*
X59200603Y-84165981D01*
X59055122Y-84253927D01*
X59055121Y-84253928D01*
X58953035Y-84356015D01*
X58891712Y-84389500D01*
X58822020Y-84384516D01*
X58777673Y-84356015D01*
X58675188Y-84253530D01*
X58529606Y-84165522D01*
X58398607Y-84124702D01*
X58367196Y-84114914D01*
X58367194Y-84114913D01*
X58367192Y-84114913D01*
X58317778Y-84110423D01*
X58296616Y-84108500D01*
X57783384Y-84108500D01*
X57764145Y-84110248D01*
X57712807Y-84114913D01*
X57550393Y-84165522D01*
X57404811Y-84253530D01*
X57284530Y-84373811D01*
X57196522Y-84519393D01*
X57145913Y-84681807D01*
X57139500Y-84752386D01*
X57139500Y-85033553D01*
X57139160Y-85040037D01*
X57134540Y-85084000D01*
X57134540Y-85084003D01*
X57139159Y-85127962D01*
X57139499Y-85134445D01*
X57139499Y-85415612D01*
X57145913Y-85486192D01*
X57145913Y-85486194D01*
X57145914Y-85486196D01*
X57171284Y-85567612D01*
X57172434Y-85637471D01*
X57135633Y-85696863D01*
X57072564Y-85726931D01*
X57052898Y-85728500D01*
X56482777Y-85728500D01*
X56415738Y-85708815D01*
X56369983Y-85656011D01*
X56360039Y-85586853D01*
X56389064Y-85523297D01*
X56433040Y-85493954D01*
X56431941Y-85491597D01*
X56438492Y-85488542D01*
X56582728Y-85399575D01*
X56582732Y-85399572D01*
X56702572Y-85279732D01*
X56702575Y-85279728D01*
X56791542Y-85135492D01*
X56791547Y-85135481D01*
X56844855Y-84974606D01*
X56854999Y-84875322D01*
X56855000Y-84875309D01*
X56855000Y-84852000D01*
X55754000Y-84852000D01*
X55686961Y-84832315D01*
X55641206Y-84779511D01*
X55630000Y-84728000D01*
X55630000Y-84476000D01*
X55649685Y-84408961D01*
X55702489Y-84363206D01*
X55754000Y-84352000D01*
X56854999Y-84352000D01*
X56854999Y-84328692D01*
X56854998Y-84328677D01*
X56844855Y-84229392D01*
X56791547Y-84068518D01*
X56791542Y-84068507D01*
X56702575Y-83924271D01*
X56702572Y-83924267D01*
X56693339Y-83915034D01*
X56659854Y-83853711D01*
X56664838Y-83784019D01*
X56693343Y-83739668D01*
X56702968Y-83730044D01*
X56792003Y-83585697D01*
X56845349Y-83424708D01*
X56855500Y-83325345D01*
X56855499Y-82778656D01*
X56845349Y-82679292D01*
X56792003Y-82518303D01*
X56791999Y-82518297D01*
X56791998Y-82518294D01*
X56702970Y-82373959D01*
X56702967Y-82373955D01*
X56583044Y-82254032D01*
X56583040Y-82254029D01*
X56438705Y-82165001D01*
X56438699Y-82164998D01*
X56438697Y-82164997D01*
X56438694Y-82164996D01*
X56277709Y-82111651D01*
X56178346Y-82101500D01*
X55581662Y-82101500D01*
X55581644Y-82101501D01*
X55482292Y-82111650D01*
X55482289Y-82111651D01*
X55321305Y-82164996D01*
X55321294Y-82165001D01*
X55176959Y-82254029D01*
X55057032Y-82373955D01*
X55052724Y-82379405D01*
X54995704Y-82419785D01*
X54955453Y-82426500D01*
X54772547Y-82426500D01*
X54705508Y-82406815D01*
X54675276Y-82379405D01*
X54670967Y-82373955D01*
X54551044Y-82254032D01*
X54551041Y-82254030D01*
X54551040Y-82254029D01*
X54406705Y-82165001D01*
X54406699Y-82164998D01*
X54406697Y-82164997D01*
X54406694Y-82164996D01*
X54245709Y-82111651D01*
X54146352Y-82101500D01*
X54146345Y-82101500D01*
X53833453Y-82101500D01*
X53766414Y-82081815D01*
X53745772Y-82065181D01*
X53586803Y-81906212D01*
X53576980Y-81893950D01*
X53576759Y-81894134D01*
X53571786Y-81888123D01*
X53547153Y-81864991D01*
X53521364Y-81840773D01*
X53510919Y-81830328D01*
X53500475Y-81819883D01*
X53494986Y-81815625D01*
X53490561Y-81811847D01*
X53456582Y-81779938D01*
X53456580Y-81779936D01*
X53456577Y-81779935D01*
X53439029Y-81770288D01*
X53422763Y-81759604D01*
X53406933Y-81747325D01*
X53364168Y-81728818D01*
X53358922Y-81726248D01*
X53318093Y-81703803D01*
X53318092Y-81703802D01*
X53298693Y-81698822D01*
X53280281Y-81692518D01*
X53261898Y-81684562D01*
X53261892Y-81684560D01*
X53215874Y-81677272D01*
X53210152Y-81676087D01*
X53165021Y-81664500D01*
X53165019Y-81664500D01*
X53144984Y-81664500D01*
X53125586Y-81662973D01*
X53118162Y-81661797D01*
X53105805Y-81659840D01*
X53105804Y-81659840D01*
X53059416Y-81664225D01*
X53053578Y-81664500D01*
X52670908Y-81664500D01*
X52603869Y-81644815D01*
X52565363Y-81600728D01*
X52563605Y-81601813D01*
X52553185Y-81584919D01*
X52467712Y-81446344D01*
X52343656Y-81322288D01*
X52194334Y-81230186D01*
X52027797Y-81175001D01*
X52027795Y-81175000D01*
X51925010Y-81164500D01*
X49674998Y-81164500D01*
X49674981Y-81164501D01*
X49572203Y-81175000D01*
X49572200Y-81175001D01*
X49405668Y-81230185D01*
X49405663Y-81230187D01*
X49256342Y-81322289D01*
X49132289Y-81446342D01*
X49040187Y-81595663D01*
X49040185Y-81595668D01*
X49018921Y-81659840D01*
X48985001Y-81762203D01*
X48985001Y-81762204D01*
X48985000Y-81762204D01*
X48974500Y-81864983D01*
X48974500Y-82715001D01*
X48974501Y-82715019D01*
X48985000Y-82817796D01*
X48985001Y-82817799D01*
X49040185Y-82984331D01*
X49040189Y-82984340D01*
X49049481Y-82999404D01*
X49067921Y-83066796D01*
X49046998Y-83133460D01*
X48993356Y-83178229D01*
X48943942Y-83188500D01*
X48669832Y-83188500D01*
X48602793Y-83168815D01*
X48582335Y-83150268D01*
X48581388Y-83151216D01*
X48457391Y-83027219D01*
X48457387Y-83027216D01*
X48314295Y-82938955D01*
X48314289Y-82938952D01*
X48314287Y-82938951D01*
X48154685Y-82886064D01*
X48154683Y-82886063D01*
X48056181Y-82876000D01*
X48056174Y-82876000D01*
X47447826Y-82876000D01*
X47447818Y-82876000D01*
X47349316Y-82886063D01*
X47349315Y-82886064D01*
X47270219Y-82912273D01*
X47189715Y-82938950D01*
X47189704Y-82938955D01*
X47046612Y-83027216D01*
X47046608Y-83027219D01*
X46922612Y-83151216D01*
X46920528Y-83149132D01*
X46874416Y-83181786D01*
X46834168Y-83188500D01*
X46380758Y-83188500D01*
X46313719Y-83168815D01*
X46267964Y-83116011D01*
X46258020Y-83046853D01*
X46275220Y-82999403D01*
X46366088Y-82852083D01*
X46366093Y-82852072D01*
X46418942Y-82692583D01*
X46428999Y-82594150D01*
X46429000Y-82594137D01*
X46429000Y-82540000D01*
X45741500Y-82540000D01*
X45741500Y-83269759D01*
X45769259Y-83320596D01*
X45764275Y-83390288D01*
X45735775Y-83434633D01*
X45623091Y-83547318D01*
X45606227Y-83564182D01*
X45544904Y-83597666D01*
X45518546Y-83600500D01*
X45205663Y-83600500D01*
X45205644Y-83600501D01*
X45106292Y-83610650D01*
X45106289Y-83610651D01*
X44945305Y-83663996D01*
X44945294Y-83664001D01*
X44800959Y-83753029D01*
X44800953Y-83753033D01*
X44791678Y-83762309D01*
X44730354Y-83795792D01*
X44660662Y-83790805D01*
X44616319Y-83762306D01*
X44607046Y-83753033D01*
X44601590Y-83748719D01*
X44561213Y-83691697D01*
X44554500Y-83651452D01*
X44554500Y-83195534D01*
X44574185Y-83128495D01*
X44590819Y-83107853D01*
X44616672Y-83082000D01*
X44677995Y-83048515D01*
X44747687Y-83053499D01*
X44792034Y-83082000D01*
X44823919Y-83113885D01*
X44966922Y-83202091D01*
X44966927Y-83202093D01*
X45126416Y-83254942D01*
X45224856Y-83264999D01*
X45241500Y-83264998D01*
X45241500Y-81315000D01*
X45741500Y-81315000D01*
X45741500Y-82040000D01*
X46428999Y-82040000D01*
X46428999Y-81985864D01*
X46428998Y-81985847D01*
X46418943Y-81887416D01*
X46366093Y-81727927D01*
X46366091Y-81727922D01*
X46277885Y-81584919D01*
X46159080Y-81466114D01*
X46016077Y-81377908D01*
X46016072Y-81377906D01*
X45856583Y-81325057D01*
X45758150Y-81315000D01*
X45741500Y-81315000D01*
X45241500Y-81315000D01*
X45241500Y-81314999D01*
X45224856Y-81315000D01*
X45126415Y-81325057D01*
X44966927Y-81377906D01*
X44966922Y-81377908D01*
X44823919Y-81466114D01*
X44792033Y-81498000D01*
X44730709Y-81531485D01*
X44661018Y-81526499D01*
X44616673Y-81498000D01*
X44584392Y-81465719D01*
X44584387Y-81465716D01*
X44441295Y-81377455D01*
X44441289Y-81377452D01*
X44441287Y-81377451D01*
X44281685Y-81324564D01*
X44281683Y-81324563D01*
X44183181Y-81314500D01*
X44183174Y-81314500D01*
X43649826Y-81314500D01*
X43649818Y-81314500D01*
X43551316Y-81324563D01*
X43551315Y-81324564D01*
X43472219Y-81350773D01*
X43391715Y-81377450D01*
X43391704Y-81377455D01*
X43248612Y-81465716D01*
X43248608Y-81465719D01*
X43129719Y-81584608D01*
X43129716Y-81584612D01*
X43041455Y-81727704D01*
X43041450Y-81727715D01*
X43030883Y-81759604D01*
X42988564Y-81887315D01*
X42988564Y-81887316D01*
X42988563Y-81887316D01*
X42978500Y-81985818D01*
X42978500Y-82594181D01*
X42988563Y-82692683D01*
X43041450Y-82852284D01*
X43041455Y-82852295D01*
X43132193Y-82999403D01*
X43150634Y-83066795D01*
X43129712Y-83133459D01*
X43076070Y-83178229D01*
X43026655Y-83188500D01*
X42573832Y-83188500D01*
X42506793Y-83168815D01*
X42486335Y-83150268D01*
X42485388Y-83151216D01*
X42361391Y-83027219D01*
X42361387Y-83027216D01*
X42218295Y-82938955D01*
X42218289Y-82938952D01*
X42218287Y-82938951D01*
X42058685Y-82886064D01*
X42058683Y-82886063D01*
X41960181Y-82876000D01*
X41960174Y-82876000D01*
X41351826Y-82876000D01*
X41351818Y-82876000D01*
X41253316Y-82886063D01*
X41253315Y-82886064D01*
X41174219Y-82912273D01*
X41093715Y-82938950D01*
X41093704Y-82938955D01*
X40950612Y-83027216D01*
X40950608Y-83027219D01*
X40831719Y-83146108D01*
X40831716Y-83146112D01*
X40743455Y-83289204D01*
X40743450Y-83289215D01*
X40731481Y-83325336D01*
X40690564Y-83448815D01*
X40690564Y-83448816D01*
X40690563Y-83448816D01*
X40680500Y-83547318D01*
X40680500Y-84080681D01*
X40690563Y-84179183D01*
X40743450Y-84338784D01*
X40743455Y-84338795D01*
X40831716Y-84481887D01*
X40831719Y-84481891D01*
X40863647Y-84513819D01*
X40897132Y-84575142D01*
X40892148Y-84644834D01*
X40863647Y-84689181D01*
X40831719Y-84721108D01*
X40831716Y-84721112D01*
X40743455Y-84864204D01*
X40743450Y-84864215D01*
X40740090Y-84874355D01*
X40690564Y-85023815D01*
X40690564Y-85023816D01*
X40690563Y-85023816D01*
X40680500Y-85122318D01*
X40680500Y-85655681D01*
X40690563Y-85754183D01*
X40743450Y-85913784D01*
X40743455Y-85913795D01*
X40831716Y-86056887D01*
X40831719Y-86056891D01*
X40950609Y-86175781D01*
X40971597Y-86188727D01*
X41018321Y-86240674D01*
X41030500Y-86294265D01*
X41030500Y-86550000D01*
X41010815Y-86617039D01*
X40958011Y-86662794D01*
X40906500Y-86674000D01*
X40890000Y-86674000D01*
X40890000Y-87750000D01*
X40870315Y-87817039D01*
X40817511Y-87862794D01*
X40766000Y-87874000D01*
X39665001Y-87874000D01*
X39665001Y-87897322D01*
X39675144Y-87996607D01*
X39728452Y-88157481D01*
X39728457Y-88157492D01*
X39817424Y-88301728D01*
X39817427Y-88301732D01*
X39826660Y-88310965D01*
X39860145Y-88372288D01*
X39855161Y-88441980D01*
X39826663Y-88486324D01*
X39817033Y-88495953D01*
X39817029Y-88495959D01*
X39728001Y-88640294D01*
X39727996Y-88640305D01*
X39674651Y-88801290D01*
X39664500Y-88900647D01*
X39664500Y-89447337D01*
X35560500Y-89447337D01*
X35560500Y-87374000D01*
X39665000Y-87374000D01*
X40390000Y-87374000D01*
X40390000Y-86674000D01*
X40389999Y-86673999D01*
X40341693Y-86674000D01*
X40341675Y-86674001D01*
X40242392Y-86684144D01*
X40081518Y-86737452D01*
X40081507Y-86737457D01*
X39937271Y-86826424D01*
X39937267Y-86826427D01*
X39817427Y-86946267D01*
X39817424Y-86946271D01*
X39728457Y-87090507D01*
X39728452Y-87090518D01*
X39675144Y-87251393D01*
X39665000Y-87350677D01*
X39665000Y-87374000D01*
X35560500Y-87374000D01*
X35560500Y-71374000D01*
X39253040Y-71374000D01*
X39272826Y-71562256D01*
X39272827Y-71562259D01*
X39331318Y-71742277D01*
X39331321Y-71742284D01*
X39425967Y-71906216D01*
X39527685Y-72019185D01*
X39552629Y-72046888D01*
X39705765Y-72158148D01*
X39705770Y-72158151D01*
X39878692Y-72235142D01*
X39878697Y-72235144D01*
X40063854Y-72274500D01*
X40063855Y-72274500D01*
X40253144Y-72274500D01*
X40253146Y-72274500D01*
X40438303Y-72235144D01*
X40611230Y-72158151D01*
X40764371Y-72046888D01*
X40767288Y-72043647D01*
X40770100Y-72040526D01*
X40829587Y-72003879D01*
X40862248Y-71999500D01*
X42253752Y-71999500D01*
X42320791Y-72019185D01*
X42345900Y-72040526D01*
X42351626Y-72046885D01*
X42351630Y-72046889D01*
X42504765Y-72158148D01*
X42504770Y-72158151D01*
X42677692Y-72235142D01*
X42677697Y-72235144D01*
X42862854Y-72274500D01*
X42862855Y-72274500D01*
X43052144Y-72274500D01*
X43052146Y-72274500D01*
X43237303Y-72235144D01*
X43410230Y-72158151D01*
X43563371Y-72046888D01*
X43690033Y-71906216D01*
X43784679Y-71742284D01*
X43843174Y-71562256D01*
X43862960Y-71374000D01*
X43843174Y-71185744D01*
X43784679Y-71005716D01*
X43690033Y-70841784D01*
X43563371Y-70701112D01*
X43563370Y-70701111D01*
X43410234Y-70589851D01*
X43410229Y-70589848D01*
X43383652Y-70578015D01*
X52419500Y-70578015D01*
X52430000Y-70680795D01*
X52430001Y-70680797D01*
X52438841Y-70707474D01*
X52485186Y-70847335D01*
X52485187Y-70847337D01*
X52577286Y-70996651D01*
X52577289Y-70996655D01*
X52701344Y-71120710D01*
X52701348Y-71120713D01*
X52850662Y-71212812D01*
X52850664Y-71212813D01*
X52850666Y-71212814D01*
X53017203Y-71267999D01*
X53119992Y-71278500D01*
X53119997Y-71278500D01*
X54220003Y-71278500D01*
X54220008Y-71278500D01*
X54322797Y-71267999D01*
X54489334Y-71212814D01*
X54638655Y-71120711D01*
X54762711Y-70996655D01*
X54854814Y-70847334D01*
X54909999Y-70680797D01*
X54920499Y-70578015D01*
X59119500Y-70578015D01*
X59130000Y-70680795D01*
X59130001Y-70680797D01*
X59138841Y-70707474D01*
X59185186Y-70847335D01*
X59185187Y-70847337D01*
X59277286Y-70996651D01*
X59277289Y-70996655D01*
X59401344Y-71120710D01*
X59401348Y-71120713D01*
X59550662Y-71212812D01*
X59550664Y-71212813D01*
X59550666Y-71212814D01*
X59717203Y-71267999D01*
X59819992Y-71278500D01*
X59819997Y-71278500D01*
X60920003Y-71278500D01*
X60920008Y-71278500D01*
X61022797Y-71267999D01*
X61189334Y-71212814D01*
X61338655Y-71120711D01*
X61462711Y-70996655D01*
X61554814Y-70847334D01*
X61609999Y-70680797D01*
X61620500Y-70578008D01*
X61620500Y-67577992D01*
X61609999Y-67475203D01*
X61554814Y-67308666D01*
X61462711Y-67159345D01*
X61338655Y-67035289D01*
X61338651Y-67035286D01*
X61189337Y-66943187D01*
X61189335Y-66943186D01*
X61106065Y-66915593D01*
X61022797Y-66888001D01*
X61022795Y-66888000D01*
X60920015Y-66877500D01*
X60920008Y-66877500D01*
X59819992Y-66877500D01*
X59819984Y-66877500D01*
X59717204Y-66888000D01*
X59717203Y-66888001D01*
X59550664Y-66943186D01*
X59550662Y-66943187D01*
X59401348Y-67035286D01*
X59401344Y-67035289D01*
X59277289Y-67159344D01*
X59277286Y-67159348D01*
X59185187Y-67308662D01*
X59185186Y-67308664D01*
X59130001Y-67475203D01*
X59130000Y-67475204D01*
X59119500Y-67577984D01*
X59119500Y-70578015D01*
X54920499Y-70578015D01*
X54920500Y-70578008D01*
X54920500Y-67577992D01*
X54909999Y-67475203D01*
X54854814Y-67308666D01*
X54762711Y-67159345D01*
X54638655Y-67035289D01*
X54638651Y-67035286D01*
X54489337Y-66943187D01*
X54489335Y-66943186D01*
X54406065Y-66915593D01*
X54322797Y-66888001D01*
X54322795Y-66888000D01*
X54220015Y-66877500D01*
X54220008Y-66877500D01*
X53119992Y-66877500D01*
X53119984Y-66877500D01*
X53017204Y-66888000D01*
X53017203Y-66888001D01*
X52850664Y-66943186D01*
X52850662Y-66943187D01*
X52701348Y-67035286D01*
X52701344Y-67035289D01*
X52577289Y-67159344D01*
X52577286Y-67159348D01*
X52485187Y-67308662D01*
X52485186Y-67308664D01*
X52430001Y-67475203D01*
X52430000Y-67475204D01*
X52419500Y-67577984D01*
X52419500Y-70578015D01*
X43383652Y-70578015D01*
X43237307Y-70512857D01*
X43237302Y-70512855D01*
X43091500Y-70481865D01*
X43052146Y-70473500D01*
X42862854Y-70473500D01*
X42830397Y-70480398D01*
X42677697Y-70512855D01*
X42677692Y-70512857D01*
X42504770Y-70589848D01*
X42504765Y-70589851D01*
X42351630Y-70701110D01*
X42351626Y-70701114D01*
X42345900Y-70707474D01*
X42286413Y-70744121D01*
X42253752Y-70748500D01*
X40862248Y-70748500D01*
X40795209Y-70728815D01*
X40770100Y-70707474D01*
X40764373Y-70701114D01*
X40764369Y-70701110D01*
X40611234Y-70589851D01*
X40611229Y-70589848D01*
X40438307Y-70512857D01*
X40438302Y-70512855D01*
X40292500Y-70481865D01*
X40253146Y-70473500D01*
X40063854Y-70473500D01*
X40031397Y-70480398D01*
X39878697Y-70512855D01*
X39878692Y-70512857D01*
X39705770Y-70589848D01*
X39705765Y-70589851D01*
X39552629Y-70701111D01*
X39425966Y-70841785D01*
X39331321Y-71005715D01*
X39331318Y-71005722D01*
X39272827Y-71185740D01*
X39272826Y-71185744D01*
X39253040Y-71374000D01*
X35560500Y-71374000D01*
X35560500Y-69149000D01*
X41583001Y-69149000D01*
X41583001Y-69155582D01*
X41589408Y-69226102D01*
X41589409Y-69226107D01*
X41639981Y-69388396D01*
X41727927Y-69533877D01*
X41848122Y-69654072D01*
X41993604Y-69742019D01*
X41993603Y-69742019D01*
X42155894Y-69792590D01*
X42155892Y-69792590D01*
X42226418Y-69798999D01*
X42307999Y-69798998D01*
X42308000Y-69798998D01*
X42308000Y-69149000D01*
X41583001Y-69149000D01*
X35560500Y-69149000D01*
X35560500Y-39563957D01*
X35580185Y-39496918D01*
X35632989Y-39451163D01*
X35702147Y-39441219D01*
X35765703Y-39470244D01*
X35790615Y-39499804D01*
X35802082Y-39518773D01*
X35873473Y-39636868D01*
X36074954Y-39894039D01*
X36305960Y-40125045D01*
X36563131Y-40326526D01*
X36563134Y-40326528D01*
X36563137Y-40326530D01*
X36842721Y-40495545D01*
X37140639Y-40629627D01*
X37140652Y-40629631D01*
X37140657Y-40629633D01*
X37452546Y-40726821D01*
X37452547Y-40726821D01*
X37773896Y-40785710D01*
X38100000Y-40805436D01*
X38426104Y-40785710D01*
X38747453Y-40726821D01*
X39059361Y-40629627D01*
X39357279Y-40495545D01*
X39636863Y-40326530D01*
X39894036Y-40125048D01*
X40125048Y-39894036D01*
X40326530Y-39636863D01*
X40495545Y-39357279D01*
X40629627Y-39059361D01*
X40726821Y-38747453D01*
X40785710Y-38426104D01*
X40805436Y-38100000D01*
X40785710Y-37773896D01*
X40726821Y-37452547D01*
X40629627Y-37140639D01*
X40495545Y-36842721D01*
X40326530Y-36563137D01*
X40326528Y-36563134D01*
X40326526Y-36563131D01*
X40125045Y-36305960D01*
X39894039Y-36074954D01*
X39636868Y-35873473D01*
X39631204Y-35870049D01*
X39499805Y-35790615D01*
X39452620Y-35739089D01*
X39440781Y-35670230D01*
X39468050Y-35605901D01*
X39525768Y-35566527D01*
X39563957Y-35560500D01*
X43563500Y-35560500D01*
X43630539Y-35580185D01*
G37*
%TD.AperFunction*%
%TD*%
%TA.AperFunction,NonConductor*%
G36*
X94615082Y-35580185D02*
G01*
X94660837Y-35632989D01*
X94670781Y-35702147D01*
X94641756Y-35765703D01*
X94612195Y-35790615D01*
X94549759Y-35828359D01*
X94475131Y-35873473D01*
X94217960Y-36074954D01*
X93986954Y-36305960D01*
X93785473Y-36563131D01*
X93616454Y-36842723D01*
X93616453Y-36842725D01*
X93482372Y-37140642D01*
X93482366Y-37140657D01*
X93385178Y-37452547D01*
X93326289Y-37773900D01*
X93306564Y-38100000D01*
X93326289Y-38426099D01*
X93385178Y-38747452D01*
X93482366Y-39059342D01*
X93482370Y-39059354D01*
X93482373Y-39059361D01*
X93616455Y-39357279D01*
X93718311Y-39525768D01*
X93785473Y-39636868D01*
X93986954Y-39894039D01*
X94217960Y-40125045D01*
X94475131Y-40326526D01*
X94475134Y-40326528D01*
X94475137Y-40326530D01*
X94754721Y-40495545D01*
X95052639Y-40629627D01*
X95052652Y-40629631D01*
X95052657Y-40629633D01*
X95364546Y-40726821D01*
X95364547Y-40726821D01*
X95685896Y-40785710D01*
X96012000Y-40805436D01*
X96338104Y-40785710D01*
X96659453Y-40726821D01*
X96971361Y-40629627D01*
X97269279Y-40495545D01*
X97548863Y-40326530D01*
X97806036Y-40125048D01*
X98037048Y-39894036D01*
X98238530Y-39636863D01*
X98321384Y-39499805D01*
X98372911Y-39452620D01*
X98441770Y-39440781D01*
X98506099Y-39468050D01*
X98545473Y-39525768D01*
X98551500Y-39563957D01*
X98551500Y-97596042D01*
X98531815Y-97663081D01*
X98479011Y-97708836D01*
X98409853Y-97718780D01*
X98346297Y-97689755D01*
X98321383Y-97660192D01*
X98315124Y-97649839D01*
X98238530Y-97523137D01*
X98037048Y-97265964D01*
X98037045Y-97265960D01*
X97806039Y-97034954D01*
X97548868Y-96833473D01*
X97523188Y-96817949D01*
X97269279Y-96664455D01*
X96971361Y-96530373D01*
X96971354Y-96530370D01*
X96971342Y-96530366D01*
X96659452Y-96433178D01*
X96338099Y-96374289D01*
X96012000Y-96354564D01*
X95685900Y-96374289D01*
X95364547Y-96433178D01*
X95052657Y-96530366D01*
X95052641Y-96530372D01*
X95052639Y-96530373D01*
X94929130Y-96585960D01*
X94754725Y-96664453D01*
X94754723Y-96664454D01*
X94475131Y-96833473D01*
X94217960Y-97034954D01*
X93986954Y-97265960D01*
X93785473Y-97523131D01*
X93673211Y-97708836D01*
X93616455Y-97802721D01*
X93505690Y-98048832D01*
X93482372Y-98100642D01*
X93482366Y-98100657D01*
X93385178Y-98412547D01*
X93326289Y-98733900D01*
X93306564Y-99060000D01*
X93326289Y-99386099D01*
X93385178Y-99707452D01*
X93482366Y-100019342D01*
X93482370Y-100019354D01*
X93482373Y-100019361D01*
X93616455Y-100317279D01*
X93780901Y-100589306D01*
X93785473Y-100596868D01*
X93986954Y-100854039D01*
X94217960Y-101085045D01*
X94475131Y-101286526D01*
X94475134Y-101286528D01*
X94475137Y-101286530D01*
X94612194Y-101369384D01*
X94659380Y-101420911D01*
X94671219Y-101489770D01*
X94643950Y-101554099D01*
X94586232Y-101593473D01*
X94548043Y-101599500D01*
X72075957Y-101599500D01*
X72008918Y-101579815D01*
X71963163Y-101527011D01*
X71953219Y-101457853D01*
X71982244Y-101394297D01*
X72011804Y-101369384D01*
X72148863Y-101286530D01*
X72406036Y-101085048D01*
X72637048Y-100854036D01*
X72838530Y-100596863D01*
X73007545Y-100317279D01*
X73141627Y-100019361D01*
X73238821Y-99707453D01*
X73297710Y-99386104D01*
X73317436Y-99060000D01*
X73297710Y-98733896D01*
X73238821Y-98412547D01*
X73205489Y-98305579D01*
X73141633Y-98100657D01*
X73141631Y-98100652D01*
X73141627Y-98100639D01*
X73007545Y-97802721D01*
X72838530Y-97523137D01*
X72838528Y-97523134D01*
X72838526Y-97523131D01*
X72637045Y-97265960D01*
X72406039Y-97034954D01*
X72148868Y-96833473D01*
X72123188Y-96817949D01*
X71869279Y-96664455D01*
X71571361Y-96530373D01*
X71571354Y-96530370D01*
X71571342Y-96530366D01*
X71259452Y-96433178D01*
X70938099Y-96374289D01*
X70612000Y-96354564D01*
X70285900Y-96374289D01*
X69964547Y-96433178D01*
X69652657Y-96530366D01*
X69652641Y-96530372D01*
X69652639Y-96530373D01*
X69529130Y-96585960D01*
X69354725Y-96664453D01*
X69354723Y-96664454D01*
X69075131Y-96833473D01*
X68817960Y-97034954D01*
X68586954Y-97265960D01*
X68411591Y-97489795D01*
X68354751Y-97530428D01*
X68284966Y-97533880D01*
X68224394Y-97499056D01*
X68209667Y-97480365D01*
X68203028Y-97470034D01*
X68183347Y-97402995D01*
X68203032Y-97335960D01*
X68265953Y-97238053D01*
X68306500Y-97099961D01*
X68306500Y-96956039D01*
X68265953Y-96817947D01*
X68203031Y-96720039D01*
X68183347Y-96653000D01*
X68203032Y-96585961D01*
X68203032Y-96585960D01*
X68265953Y-96488053D01*
X68306500Y-96349961D01*
X68306500Y-96206039D01*
X68265953Y-96067947D01*
X68188143Y-95946872D01*
X68114796Y-95883317D01*
X68077023Y-95824540D01*
X68072000Y-95789605D01*
X68072000Y-95098451D01*
X68072265Y-95092722D01*
X68072500Y-95090188D01*
X68072500Y-42069804D01*
X68072265Y-42067267D01*
X68072000Y-42061544D01*
X68072000Y-41370394D01*
X68091685Y-41303355D01*
X68114793Y-41276685D01*
X68188143Y-41213128D01*
X68265953Y-41092053D01*
X68306500Y-40953961D01*
X68306500Y-40810039D01*
X68265953Y-40671947D01*
X68203031Y-40574039D01*
X68183347Y-40507000D01*
X68203032Y-40439961D01*
X68203032Y-40439960D01*
X68265953Y-40342053D01*
X68306500Y-40203961D01*
X68306500Y-40060039D01*
X68265953Y-39921947D01*
X68203031Y-39824038D01*
X68183347Y-39756999D01*
X68203027Y-39689966D01*
X68209665Y-39679637D01*
X68262464Y-39633885D01*
X68331622Y-39623938D01*
X68395179Y-39652961D01*
X68411591Y-39670204D01*
X68586954Y-39894039D01*
X68817960Y-40125045D01*
X69075131Y-40326526D01*
X69075134Y-40326528D01*
X69075137Y-40326530D01*
X69354721Y-40495545D01*
X69652639Y-40629627D01*
X69652652Y-40629631D01*
X69652657Y-40629633D01*
X69964546Y-40726821D01*
X69964547Y-40726821D01*
X70285896Y-40785710D01*
X70612000Y-40805436D01*
X70938104Y-40785710D01*
X71259453Y-40726821D01*
X71571361Y-40629627D01*
X71869279Y-40495545D01*
X72148863Y-40326530D01*
X72406036Y-40125048D01*
X72637048Y-39894036D01*
X72838530Y-39636863D01*
X73007545Y-39357279D01*
X73141627Y-39059361D01*
X73238821Y-38747453D01*
X73297710Y-38426104D01*
X73317436Y-38100000D01*
X73297710Y-37773896D01*
X73238821Y-37452547D01*
X73141627Y-37140639D01*
X73007545Y-36842721D01*
X72838530Y-36563137D01*
X72838528Y-36563134D01*
X72838526Y-36563131D01*
X72637045Y-36305960D01*
X72406039Y-36074954D01*
X72148868Y-35873473D01*
X72143204Y-35870049D01*
X72011805Y-35790615D01*
X71964620Y-35739089D01*
X71952781Y-35670230D01*
X71980050Y-35605901D01*
X72037768Y-35566527D01*
X72075957Y-35560500D01*
X94548043Y-35560500D01*
X94615082Y-35580185D01*
G37*
%TD.AperFunction*%
M02*
