%TF.GenerationSoftware,KiCad,Pcbnew,7.0.7*%
%TF.CreationDate,2023-08-25T22:34:50+10:00*%
%TF.ProjectId,SuperMini-EPD-Sheild,53757065-724d-4696-9e69-2d4550442d53,rev?*%
%TF.SameCoordinates,Original*%
%TF.FileFunction,Drillmap*%
%TF.FilePolarity,Positive*%
%FSLAX45Y45*%
G04 Gerber Fmt 4.5, Leading zero omitted, Abs format (unit mm)*
G04 Created by KiCad (PCBNEW 7.0.7) date 2023-08-25 22:34:50*
%MOMM*%
%LPD*%
G01*
G04 APERTURE LIST*
%ADD10C,0.100000*%
%ADD11C,0.200000*%
%ADD12C,0.050000*%
G04 APERTURE END LIST*
D10*
X9601200Y-10160000D02*
X7061200Y-10160000D01*
X9855200Y-9906000D02*
X9855200Y-3810000D01*
X6807200Y-9906000D02*
G75*
G03*
X7061200Y-10160000I254000J0D01*
G01*
X9601200Y-10160000D02*
G75*
G03*
X9855200Y-9906000I0J254000D01*
G01*
X9601200Y-3556000D02*
X7061200Y-3556000D01*
X9855200Y-3810000D02*
G75*
G03*
X9601200Y-3556000I-254000J0D01*
G01*
X6807200Y-4216400D02*
X6807200Y-9499600D01*
X7061200Y-3556000D02*
G75*
G03*
X6807200Y-3810000I0J-254000D01*
G01*
X3810000Y-3556000D02*
G75*
G03*
X3556000Y-3810000I0J-254000D01*
G01*
X5842000Y-9652000D02*
X5842000Y-10160000D01*
X4318000Y-9652000D02*
X5842000Y-9652000D01*
X4368800Y-5943600D02*
X5791200Y-5943600D01*
X3556000Y-3810000D02*
X3556000Y-9906000D01*
X6350000Y-10160000D02*
X5842000Y-10160000D01*
X6604000Y-3810000D02*
G75*
G03*
X6350000Y-3556000I-254000J0D01*
G01*
X6350000Y-3556000D02*
X5791200Y-3556000D01*
X4368800Y-3556000D02*
X4368800Y-5943600D01*
X4368800Y-3556000D02*
X3810000Y-3556000D01*
X6350000Y-10160000D02*
G75*
G03*
X6604000Y-9906000I0J254000D01*
G01*
X3556000Y-9906000D02*
G75*
G03*
X3810000Y-10160000I254000J0D01*
G01*
X6604000Y-9499600D02*
X6604000Y-4216400D01*
X4318000Y-10160000D02*
X3810000Y-10160000D01*
X4318000Y-10160000D02*
X4318000Y-9652000D01*
X5791200Y-5943600D02*
X5791200Y-3556000D01*
D11*
D12*
X6605600Y-3913200D02*
X6655600Y-3963200D01*
X6655600Y-3913200D02*
X6605600Y-3963200D01*
X6605600Y-3988200D02*
X6655600Y-4038200D01*
X6655600Y-3988200D02*
X6605600Y-4038200D01*
X6605600Y-4063200D02*
X6655600Y-4113200D01*
X6655600Y-4063200D02*
X6605600Y-4113200D01*
X6605600Y-9602800D02*
X6655600Y-9652800D01*
X6655600Y-9602800D02*
X6605600Y-9652800D01*
X6605600Y-9677800D02*
X6655600Y-9727800D01*
X6655600Y-9677800D02*
X6605600Y-9727800D01*
X6605600Y-9752800D02*
X6655600Y-9802800D01*
X6655600Y-9752800D02*
X6605600Y-9802800D01*
X6755600Y-3913200D02*
X6805600Y-3963200D01*
X6805600Y-3913200D02*
X6755600Y-3963200D01*
X6755600Y-3988200D02*
X6805600Y-4038200D01*
X6805600Y-3988200D02*
X6755600Y-4038200D01*
X6755600Y-4063200D02*
X6805600Y-4113200D01*
X6805600Y-4063200D02*
X6755600Y-4113200D01*
X6755600Y-9602800D02*
X6805600Y-9652800D01*
X6805600Y-9602800D02*
X6755600Y-9652800D01*
X6755600Y-9677800D02*
X6805600Y-9727800D01*
X6805600Y-9677800D02*
X6755600Y-9727800D01*
X6755600Y-9752800D02*
X6805600Y-9802800D01*
X6805600Y-9752800D02*
X6755600Y-9802800D01*
D11*
X3811777Y-10476484D02*
X3811777Y-10276484D01*
X3811777Y-10276484D02*
X3859396Y-10276484D01*
X3859396Y-10276484D02*
X3887967Y-10286008D01*
X3887967Y-10286008D02*
X3907015Y-10305055D01*
X3907015Y-10305055D02*
X3916539Y-10324103D01*
X3916539Y-10324103D02*
X3926062Y-10362198D01*
X3926062Y-10362198D02*
X3926062Y-10390770D01*
X3926062Y-10390770D02*
X3916539Y-10428865D01*
X3916539Y-10428865D02*
X3907015Y-10447912D01*
X3907015Y-10447912D02*
X3887967Y-10466960D01*
X3887967Y-10466960D02*
X3859396Y-10476484D01*
X3859396Y-10476484D02*
X3811777Y-10476484D01*
X4011777Y-10476484D02*
X4011777Y-10343150D01*
X4011777Y-10381246D02*
X4021301Y-10362198D01*
X4021301Y-10362198D02*
X4030824Y-10352674D01*
X4030824Y-10352674D02*
X4049872Y-10343150D01*
X4049872Y-10343150D02*
X4068920Y-10343150D01*
X4135586Y-10476484D02*
X4135586Y-10343150D01*
X4135586Y-10276484D02*
X4126062Y-10286008D01*
X4126062Y-10286008D02*
X4135586Y-10295531D01*
X4135586Y-10295531D02*
X4145110Y-10286008D01*
X4145110Y-10286008D02*
X4135586Y-10276484D01*
X4135586Y-10276484D02*
X4135586Y-10295531D01*
X4259396Y-10476484D02*
X4240348Y-10466960D01*
X4240348Y-10466960D02*
X4230824Y-10447912D01*
X4230824Y-10447912D02*
X4230824Y-10276484D01*
X4364158Y-10476484D02*
X4345110Y-10466960D01*
X4345110Y-10466960D02*
X4335586Y-10447912D01*
X4335586Y-10447912D02*
X4335586Y-10276484D01*
X4592729Y-10476484D02*
X4592729Y-10276484D01*
X4592729Y-10276484D02*
X4659396Y-10419341D01*
X4659396Y-10419341D02*
X4726063Y-10276484D01*
X4726063Y-10276484D02*
X4726063Y-10476484D01*
X4907015Y-10476484D02*
X4907015Y-10371722D01*
X4907015Y-10371722D02*
X4897491Y-10352674D01*
X4897491Y-10352674D02*
X4878444Y-10343150D01*
X4878444Y-10343150D02*
X4840348Y-10343150D01*
X4840348Y-10343150D02*
X4821301Y-10352674D01*
X4907015Y-10466960D02*
X4887967Y-10476484D01*
X4887967Y-10476484D02*
X4840348Y-10476484D01*
X4840348Y-10476484D02*
X4821301Y-10466960D01*
X4821301Y-10466960D02*
X4811777Y-10447912D01*
X4811777Y-10447912D02*
X4811777Y-10428865D01*
X4811777Y-10428865D02*
X4821301Y-10409817D01*
X4821301Y-10409817D02*
X4840348Y-10400293D01*
X4840348Y-10400293D02*
X4887967Y-10400293D01*
X4887967Y-10400293D02*
X4907015Y-10390770D01*
X5002253Y-10343150D02*
X5002253Y-10543150D01*
X5002253Y-10352674D02*
X5021301Y-10343150D01*
X5021301Y-10343150D02*
X5059396Y-10343150D01*
X5059396Y-10343150D02*
X5078444Y-10352674D01*
X5078444Y-10352674D02*
X5087967Y-10362198D01*
X5087967Y-10362198D02*
X5097491Y-10381246D01*
X5097491Y-10381246D02*
X5097491Y-10438389D01*
X5097491Y-10438389D02*
X5087967Y-10457436D01*
X5087967Y-10457436D02*
X5078444Y-10466960D01*
X5078444Y-10466960D02*
X5059396Y-10476484D01*
X5059396Y-10476484D02*
X5021301Y-10476484D01*
X5021301Y-10476484D02*
X5002253Y-10466960D01*
X5183205Y-10457436D02*
X5192729Y-10466960D01*
X5192729Y-10466960D02*
X5183205Y-10476484D01*
X5183205Y-10476484D02*
X5173682Y-10466960D01*
X5173682Y-10466960D02*
X5183205Y-10457436D01*
X5183205Y-10457436D02*
X5183205Y-10476484D01*
X5183205Y-10352674D02*
X5192729Y-10362198D01*
X5192729Y-10362198D02*
X5183205Y-10371722D01*
X5183205Y-10371722D02*
X5173682Y-10362198D01*
X5173682Y-10362198D02*
X5183205Y-10352674D01*
X5183205Y-10352674D02*
X5183205Y-10371722D01*
D12*
X3501000Y-10780000D02*
X3551000Y-10830000D01*
X3551000Y-10780000D02*
X3501000Y-10830000D01*
D11*
X3849872Y-10696484D02*
X3868920Y-10696484D01*
X3868920Y-10696484D02*
X3887967Y-10706008D01*
X3887967Y-10706008D02*
X3897491Y-10715531D01*
X3897491Y-10715531D02*
X3907015Y-10734579D01*
X3907015Y-10734579D02*
X3916539Y-10772674D01*
X3916539Y-10772674D02*
X3916539Y-10820293D01*
X3916539Y-10820293D02*
X3907015Y-10858389D01*
X3907015Y-10858389D02*
X3897491Y-10877436D01*
X3897491Y-10877436D02*
X3887967Y-10886960D01*
X3887967Y-10886960D02*
X3868920Y-10896484D01*
X3868920Y-10896484D02*
X3849872Y-10896484D01*
X3849872Y-10896484D02*
X3830824Y-10886960D01*
X3830824Y-10886960D02*
X3821301Y-10877436D01*
X3821301Y-10877436D02*
X3811777Y-10858389D01*
X3811777Y-10858389D02*
X3802253Y-10820293D01*
X3802253Y-10820293D02*
X3802253Y-10772674D01*
X3802253Y-10772674D02*
X3811777Y-10734579D01*
X3811777Y-10734579D02*
X3821301Y-10715531D01*
X3821301Y-10715531D02*
X3830824Y-10706008D01*
X3830824Y-10706008D02*
X3849872Y-10696484D01*
X4002253Y-10877436D02*
X4011777Y-10886960D01*
X4011777Y-10886960D02*
X4002253Y-10896484D01*
X4002253Y-10896484D02*
X3992729Y-10886960D01*
X3992729Y-10886960D02*
X4002253Y-10877436D01*
X4002253Y-10877436D02*
X4002253Y-10896484D01*
X4192729Y-10696484D02*
X4097491Y-10696484D01*
X4097491Y-10696484D02*
X4087967Y-10791722D01*
X4087967Y-10791722D02*
X4097491Y-10782198D01*
X4097491Y-10782198D02*
X4116539Y-10772674D01*
X4116539Y-10772674D02*
X4164158Y-10772674D01*
X4164158Y-10772674D02*
X4183205Y-10782198D01*
X4183205Y-10782198D02*
X4192729Y-10791722D01*
X4192729Y-10791722D02*
X4202253Y-10810770D01*
X4202253Y-10810770D02*
X4202253Y-10858389D01*
X4202253Y-10858389D02*
X4192729Y-10877436D01*
X4192729Y-10877436D02*
X4183205Y-10886960D01*
X4183205Y-10886960D02*
X4164158Y-10896484D01*
X4164158Y-10896484D02*
X4116539Y-10896484D01*
X4116539Y-10896484D02*
X4097491Y-10886960D01*
X4097491Y-10886960D02*
X4087967Y-10877436D01*
X4326063Y-10696484D02*
X4345110Y-10696484D01*
X4345110Y-10696484D02*
X4364158Y-10706008D01*
X4364158Y-10706008D02*
X4373682Y-10715531D01*
X4373682Y-10715531D02*
X4383205Y-10734579D01*
X4383205Y-10734579D02*
X4392729Y-10772674D01*
X4392729Y-10772674D02*
X4392729Y-10820293D01*
X4392729Y-10820293D02*
X4383205Y-10858389D01*
X4383205Y-10858389D02*
X4373682Y-10877436D01*
X4373682Y-10877436D02*
X4364158Y-10886960D01*
X4364158Y-10886960D02*
X4345110Y-10896484D01*
X4345110Y-10896484D02*
X4326063Y-10896484D01*
X4326063Y-10896484D02*
X4307015Y-10886960D01*
X4307015Y-10886960D02*
X4297491Y-10877436D01*
X4297491Y-10877436D02*
X4287967Y-10858389D01*
X4287967Y-10858389D02*
X4278444Y-10820293D01*
X4278444Y-10820293D02*
X4278444Y-10772674D01*
X4278444Y-10772674D02*
X4287967Y-10734579D01*
X4287967Y-10734579D02*
X4297491Y-10715531D01*
X4297491Y-10715531D02*
X4307015Y-10706008D01*
X4307015Y-10706008D02*
X4326063Y-10696484D01*
X4516539Y-10696484D02*
X4535586Y-10696484D01*
X4535586Y-10696484D02*
X4554634Y-10706008D01*
X4554634Y-10706008D02*
X4564158Y-10715531D01*
X4564158Y-10715531D02*
X4573682Y-10734579D01*
X4573682Y-10734579D02*
X4583205Y-10772674D01*
X4583205Y-10772674D02*
X4583205Y-10820293D01*
X4583205Y-10820293D02*
X4573682Y-10858389D01*
X4573682Y-10858389D02*
X4564158Y-10877436D01*
X4564158Y-10877436D02*
X4554634Y-10886960D01*
X4554634Y-10886960D02*
X4535586Y-10896484D01*
X4535586Y-10896484D02*
X4516539Y-10896484D01*
X4516539Y-10896484D02*
X4497491Y-10886960D01*
X4497491Y-10886960D02*
X4487967Y-10877436D01*
X4487967Y-10877436D02*
X4478444Y-10858389D01*
X4478444Y-10858389D02*
X4468920Y-10820293D01*
X4468920Y-10820293D02*
X4468920Y-10772674D01*
X4468920Y-10772674D02*
X4478444Y-10734579D01*
X4478444Y-10734579D02*
X4487967Y-10715531D01*
X4487967Y-10715531D02*
X4497491Y-10706008D01*
X4497491Y-10706008D02*
X4516539Y-10696484D01*
X4668920Y-10896484D02*
X4668920Y-10763150D01*
X4668920Y-10782198D02*
X4678444Y-10772674D01*
X4678444Y-10772674D02*
X4697491Y-10763150D01*
X4697491Y-10763150D02*
X4726063Y-10763150D01*
X4726063Y-10763150D02*
X4745110Y-10772674D01*
X4745110Y-10772674D02*
X4754634Y-10791722D01*
X4754634Y-10791722D02*
X4754634Y-10896484D01*
X4754634Y-10791722D02*
X4764158Y-10772674D01*
X4764158Y-10772674D02*
X4783205Y-10763150D01*
X4783205Y-10763150D02*
X4811777Y-10763150D01*
X4811777Y-10763150D02*
X4830825Y-10772674D01*
X4830825Y-10772674D02*
X4840348Y-10791722D01*
X4840348Y-10791722D02*
X4840348Y-10896484D01*
X4935586Y-10896484D02*
X4935586Y-10763150D01*
X4935586Y-10782198D02*
X4945110Y-10772674D01*
X4945110Y-10772674D02*
X4964158Y-10763150D01*
X4964158Y-10763150D02*
X4992729Y-10763150D01*
X4992729Y-10763150D02*
X5011777Y-10772674D01*
X5011777Y-10772674D02*
X5021301Y-10791722D01*
X5021301Y-10791722D02*
X5021301Y-10896484D01*
X5021301Y-10791722D02*
X5030825Y-10772674D01*
X5030825Y-10772674D02*
X5049872Y-10763150D01*
X5049872Y-10763150D02*
X5078444Y-10763150D01*
X5078444Y-10763150D02*
X5097491Y-10772674D01*
X5097491Y-10772674D02*
X5107015Y-10791722D01*
X5107015Y-10791722D02*
X5107015Y-10896484D01*
X5497491Y-10686960D02*
X5326063Y-10944103D01*
X5754634Y-10696484D02*
X5773682Y-10696484D01*
X5773682Y-10696484D02*
X5792729Y-10706008D01*
X5792729Y-10706008D02*
X5802253Y-10715531D01*
X5802253Y-10715531D02*
X5811777Y-10734579D01*
X5811777Y-10734579D02*
X5821301Y-10772674D01*
X5821301Y-10772674D02*
X5821301Y-10820293D01*
X5821301Y-10820293D02*
X5811777Y-10858389D01*
X5811777Y-10858389D02*
X5802253Y-10877436D01*
X5802253Y-10877436D02*
X5792729Y-10886960D01*
X5792729Y-10886960D02*
X5773682Y-10896484D01*
X5773682Y-10896484D02*
X5754634Y-10896484D01*
X5754634Y-10896484D02*
X5735586Y-10886960D01*
X5735586Y-10886960D02*
X5726063Y-10877436D01*
X5726063Y-10877436D02*
X5716539Y-10858389D01*
X5716539Y-10858389D02*
X5707015Y-10820293D01*
X5707015Y-10820293D02*
X5707015Y-10772674D01*
X5707015Y-10772674D02*
X5716539Y-10734579D01*
X5716539Y-10734579D02*
X5726063Y-10715531D01*
X5726063Y-10715531D02*
X5735586Y-10706008D01*
X5735586Y-10706008D02*
X5754634Y-10696484D01*
X5907015Y-10877436D02*
X5916539Y-10886960D01*
X5916539Y-10886960D02*
X5907015Y-10896484D01*
X5907015Y-10896484D02*
X5897491Y-10886960D01*
X5897491Y-10886960D02*
X5907015Y-10877436D01*
X5907015Y-10877436D02*
X5907015Y-10896484D01*
X6040348Y-10696484D02*
X6059396Y-10696484D01*
X6059396Y-10696484D02*
X6078444Y-10706008D01*
X6078444Y-10706008D02*
X6087967Y-10715531D01*
X6087967Y-10715531D02*
X6097491Y-10734579D01*
X6097491Y-10734579D02*
X6107015Y-10772674D01*
X6107015Y-10772674D02*
X6107015Y-10820293D01*
X6107015Y-10820293D02*
X6097491Y-10858389D01*
X6097491Y-10858389D02*
X6087967Y-10877436D01*
X6087967Y-10877436D02*
X6078444Y-10886960D01*
X6078444Y-10886960D02*
X6059396Y-10896484D01*
X6059396Y-10896484D02*
X6040348Y-10896484D01*
X6040348Y-10896484D02*
X6021301Y-10886960D01*
X6021301Y-10886960D02*
X6011777Y-10877436D01*
X6011777Y-10877436D02*
X6002253Y-10858389D01*
X6002253Y-10858389D02*
X5992729Y-10820293D01*
X5992729Y-10820293D02*
X5992729Y-10772674D01*
X5992729Y-10772674D02*
X6002253Y-10734579D01*
X6002253Y-10734579D02*
X6011777Y-10715531D01*
X6011777Y-10715531D02*
X6021301Y-10706008D01*
X6021301Y-10706008D02*
X6040348Y-10696484D01*
X6297491Y-10896484D02*
X6183206Y-10896484D01*
X6240348Y-10896484D02*
X6240348Y-10696484D01*
X6240348Y-10696484D02*
X6221301Y-10725055D01*
X6221301Y-10725055D02*
X6202253Y-10744103D01*
X6202253Y-10744103D02*
X6183206Y-10753627D01*
X6392729Y-10896484D02*
X6430825Y-10896484D01*
X6430825Y-10896484D02*
X6449872Y-10886960D01*
X6449872Y-10886960D02*
X6459396Y-10877436D01*
X6459396Y-10877436D02*
X6478444Y-10848865D01*
X6478444Y-10848865D02*
X6487967Y-10810770D01*
X6487967Y-10810770D02*
X6487967Y-10734579D01*
X6487967Y-10734579D02*
X6478444Y-10715531D01*
X6478444Y-10715531D02*
X6468920Y-10706008D01*
X6468920Y-10706008D02*
X6449872Y-10696484D01*
X6449872Y-10696484D02*
X6411777Y-10696484D01*
X6411777Y-10696484D02*
X6392729Y-10706008D01*
X6392729Y-10706008D02*
X6383206Y-10715531D01*
X6383206Y-10715531D02*
X6373682Y-10734579D01*
X6373682Y-10734579D02*
X6373682Y-10782198D01*
X6373682Y-10782198D02*
X6383206Y-10801246D01*
X6383206Y-10801246D02*
X6392729Y-10810770D01*
X6392729Y-10810770D02*
X6411777Y-10820293D01*
X6411777Y-10820293D02*
X6449872Y-10820293D01*
X6449872Y-10820293D02*
X6468920Y-10810770D01*
X6468920Y-10810770D02*
X6478444Y-10801246D01*
X6478444Y-10801246D02*
X6487967Y-10782198D01*
X6554634Y-10696484D02*
X6687967Y-10696484D01*
X6687967Y-10696484D02*
X6602253Y-10896484D01*
X6754634Y-10696484D02*
X6754634Y-10734579D01*
X6830825Y-10696484D02*
X6830825Y-10734579D01*
X7126063Y-10972674D02*
X7116539Y-10963150D01*
X7116539Y-10963150D02*
X7097491Y-10934579D01*
X7097491Y-10934579D02*
X7087968Y-10915531D01*
X7087968Y-10915531D02*
X7078444Y-10886960D01*
X7078444Y-10886960D02*
X7068920Y-10839341D01*
X7068920Y-10839341D02*
X7068920Y-10801246D01*
X7068920Y-10801246D02*
X7078444Y-10753627D01*
X7078444Y-10753627D02*
X7087968Y-10725055D01*
X7087968Y-10725055D02*
X7097491Y-10706008D01*
X7097491Y-10706008D02*
X7116539Y-10677436D01*
X7116539Y-10677436D02*
X7126063Y-10667912D01*
X7307015Y-10896484D02*
X7192729Y-10896484D01*
X7249872Y-10896484D02*
X7249872Y-10696484D01*
X7249872Y-10696484D02*
X7230825Y-10725055D01*
X7230825Y-10725055D02*
X7211777Y-10744103D01*
X7211777Y-10744103D02*
X7192729Y-10753627D01*
X7383206Y-10715531D02*
X7392729Y-10706008D01*
X7392729Y-10706008D02*
X7411777Y-10696484D01*
X7411777Y-10696484D02*
X7459396Y-10696484D01*
X7459396Y-10696484D02*
X7478444Y-10706008D01*
X7478444Y-10706008D02*
X7487968Y-10715531D01*
X7487968Y-10715531D02*
X7497491Y-10734579D01*
X7497491Y-10734579D02*
X7497491Y-10753627D01*
X7497491Y-10753627D02*
X7487968Y-10782198D01*
X7487968Y-10782198D02*
X7373682Y-10896484D01*
X7373682Y-10896484D02*
X7497491Y-10896484D01*
X7735587Y-10896484D02*
X7735587Y-10696484D01*
X7821301Y-10896484D02*
X7821301Y-10791722D01*
X7821301Y-10791722D02*
X7811777Y-10772674D01*
X7811777Y-10772674D02*
X7792730Y-10763150D01*
X7792730Y-10763150D02*
X7764158Y-10763150D01*
X7764158Y-10763150D02*
X7745110Y-10772674D01*
X7745110Y-10772674D02*
X7735587Y-10782198D01*
X7945110Y-10896484D02*
X7926063Y-10886960D01*
X7926063Y-10886960D02*
X7916539Y-10877436D01*
X7916539Y-10877436D02*
X7907015Y-10858389D01*
X7907015Y-10858389D02*
X7907015Y-10801246D01*
X7907015Y-10801246D02*
X7916539Y-10782198D01*
X7916539Y-10782198D02*
X7926063Y-10772674D01*
X7926063Y-10772674D02*
X7945110Y-10763150D01*
X7945110Y-10763150D02*
X7973682Y-10763150D01*
X7973682Y-10763150D02*
X7992730Y-10772674D01*
X7992730Y-10772674D02*
X8002253Y-10782198D01*
X8002253Y-10782198D02*
X8011777Y-10801246D01*
X8011777Y-10801246D02*
X8011777Y-10858389D01*
X8011777Y-10858389D02*
X8002253Y-10877436D01*
X8002253Y-10877436D02*
X7992730Y-10886960D01*
X7992730Y-10886960D02*
X7973682Y-10896484D01*
X7973682Y-10896484D02*
X7945110Y-10896484D01*
X8126063Y-10896484D02*
X8107015Y-10886960D01*
X8107015Y-10886960D02*
X8097491Y-10867912D01*
X8097491Y-10867912D02*
X8097491Y-10696484D01*
X8278444Y-10886960D02*
X8259396Y-10896484D01*
X8259396Y-10896484D02*
X8221301Y-10896484D01*
X8221301Y-10896484D02*
X8202253Y-10886960D01*
X8202253Y-10886960D02*
X8192730Y-10867912D01*
X8192730Y-10867912D02*
X8192730Y-10791722D01*
X8192730Y-10791722D02*
X8202253Y-10772674D01*
X8202253Y-10772674D02*
X8221301Y-10763150D01*
X8221301Y-10763150D02*
X8259396Y-10763150D01*
X8259396Y-10763150D02*
X8278444Y-10772674D01*
X8278444Y-10772674D02*
X8287968Y-10791722D01*
X8287968Y-10791722D02*
X8287968Y-10810770D01*
X8287968Y-10810770D02*
X8192730Y-10829817D01*
X8364158Y-10886960D02*
X8383206Y-10896484D01*
X8383206Y-10896484D02*
X8421301Y-10896484D01*
X8421301Y-10896484D02*
X8440349Y-10886960D01*
X8440349Y-10886960D02*
X8449873Y-10867912D01*
X8449873Y-10867912D02*
X8449873Y-10858389D01*
X8449873Y-10858389D02*
X8440349Y-10839341D01*
X8440349Y-10839341D02*
X8421301Y-10829817D01*
X8421301Y-10829817D02*
X8392730Y-10829817D01*
X8392730Y-10829817D02*
X8373682Y-10820293D01*
X8373682Y-10820293D02*
X8364158Y-10801246D01*
X8364158Y-10801246D02*
X8364158Y-10791722D01*
X8364158Y-10791722D02*
X8373682Y-10772674D01*
X8373682Y-10772674D02*
X8392730Y-10763150D01*
X8392730Y-10763150D02*
X8421301Y-10763150D01*
X8421301Y-10763150D02*
X8440349Y-10772674D01*
X8516539Y-10972674D02*
X8526063Y-10963150D01*
X8526063Y-10963150D02*
X8545111Y-10934579D01*
X8545111Y-10934579D02*
X8554634Y-10915531D01*
X8554634Y-10915531D02*
X8564158Y-10886960D01*
X8564158Y-10886960D02*
X8573682Y-10839341D01*
X8573682Y-10839341D02*
X8573682Y-10801246D01*
X8573682Y-10801246D02*
X8564158Y-10753627D01*
X8564158Y-10753627D02*
X8554634Y-10725055D01*
X8554634Y-10725055D02*
X8545111Y-10706008D01*
X8545111Y-10706008D02*
X8526063Y-10677436D01*
X8526063Y-10677436D02*
X8516539Y-10667912D01*
X8878444Y-10972674D02*
X8868920Y-10963150D01*
X8868920Y-10963150D02*
X8849873Y-10934579D01*
X8849873Y-10934579D02*
X8840349Y-10915531D01*
X8840349Y-10915531D02*
X8830825Y-10886960D01*
X8830825Y-10886960D02*
X8821301Y-10839341D01*
X8821301Y-10839341D02*
X8821301Y-10801246D01*
X8821301Y-10801246D02*
X8830825Y-10753627D01*
X8830825Y-10753627D02*
X8840349Y-10725055D01*
X8840349Y-10725055D02*
X8849873Y-10706008D01*
X8849873Y-10706008D02*
X8868920Y-10677436D01*
X8868920Y-10677436D02*
X8878444Y-10667912D01*
X8954634Y-10763150D02*
X8954634Y-10896484D01*
X8954634Y-10782198D02*
X8964158Y-10772674D01*
X8964158Y-10772674D02*
X8983206Y-10763150D01*
X8983206Y-10763150D02*
X9011777Y-10763150D01*
X9011777Y-10763150D02*
X9030825Y-10772674D01*
X9030825Y-10772674D02*
X9040349Y-10791722D01*
X9040349Y-10791722D02*
X9040349Y-10896484D01*
X9164158Y-10896484D02*
X9145111Y-10886960D01*
X9145111Y-10886960D02*
X9135587Y-10877436D01*
X9135587Y-10877436D02*
X9126063Y-10858389D01*
X9126063Y-10858389D02*
X9126063Y-10801246D01*
X9126063Y-10801246D02*
X9135587Y-10782198D01*
X9135587Y-10782198D02*
X9145111Y-10772674D01*
X9145111Y-10772674D02*
X9164158Y-10763150D01*
X9164158Y-10763150D02*
X9192730Y-10763150D01*
X9192730Y-10763150D02*
X9211777Y-10772674D01*
X9211777Y-10772674D02*
X9221301Y-10782198D01*
X9221301Y-10782198D02*
X9230825Y-10801246D01*
X9230825Y-10801246D02*
X9230825Y-10858389D01*
X9230825Y-10858389D02*
X9221301Y-10877436D01*
X9221301Y-10877436D02*
X9211777Y-10886960D01*
X9211777Y-10886960D02*
X9192730Y-10896484D01*
X9192730Y-10896484D02*
X9164158Y-10896484D01*
X9287968Y-10763150D02*
X9364158Y-10763150D01*
X9316539Y-10696484D02*
X9316539Y-10867912D01*
X9316539Y-10867912D02*
X9326063Y-10886960D01*
X9326063Y-10886960D02*
X9345111Y-10896484D01*
X9345111Y-10896484D02*
X9364158Y-10896484D01*
X9583206Y-10763150D02*
X9583206Y-10963150D01*
X9583206Y-10772674D02*
X9602254Y-10763150D01*
X9602254Y-10763150D02*
X9640349Y-10763150D01*
X9640349Y-10763150D02*
X9659396Y-10772674D01*
X9659396Y-10772674D02*
X9668920Y-10782198D01*
X9668920Y-10782198D02*
X9678444Y-10801246D01*
X9678444Y-10801246D02*
X9678444Y-10858389D01*
X9678444Y-10858389D02*
X9668920Y-10877436D01*
X9668920Y-10877436D02*
X9659396Y-10886960D01*
X9659396Y-10886960D02*
X9640349Y-10896484D01*
X9640349Y-10896484D02*
X9602254Y-10896484D01*
X9602254Y-10896484D02*
X9583206Y-10886960D01*
X9792730Y-10896484D02*
X9773682Y-10886960D01*
X9773682Y-10886960D02*
X9764158Y-10867912D01*
X9764158Y-10867912D02*
X9764158Y-10696484D01*
X9954635Y-10896484D02*
X9954635Y-10791722D01*
X9954635Y-10791722D02*
X9945111Y-10772674D01*
X9945111Y-10772674D02*
X9926063Y-10763150D01*
X9926063Y-10763150D02*
X9887968Y-10763150D01*
X9887968Y-10763150D02*
X9868920Y-10772674D01*
X9954635Y-10886960D02*
X9935587Y-10896484D01*
X9935587Y-10896484D02*
X9887968Y-10896484D01*
X9887968Y-10896484D02*
X9868920Y-10886960D01*
X9868920Y-10886960D02*
X9859396Y-10867912D01*
X9859396Y-10867912D02*
X9859396Y-10848865D01*
X9859396Y-10848865D02*
X9868920Y-10829817D01*
X9868920Y-10829817D02*
X9887968Y-10820293D01*
X9887968Y-10820293D02*
X9935587Y-10820293D01*
X9935587Y-10820293D02*
X9954635Y-10810770D01*
X10021301Y-10763150D02*
X10097492Y-10763150D01*
X10049873Y-10696484D02*
X10049873Y-10867912D01*
X10049873Y-10867912D02*
X10059396Y-10886960D01*
X10059396Y-10886960D02*
X10078444Y-10896484D01*
X10078444Y-10896484D02*
X10097492Y-10896484D01*
X10240349Y-10886960D02*
X10221301Y-10896484D01*
X10221301Y-10896484D02*
X10183206Y-10896484D01*
X10183206Y-10896484D02*
X10164158Y-10886960D01*
X10164158Y-10886960D02*
X10154635Y-10867912D01*
X10154635Y-10867912D02*
X10154635Y-10791722D01*
X10154635Y-10791722D02*
X10164158Y-10772674D01*
X10164158Y-10772674D02*
X10183206Y-10763150D01*
X10183206Y-10763150D02*
X10221301Y-10763150D01*
X10221301Y-10763150D02*
X10240349Y-10772674D01*
X10240349Y-10772674D02*
X10249873Y-10791722D01*
X10249873Y-10791722D02*
X10249873Y-10810770D01*
X10249873Y-10810770D02*
X10154635Y-10829817D01*
X10421301Y-10896484D02*
X10421301Y-10696484D01*
X10421301Y-10886960D02*
X10402254Y-10896484D01*
X10402254Y-10896484D02*
X10364158Y-10896484D01*
X10364158Y-10896484D02*
X10345111Y-10886960D01*
X10345111Y-10886960D02*
X10335587Y-10877436D01*
X10335587Y-10877436D02*
X10326063Y-10858389D01*
X10326063Y-10858389D02*
X10326063Y-10801246D01*
X10326063Y-10801246D02*
X10335587Y-10782198D01*
X10335587Y-10782198D02*
X10345111Y-10772674D01*
X10345111Y-10772674D02*
X10364158Y-10763150D01*
X10364158Y-10763150D02*
X10402254Y-10763150D01*
X10402254Y-10763150D02*
X10421301Y-10772674D01*
X10497492Y-10972674D02*
X10507016Y-10963150D01*
X10507016Y-10963150D02*
X10526063Y-10934579D01*
X10526063Y-10934579D02*
X10535587Y-10915531D01*
X10535587Y-10915531D02*
X10545111Y-10886960D01*
X10545111Y-10886960D02*
X10554635Y-10839341D01*
X10554635Y-10839341D02*
X10554635Y-10801246D01*
X10554635Y-10801246D02*
X10545111Y-10753627D01*
X10545111Y-10753627D02*
X10535587Y-10725055D01*
X10535587Y-10725055D02*
X10526063Y-10706008D01*
X10526063Y-10706008D02*
X10507016Y-10677436D01*
X10507016Y-10677436D02*
X10497492Y-10667912D01*
M02*
